<?xml version="1.0" encoding="UTF-8" standalone="no"?>
<!DOCTYPE svg PUBLIC "-//W3C//DTD SVG 1.1//EN"
 "http://www.w3.org/Graphics/SVG/1.1/DTD/svg11.dtd">
<!-- Generated by graphviz version 2.48.0 (0)
 -->
<!-- Title: G Pages: 1 -->
<svg width="2032pt" height="1106pt"
 viewBox="0.00 0.00 2032.20 1106.22" xmlns="http://www.w3.org/2000/svg" xmlns:xlink="http://www.w3.org/1999/xlink">
<g id="graph0" class="graph" transform="scale(1 1) rotate(0) translate(21.6 1084.62)">
<title>G</title>
<polygon fill="#111111" stroke="transparent" points="-21.6,21.6 -21.6,-1084.62 2010.6,-1084.62 2010.6,21.6 -21.6,21.6"/>
<!-- config/core.json -->
<g id="node1" class="node">
<title>config/core.json</title>
<path fill="none" stroke="#cfffac" d="M1732.83,-768.81C1732.83,-768.81 1637.17,-768.81 1637.17,-768.81 1633.33,-768.81 1629.5,-764.98 1629.5,-761.14 1629.5,-761.14 1629.5,-753.48 1629.5,-753.48 1629.5,-749.64 1633.33,-745.81 1637.17,-745.81 1637.17,-745.81 1732.83,-745.81 1732.83,-745.81 1736.67,-745.81 1740.5,-749.64 1740.5,-753.48 1740.5,-753.48 1740.5,-761.14 1740.5,-761.14 1740.5,-764.98 1736.67,-768.81 1732.83,-768.81"/>
<text text-anchor="middle" x="1685" y="-753.61" font-family="Arial" font-size="14.00" fill="#cfffac">config/core.json</text>
</g>
<!-- config/default_env.json -->
<g id="node2" class="node">
<title>config/default_env.json</title>
<path fill="none" stroke="#cfffac" d="M1258.83,-128.81C1258.83,-128.81 1120.17,-128.81 1120.17,-128.81 1116.33,-128.81 1112.5,-124.98 1112.5,-121.14 1112.5,-121.14 1112.5,-113.48 1112.5,-113.48 1112.5,-109.64 1116.33,-105.81 1120.17,-105.81 1120.17,-105.81 1258.83,-105.81 1258.83,-105.81 1262.67,-105.81 1266.5,-109.64 1266.5,-113.48 1266.5,-113.48 1266.5,-121.14 1266.5,-121.14 1266.5,-124.98 1262.67,-128.81 1258.83,-128.81"/>
<text text-anchor="middle" x="1189.5" y="-113.61" font-family="Arial" font-size="14.00" fill="#cfffac">config/default_env.json</text>
</g>
<!-- config/mongoose.json -->
<g id="node3" class="node">
<title>config/mongoose.json</title>
<path fill="none" stroke="#cfffac" d="M1981.33,-940.81C1981.33,-940.81 1847.67,-940.81 1847.67,-940.81 1843.83,-940.81 1840,-936.98 1840,-933.14 1840,-933.14 1840,-925.48 1840,-925.48 1840,-921.64 1843.83,-917.81 1847.67,-917.81 1847.67,-917.81 1981.33,-917.81 1981.33,-917.81 1985.17,-917.81 1989,-921.64 1989,-925.48 1989,-925.48 1989,-933.14 1989,-933.14 1989,-936.98 1985.17,-940.81 1981.33,-940.81"/>
<text text-anchor="middle" x="1914.5" y="-925.61" font-family="Arial" font-size="14.00" fill="#cfffac">config/mongoose.json</text>
</g>
<!-- config/settings.json -->
<g id="node4" class="node">
<title>config/settings.json</title>
<path fill="none" stroke="#cfffac" d="M1483.83,-418.81C1483.83,-418.81 1368.17,-418.81 1368.17,-418.81 1364.33,-418.81 1360.5,-414.98 1360.5,-411.14 1360.5,-411.14 1360.5,-403.48 1360.5,-403.48 1360.5,-399.64 1364.33,-395.81 1368.17,-395.81 1368.17,-395.81 1483.83,-395.81 1483.83,-395.81 1487.67,-395.81 1491.5,-399.64 1491.5,-403.48 1491.5,-403.48 1491.5,-411.14 1491.5,-411.14 1491.5,-414.98 1487.67,-418.81 1483.83,-418.81"/>
<text text-anchor="middle" x="1426" y="-403.61" font-family="Arial" font-size="14.00" fill="#cfffac">config/settings.json</text>
</g>
<!-- fullnode.ts -->
<g id="node5" class="node">
<title>fullnode.ts</title>
<path fill="none" stroke="#c6c5fe" d="M70.33,-497.81C70.33,-497.81 7.67,-497.81 7.67,-497.81 3.83,-497.81 0,-493.98 0,-490.14 0,-490.14 0,-482.48 0,-482.48 0,-478.64 3.83,-474.81 7.67,-474.81 7.67,-474.81 70.33,-474.81 70.33,-474.81 74.17,-474.81 78,-478.64 78,-482.48 78,-482.48 78,-490.14 78,-490.14 78,-493.98 74.17,-497.81 70.33,-497.81"/>
<text text-anchor="middle" x="39" y="-482.61" font-family="Arial" font-size="14.00" fill="#c6c5fe">fullnode.ts</text>
</g>
<!-- src/Node.ts -->
<g id="node6" class="node">
<title>src/Node.ts</title>
<path fill="none" stroke="#c6c5fe" d="M191.33,-497.81C191.33,-497.81 121.67,-497.81 121.67,-497.81 117.83,-497.81 114,-493.98 114,-490.14 114,-490.14 114,-482.48 114,-482.48 114,-478.64 117.83,-474.81 121.67,-474.81 121.67,-474.81 191.33,-474.81 191.33,-474.81 195.17,-474.81 199,-478.64 199,-482.48 199,-482.48 199,-490.14 199,-490.14 199,-493.98 195.17,-497.81 191.33,-497.81"/>
<text text-anchor="middle" x="156.5" y="-482.61" font-family="Arial" font-size="14.00" fill="#c6c5fe">src/Node.ts</text>
</g>
<!-- fullnode.ts&#45;&gt;src/Node.ts -->
<g id="edge1" class="edge">
<title>fullnode.ts&#45;&gt;src/Node.ts</title>
<path fill="none" stroke="#757575" d="M78.14,-486.31C86.36,-486.31 95.18,-486.31 103.81,-486.31"/>
<polygon fill="#757575" stroke="#757575" points="103.82,-489.81 113.82,-486.31 103.82,-482.81 103.82,-489.81"/>
</g>
<!-- src/NodeThread.ts -->
<g id="node7" class="node">
<title>src/NodeThread.ts</title>
<path fill="none" stroke="#c6c5fe" d="M767.33,-676.81C767.33,-676.81 654.67,-676.81 654.67,-676.81 650.83,-676.81 647,-672.98 647,-669.14 647,-669.14 647,-661.48 647,-661.48 647,-657.64 650.83,-653.81 654.67,-653.81 654.67,-653.81 767.33,-653.81 767.33,-653.81 771.17,-653.81 775,-657.64 775,-661.48 775,-661.48 775,-669.14 775,-669.14 775,-672.98 771.17,-676.81 767.33,-676.81"/>
<text text-anchor="middle" x="711" y="-661.61" font-family="Arial" font-size="14.00" fill="#c6c5fe">src/NodeThread.ts</text>
</g>
<!-- fullnode.ts&#45;&gt;src/NodeThread.ts -->
<g id="edge2" class="edge">
<title>fullnode.ts&#45;&gt;src/NodeThread.ts</title>
<path fill="none" stroke="#757575" d="M57.19,-497.84C90.21,-519.45 165.39,-566.14 235,-591.31 371.31,-640.6 541.28,-657.07 636.51,-662.56"/>
<polygon fill="#757575" stroke="#757575" points="636.44,-666.07 646.62,-663.12 636.83,-659.08 636.44,-666.07"/>
</g>
<!-- src/mongoose/init.ts -->
<g id="node8" class="node">
<title>src/mongoose/init.ts</title>
<path fill="none" stroke="#c6c5fe" d="M771.83,-51.81C771.83,-51.81 650.17,-51.81 650.17,-51.81 646.33,-51.81 642.5,-47.98 642.5,-44.14 642.5,-44.14 642.5,-36.48 642.5,-36.48 642.5,-32.64 646.33,-28.81 650.17,-28.81 650.17,-28.81 771.83,-28.81 771.83,-28.81 775.67,-28.81 779.5,-32.64 779.5,-36.48 779.5,-36.48 779.5,-44.14 779.5,-44.14 779.5,-47.98 775.67,-51.81 771.83,-51.81"/>
<text text-anchor="middle" x="711" y="-36.61" font-family="Arial" font-size="14.00" fill="#c6c5fe">src/mongoose/init.ts</text>
</g>
<!-- fullnode.ts&#45;&gt;src/mongoose/init.ts -->
<g id="edge3" class="edge">
<title>fullnode.ts&#45;&gt;src/mongoose/init.ts</title>
<path fill="none" stroke="#757575" d="M42.14,-474.74C52.42,-422.69 101.86,-208.52 235,-113.31 353.43,-28.62 531.12,-25.47 632.25,-32.04"/>
<polygon fill="#757575" stroke="#757575" points="632.17,-35.55 642.39,-32.75 632.66,-28.56 632.17,-35.55"/>
</g>
<!-- src/Node.ts&#45;&gt;config/mongoose.json -->
<g id="edge28" class="edge">
<title>src/Node.ts&#45;&gt;config/mongoose.json</title>
<path fill="none" stroke="#757575" d="M158.37,-498.03C165.04,-578.59 215.12,-1047.31 477.5,-1047.31 477.5,-1047.31 477.5,-1047.31 1427,-1047.31 1594.77,-1047.31 1649,-1092.51 1804,-1028.31 1844.7,-1011.45 1880.11,-972.6 1898.99,-948.89"/>
<polygon fill="#757575" stroke="#757575" points="1901.81,-950.95 1905.17,-940.91 1896.28,-946.67 1901.81,-950.95"/>
</g>
<!-- src/Node.ts&#45;&gt;config/settings.json -->
<g id="edge29" class="edge">
<title>src/Node.ts&#45;&gt;config/settings.json</title>
<path fill="none" stroke="#757575" d="M158.53,-474.56C163.72,-417.74 188.6,-171.9 235,-113.31 308.82,-20.09 358.6,-0.31 477.5,-0.31 477.5,-0.31 477.5,-0.31 953.5,-0.31 1107.31,-0.31 1169.94,4.63 1286,-96.31 1378.04,-176.35 1412,-329.29 1421.72,-385.71"/>
<polygon fill="#757575" stroke="#757575" points="1418.28,-386.35 1423.35,-395.65 1425.19,-385.22 1418.28,-386.35"/>
</g>
<!-- src/Block.ts -->
<g id="node9" class="node">
<title>src/Block.ts</title>
<path fill="none" stroke="#c6c5fe" d="M987.83,-668.81C987.83,-668.81 917.17,-668.81 917.17,-668.81 913.33,-668.81 909.5,-664.98 909.5,-661.14 909.5,-661.14 909.5,-653.48 909.5,-653.48 909.5,-649.64 913.33,-645.81 917.17,-645.81 917.17,-645.81 987.83,-645.81 987.83,-645.81 991.67,-645.81 995.5,-649.64 995.5,-653.48 995.5,-653.48 995.5,-661.14 995.5,-661.14 995.5,-664.98 991.67,-668.81 987.83,-668.81"/>
<text text-anchor="middle" x="952.5" y="-653.61" font-family="Arial" font-size="14.00" fill="#c6c5fe">src/Block.ts</text>
</g>
<!-- src/Node.ts&#45;&gt;src/Block.ts -->
<g id="edge30" class="edge">
<title>src/Node.ts&#45;&gt;src/Block.ts</title>
<path fill="none" stroke="#757575" d="M165.17,-498.02C177.53,-515.84 203.67,-549.34 235,-565.31 294.05,-595.4 744.14,-638.53 899.2,-652.64"/>
<polygon fill="#757575" stroke="#757575" points="899.13,-656.15 909.41,-653.57 899.77,-649.18 899.13,-656.15"/>
</g>
<!-- src/Transaction.ts -->
<g id="node10" class="node">
<title>src/Transaction.ts</title>
<path fill="none" stroke="#c6c5fe" d="M1243.33,-553.81C1243.33,-553.81 1135.67,-553.81 1135.67,-553.81 1131.83,-553.81 1128,-549.98 1128,-546.14 1128,-546.14 1128,-538.48 1128,-538.48 1128,-534.64 1131.83,-530.81 1135.67,-530.81 1135.67,-530.81 1243.33,-530.81 1243.33,-530.81 1247.17,-530.81 1251,-534.64 1251,-538.48 1251,-538.48 1251,-546.14 1251,-546.14 1251,-549.98 1247.17,-553.81 1243.33,-553.81"/>
<text text-anchor="middle" x="1189.5" y="-538.61" font-family="Arial" font-size="14.00" fill="#c6c5fe">src/Transaction.ts</text>
</g>
<!-- src/Node.ts&#45;&gt;src/Transaction.ts -->
<g id="edge35" class="edge">
<title>src/Node.ts&#45;&gt;src/Transaction.ts</title>
<path fill="none" stroke="#757575" d="M167.36,-474.8C180.87,-460.02 206.69,-435.11 235,-425.31 282.04,-409.02 297.27,-423.23 347,-425.31 638.43,-437.48 981.75,-500.66 1122.9,-528.79"/>
<polygon fill="#757575" stroke="#757575" points="1122.21,-532.22 1132.71,-530.75 1123.59,-525.35 1122.21,-532.22"/>
</g>
<!-- src/beautifyBigInt.ts -->
<g id="node11" class="node">
<title>src/beautifyBigInt.ts</title>
<path fill="none" stroke="#c6c5fe" d="M1485.33,-788.81C1485.33,-788.81 1366.67,-788.81 1366.67,-788.81 1362.83,-788.81 1359,-784.98 1359,-781.14 1359,-781.14 1359,-773.48 1359,-773.48 1359,-769.64 1362.83,-765.81 1366.67,-765.81 1366.67,-765.81 1485.33,-765.81 1485.33,-765.81 1489.17,-765.81 1493,-769.64 1493,-773.48 1493,-773.48 1493,-781.14 1493,-781.14 1493,-784.98 1489.17,-788.81 1485.33,-788.81"/>
<text text-anchor="middle" x="1426" y="-773.61" font-family="Arial" font-size="14.00" fill="#c6c5fe">src/beautifyBigInt.ts</text>
</g>
<!-- src/Node.ts&#45;&gt;src/beautifyBigInt.ts -->
<g id="edge36" class="edge">
<title>src/Node.ts&#45;&gt;src/beautifyBigInt.ts</title>
<path fill="none" stroke="#757575" d="M158.9,-498.08C163.46,-531.22 180.85,-626.23 235,-678.31 443.64,-878.95 564.36,-840.57 848,-898.31 1038.85,-937.16 1108.57,-992.64 1286,-912.31 1308.09,-902.31 1305.02,-888.62 1322,-871.31 1348.94,-843.85 1382.12,-814.26 1403.42,-795.77"/>
<polygon fill="#757575" stroke="#757575" points="1405.95,-798.2 1411.22,-789.02 1401.37,-792.91 1405.95,-798.2"/>
</g>
<!-- src/Blockchain.ts -->
<g id="node15" class="node">
<title>src/Blockchain.ts</title>
<path fill="none" stroke="#c6c5fe" d="M762.33,-717.81C762.33,-717.81 659.67,-717.81 659.67,-717.81 655.83,-717.81 652,-713.98 652,-710.14 652,-710.14 652,-702.48 652,-702.48 652,-698.64 655.83,-694.81 659.67,-694.81 659.67,-694.81 762.33,-694.81 762.33,-694.81 766.17,-694.81 770,-698.64 770,-702.48 770,-702.48 770,-710.14 770,-710.14 770,-713.98 766.17,-717.81 762.33,-717.81"/>
<text text-anchor="middle" x="711" y="-702.61" font-family="Arial" font-size="14.00" fill="#c6c5fe">src/Blockchain.ts</text>
</g>
<!-- src/Node.ts&#45;&gt;src/Blockchain.ts -->
<g id="edge31" class="edge">
<title>src/Node.ts&#45;&gt;src/Blockchain.ts</title>
<path fill="none" stroke="#757575" d="M159.59,-497.88C165.52,-527.05 185.36,-603.79 235,-639.31 357,-726.6 542.48,-724.22 641.71,-715.14"/>
<polygon fill="#757575" stroke="#757575" points="642.29,-718.6 651.91,-714.16 641.62,-711.64 642.29,-718.6"/>
</g>
<!-- src/log.ts -->
<g id="node16" class="node">
<title>src/log.ts</title>
<path fill="none" stroke="#c6c5fe" d="M980.33,-128.81C980.33,-128.81 924.67,-128.81 924.67,-128.81 920.83,-128.81 917,-124.98 917,-121.14 917,-121.14 917,-113.48 917,-113.48 917,-109.64 920.83,-105.81 924.67,-105.81 924.67,-105.81 980.33,-105.81 980.33,-105.81 984.17,-105.81 988,-109.64 988,-113.48 988,-113.48 988,-121.14 988,-121.14 988,-124.98 984.17,-128.81 980.33,-128.81"/>
<text text-anchor="middle" x="952.5" y="-113.61" font-family="Arial" font-size="14.00" fill="#c6c5fe">src/log.ts</text>
</g>
<!-- src/Node.ts&#45;&gt;src/log.ts -->
<g id="edge37" class="edge">
<title>src/Node.ts&#45;&gt;src/log.ts</title>
<path fill="none" stroke="#757575" d="M158.63,-474.48C163.94,-421.55 188.11,-207 235,-162.31 331.26,-70.54 764.95,-100.5 906.6,-113.01"/>
<polygon fill="#757575" stroke="#757575" points="906.4,-116.51 916.67,-113.91 907.02,-109.53 906.4,-116.51"/>
</g>
<!-- src/HTTPApi.ts -->
<g id="node18" class="node">
<title>src/HTTPApi.ts</title>
<path fill="none" stroke="#c6c5fe" d="M756.83,-322.81C756.83,-322.81 665.17,-322.81 665.17,-322.81 661.33,-322.81 657.5,-318.98 657.5,-315.14 657.5,-315.14 657.5,-307.48 657.5,-307.48 657.5,-303.64 661.33,-299.81 665.17,-299.81 665.17,-299.81 756.83,-299.81 756.83,-299.81 760.67,-299.81 764.5,-303.64 764.5,-307.48 764.5,-307.48 764.5,-315.14 764.5,-315.14 764.5,-318.98 760.67,-322.81 756.83,-322.81"/>
<text text-anchor="middle" x="711" y="-307.61" font-family="Arial" font-size="14.00" fill="#c6c5fe">src/HTTPApi.ts</text>
</g>
<!-- src/Node.ts&#45;&gt;src/HTTPApi.ts -->
<g id="edge32" class="edge">
<title>src/Node.ts&#45;&gt;src/HTTPApi.ts</title>
<path fill="none" stroke="#757575" d="M160.51,-474.79C168.04,-448.58 190.36,-384.53 235,-356.31 363.14,-275.29 550.84,-287.11 647.45,-300.44"/>
<polygon fill="#757575" stroke="#757575" points="646.96,-303.91 657.35,-301.86 647.95,-296.98 646.96,-303.91"/>
</g>
<!-- src/TCPApi.ts -->
<g id="node20" class="node">
<title>src/TCPApi.ts</title>
<path fill="none" stroke="#c6c5fe" d="M519.83,-166.81C519.83,-166.81 437.17,-166.81 437.17,-166.81 433.33,-166.81 429.5,-162.98 429.5,-159.14 429.5,-159.14 429.5,-151.48 429.5,-151.48 429.5,-147.64 433.33,-143.81 437.17,-143.81 437.17,-143.81 519.83,-143.81 519.83,-143.81 523.67,-143.81 527.5,-147.64 527.5,-151.48 527.5,-151.48 527.5,-159.14 527.5,-159.14 527.5,-162.98 523.67,-166.81 519.83,-166.81"/>
<text text-anchor="middle" x="478.5" y="-151.61" font-family="Arial" font-size="14.00" fill="#c6c5fe">src/TCPApi.ts</text>
</g>
<!-- src/Node.ts&#45;&gt;src/TCPApi.ts -->
<g id="edge33" class="edge">
<title>src/Node.ts&#45;&gt;src/TCPApi.ts</title>
<path fill="none" stroke="#757575" d="M157.13,-474.7C156.47,-433.44 160.04,-292.46 235,-219.31 284.04,-171.46 364.42,-158.25 419.08,-155.18"/>
<polygon fill="#757575" stroke="#757575" points="419.48,-158.66 429.31,-154.7 419.16,-151.67 419.48,-158.66"/>
</g>
<!-- src/TCPNode.ts -->
<g id="node21" class="node">
<title>src/TCPNode.ts</title>
<path fill="none" stroke="#c6c5fe" d="M339.33,-457.81C339.33,-457.81 242.67,-457.81 242.67,-457.81 238.83,-457.81 235,-453.98 235,-450.14 235,-450.14 235,-442.48 235,-442.48 235,-438.64 238.83,-434.81 242.67,-434.81 242.67,-434.81 339.33,-434.81 339.33,-434.81 343.17,-434.81 347,-438.64 347,-442.48 347,-442.48 347,-450.14 347,-450.14 347,-453.98 343.17,-457.81 339.33,-457.81"/>
<text text-anchor="middle" x="291" y="-442.61" font-family="Arial" font-size="14.00" fill="#c6c5fe">src/TCPNode.ts</text>
</g>
<!-- src/Node.ts&#45;&gt;src/TCPNode.ts -->
<g id="edge34" class="edge">
<title>src/Node.ts&#45;&gt;src/TCPNode.ts</title>
<path fill="none" stroke="#757575" d="M195.82,-474.74C210.24,-470.39 226.83,-465.38 242.02,-460.79"/>
<polygon fill="#757575" stroke="#757575" points="243.2,-464.09 251.76,-457.85 241.18,-457.39 243.2,-464.09"/>
</g>
<!-- src/mongoose/model/node.ts -->
<g id="node22" class="node">
<title>src/mongoose/model/node.ts</title>
<path fill="none" stroke="#c6c5fe" d="M566.33,-577.81C566.33,-577.81 390.67,-577.81 390.67,-577.81 386.83,-577.81 383,-573.98 383,-570.14 383,-570.14 383,-562.48 383,-562.48 383,-558.64 386.83,-554.81 390.67,-554.81 390.67,-554.81 566.33,-554.81 566.33,-554.81 570.17,-554.81 574,-558.64 574,-562.48 574,-562.48 574,-570.14 574,-570.14 574,-573.98 570.17,-577.81 566.33,-577.81"/>
<text text-anchor="middle" x="478.5" y="-562.61" font-family="Arial" font-size="14.00" fill="#c6c5fe">src/mongoose/model/node.ts</text>
</g>
<!-- src/Node.ts&#45;&gt;src/mongoose/model/node.ts -->
<g id="edge38" class="edge">
<title>src/Node.ts&#45;&gt;src/mongoose/model/node.ts</title>
<path fill="none" stroke="#757575" d="M169.79,-497.87C184.18,-510.66 209.35,-530.72 235,-540.31 278.42,-556.54 329.05,-563.64 372.78,-566.46"/>
<polygon fill="#757575" stroke="#757575" points="372.68,-569.96 382.87,-567.04 373.09,-562.97 372.68,-569.96"/>
</g>
<!-- src/protocol.ts -->
<g id="node23" class="node">
<title>src/protocol.ts</title>
<path fill="none" stroke="#c6c5fe" d="M753.83,-516.81C753.83,-516.81 668.17,-516.81 668.17,-516.81 664.33,-516.81 660.5,-512.98 660.5,-509.14 660.5,-509.14 660.5,-501.48 660.5,-501.48 660.5,-497.64 664.33,-493.81 668.17,-493.81 668.17,-493.81 753.83,-493.81 753.83,-493.81 757.67,-493.81 761.5,-497.64 761.5,-501.48 761.5,-501.48 761.5,-509.14 761.5,-509.14 761.5,-512.98 757.67,-516.81 753.83,-516.81"/>
<text text-anchor="middle" x="711" y="-501.61" font-family="Arial" font-size="14.00" fill="#c6c5fe">src/protocol.ts</text>
</g>
<!-- src/Node.ts&#45;&gt;src/protocol.ts -->
<g id="edge39" class="edge">
<title>src/Node.ts&#45;&gt;src/protocol.ts</title>
<path fill="none" stroke="#757575" d="M199.4,-491.14C244.63,-496.1 318.8,-503.47 383,-506.31 467.81,-510.06 489.11,-506.62 574,-506.31 598.89,-506.22 626.34,-506.03 650.02,-505.84"/>
<polygon fill="#757575" stroke="#757575" points="650.29,-509.34 660.26,-505.76 650.23,-502.34 650.29,-509.34"/>
</g>
<!-- src/NodeThread.ts&#45;&gt;src/Block.ts -->
<g id="edge40" class="edge">
<title>src/NodeThread.ts&#45;&gt;src/Block.ts</title>
<path fill="none" stroke="#757575" d="M775.24,-663.2C813.84,-661.91 862.6,-660.28 899.04,-659.06"/>
<polygon fill="#757575" stroke="#757575" points="899.58,-662.54 909.46,-658.71 899.34,-655.55 899.58,-662.54"/>
</g>
<!-- src/NodeThread.ts&#45;&gt;src/Transaction.ts -->
<g id="edge41" class="edge">
<title>src/NodeThread.ts&#45;&gt;src/Transaction.ts</title>
<path fill="none" stroke="#757575" d="M733.01,-653.71C759.19,-639.75 805.64,-616.53 848,-603.31 938.98,-574.92 1048.01,-558.28 1117.75,-549.74"/>
<polygon fill="#757575" stroke="#757575" points="1118.24,-553.21 1127.75,-548.54 1117.4,-546.26 1118.24,-553.21"/>
</g>
<!-- src/mongoose/init.ts&#45;&gt;config/default_env.json -->
<g id="edge63" class="edge">
<title>src/mongoose/init.ts&#45;&gt;config/default_env.json</title>
<path fill="none" stroke="#757575" d="M779.72,-38.43C849.98,-37.97 962.56,-41.39 1057,-63.31 1092.76,-71.61 1131.35,-88.49 1157.42,-101.18"/>
<polygon fill="#757575" stroke="#757575" points="1155.91,-104.34 1166.43,-105.65 1159.02,-98.07 1155.91,-104.34"/>
</g>
<!-- src/mongoose/init.ts&#45;&gt;src/log.ts -->
<g id="edge64" class="edge">
<title>src/mongoose/init.ts&#45;&gt;src/log.ts</title>
<path fill="none" stroke="#757575" d="M760.08,-51.81C776.63,-56.04 795.22,-61.07 812,-66.31 846.57,-77.09 885.2,-91.4 913.02,-102.11"/>
<polygon fill="#757575" stroke="#757575" points="911.8,-105.39 922.39,-105.74 914.33,-98.86 911.8,-105.39"/>
</g>
<!-- src/Block.ts&#45;&gt;config/core.json -->
<g id="edge4" class="edge">
<title>src/Block.ts&#45;&gt;config/core.json</title>
<path fill="none" stroke="#757575" d="M995.53,-665.42C1023.17,-670.61 1060.17,-677.29 1093,-682.31 1283.66,-711.47 1510.16,-737.94 1619.11,-750.17"/>
<polygon fill="#757575" stroke="#757575" points="1618.95,-753.68 1629.28,-751.31 1619.73,-746.72 1618.95,-753.68"/>
</g>
<!-- src/Block.ts&#45;&gt;config/mongoose.json -->
<g id="edge5" class="edge">
<title>src/Block.ts&#45;&gt;config/mongoose.json</title>
<path fill="none" stroke="#757575" d="M995.88,-646.97C1130.6,-616.77 1554.78,-542.6 1804,-737.31 1862.17,-782.75 1894.75,-868.31 1907.35,-908.04"/>
<polygon fill="#757575" stroke="#757575" points="1904.04,-909.2 1910.31,-917.74 1910.74,-907.16 1904.04,-909.2"/>
</g>
<!-- src/Block.ts&#45;&gt;config/settings.json -->
<g id="edge6" class="edge">
<title>src/Block.ts&#45;&gt;config/settings.json</title>
<path fill="none" stroke="#757575" d="M961.77,-645.65C981.31,-619.05 1033.21,-553.66 1093,-521.31 1170.29,-479.49 1203.32,-508.09 1286,-478.31 1326.31,-463.79 1369.86,-440.12 1397.26,-424.14"/>
<polygon fill="#757575" stroke="#757575" points="1399.07,-427.14 1405.91,-419.04 1395.52,-421.11 1399.07,-427.14"/>
</g>
<!-- src/Block.ts&#45;&gt;src/Transaction.ts -->
<g id="edge7" class="edge">
<title>src/Block.ts&#45;&gt;src/Transaction.ts</title>
<path fill="none" stroke="#757575" d="M995.54,-654.67C1015.87,-651.54 1039.58,-644.97 1057,-631.31 1083.91,-610.21 1065.78,-584.01 1093,-563.31 1100.52,-557.59 1109.29,-553.36 1118.4,-550.25"/>
<polygon fill="#757575" stroke="#757575" points="1119.4,-553.61 1127.99,-547.4 1117.4,-546.9 1119.4,-553.61"/>
</g>
<!-- src/Block.ts&#45;&gt;src/beautifyBigInt.ts -->
<g id="edge8" class="edge">
<title>src/Block.ts&#45;&gt;src/beautifyBigInt.ts</title>
<path fill="none" stroke="#757575" d="M965.73,-668.86C988.6,-689.66 1040.33,-732.94 1093,-751.31 1176.86,-780.55 1279.62,-784.06 1348.4,-782.19"/>
<polygon fill="#757575" stroke="#757575" points="1348.84,-785.68 1358.72,-781.86 1348.61,-778.68 1348.84,-785.68"/>
</g>
<!-- src/mongoose/model/block.ts -->
<g id="node12" class="node">
<title>src/mongoose/model/block.ts</title>
<path fill="none" stroke="#c6c5fe" d="M1278.33,-902.81C1278.33,-902.81 1100.67,-902.81 1100.67,-902.81 1096.83,-902.81 1093,-898.98 1093,-895.14 1093,-895.14 1093,-887.48 1093,-887.48 1093,-883.64 1096.83,-879.81 1100.67,-879.81 1100.67,-879.81 1278.33,-879.81 1278.33,-879.81 1282.17,-879.81 1286,-883.64 1286,-887.48 1286,-887.48 1286,-895.14 1286,-895.14 1286,-898.98 1282.17,-902.81 1278.33,-902.81"/>
<text text-anchor="middle" x="1189.5" y="-887.61" font-family="Arial" font-size="14.00" fill="#c6c5fe">src/mongoose/model/block.ts</text>
</g>
<!-- src/Block.ts&#45;&gt;src/mongoose/model/block.ts -->
<g id="edge9" class="edge">
<title>src/Block.ts&#45;&gt;src/mongoose/model/block.ts</title>
<path fill="none" stroke="#757575" d="M965.15,-668.91C1002.97,-706.57 1122.55,-825.64 1169.4,-872.29"/>
<polygon fill="#757575" stroke="#757575" points="1167.22,-875.06 1176.78,-879.63 1172.16,-870.1 1167.22,-875.06"/>
</g>
<!-- src/parseBigInt.ts -->
<g id="node13" class="node">
<title>src/parseBigInt.ts</title>
<path fill="none" stroke="#c6c5fe" d="M1478.83,-691.81C1478.83,-691.81 1373.17,-691.81 1373.17,-691.81 1369.33,-691.81 1365.5,-687.98 1365.5,-684.14 1365.5,-684.14 1365.5,-676.48 1365.5,-676.48 1365.5,-672.64 1369.33,-668.81 1373.17,-668.81 1373.17,-668.81 1478.83,-668.81 1478.83,-668.81 1482.67,-668.81 1486.5,-672.64 1486.5,-676.48 1486.5,-676.48 1486.5,-684.14 1486.5,-684.14 1486.5,-687.98 1482.67,-691.81 1478.83,-691.81"/>
<text text-anchor="middle" x="1426" y="-676.61" font-family="Arial" font-size="14.00" fill="#c6c5fe">src/parseBigInt.ts</text>
</g>
<!-- src/Block.ts&#45;&gt;src/parseBigInt.ts -->
<g id="edge10" class="edge">
<title>src/Block.ts&#45;&gt;src/parseBigInt.ts</title>
<path fill="none" stroke="#757575" d="M995.76,-659.37C1076.97,-663.33 1255.57,-672.04 1354.89,-676.89"/>
<polygon fill="#757575" stroke="#757575" points="1354.97,-680.4 1365.13,-677.39 1355.31,-673.4 1354.97,-680.4"/>
</g>
<!-- src/proofOfWorkHash.ts -->
<g id="node14" class="node">
<title>src/proofOfWorkHash.ts</title>
<path fill="none" stroke="#cfffac" d="M1262.33,-594.81C1262.33,-594.81 1116.67,-594.81 1116.67,-594.81 1112.83,-594.81 1109,-590.98 1109,-587.14 1109,-587.14 1109,-579.48 1109,-579.48 1109,-575.64 1112.83,-571.81 1116.67,-571.81 1116.67,-571.81 1262.33,-571.81 1262.33,-571.81 1266.17,-571.81 1270,-575.64 1270,-579.48 1270,-579.48 1270,-587.14 1270,-587.14 1270,-590.98 1266.17,-594.81 1262.33,-594.81"/>
<text text-anchor="middle" x="1189.5" y="-579.61" font-family="Arial" font-size="14.00" fill="#cfffac">src/proofOfWorkHash.ts</text>
</g>
<!-- src/Block.ts&#45;&gt;src/proofOfWorkHash.ts -->
<g id="edge11" class="edge">
<title>src/Block.ts&#45;&gt;src/proofOfWorkHash.ts</title>
<path fill="none" stroke="#757575" d="M995.73,-649.73C1014.87,-645.53 1037.52,-639.48 1057,-631.31 1074.29,-624.05 1075.78,-616.73 1093,-609.31 1103.37,-604.83 1114.72,-600.94 1125.85,-597.63"/>
<polygon fill="#757575" stroke="#757575" points="1126.89,-600.98 1135.55,-594.87 1124.97,-594.24 1126.89,-600.98"/>
</g>
<!-- src/Transaction.ts&#45;&gt;config/mongoose.json -->
<g id="edge55" class="edge">
<title>src/Transaction.ts&#45;&gt;config/mongoose.json</title>
<path fill="none" stroke="#757575" d="M1236.01,-530.72C1349.59,-504.81 1647.61,-455.85 1804,-609.31 1890.64,-694.32 1908.76,-850.69 1912.52,-907.75"/>
<polygon fill="#757575" stroke="#757575" points="1909.03,-908 1913.1,-917.79 1916.02,-907.6 1909.03,-908"/>
</g>
<!-- src/Transaction.ts&#45;&gt;config/settings.json -->
<g id="edge56" class="edge">
<title>src/Transaction.ts&#45;&gt;config/settings.json</title>
<path fill="none" stroke="#757575" d="M1247.43,-530.8C1260.48,-527.09 1274.02,-522.32 1286,-516.31 1286.81,-515.9 1362.71,-456.27 1402,-425.39"/>
<polygon fill="#757575" stroke="#757575" points="1404.53,-427.85 1410.23,-418.92 1400.21,-422.35 1404.53,-427.85"/>
</g>
<!-- src/Transaction.ts&#45;&gt;src/beautifyBigInt.ts -->
<g id="edge58" class="edge">
<title>src/Transaction.ts&#45;&gt;src/beautifyBigInt.ts</title>
<path fill="none" stroke="#757575" d="M1251.46,-545.46C1264.19,-548.74 1276.58,-554.25 1286,-563.31 1331.68,-607.25 1286.46,-648.82 1322,-701.31 1339.52,-727.19 1368.87,-747.57 1391.77,-760.68"/>
<polygon fill="#757575" stroke="#757575" points="1390.37,-763.91 1400.82,-765.68 1393.76,-757.78 1390.37,-763.91"/>
</g>
<!-- src/Transaction.ts&#45;&gt;src/parseBigInt.ts -->
<g id="edge59" class="edge">
<title>src/Transaction.ts&#45;&gt;src/parseBigInt.ts</title>
<path fill="none" stroke="#757575" d="M1251.02,-549.56C1263.15,-552.65 1275.4,-557.05 1286,-563.31 1306.88,-575.64 1304.14,-587.9 1322,-604.31 1346.31,-626.64 1377.08,-648.64 1398.64,-663.18"/>
<polygon fill="#757575" stroke="#757575" points="1396.72,-666.11 1406.98,-668.74 1400.6,-660.28 1396.72,-666.11"/>
</g>
<!-- src/addressFromPublicKey.ts -->
<g id="node25" class="node">
<title>src/addressFromPublicKey.ts</title>
<path fill="none" stroke="#cfffac" d="M1514.33,-594.81C1514.33,-594.81 1337.67,-594.81 1337.67,-594.81 1333.83,-594.81 1330,-590.98 1330,-587.14 1330,-587.14 1330,-579.48 1330,-579.48 1330,-575.64 1333.83,-571.81 1337.67,-571.81 1337.67,-571.81 1514.33,-571.81 1514.33,-571.81 1518.17,-571.81 1522,-575.64 1522,-579.48 1522,-579.48 1522,-587.14 1522,-587.14 1522,-590.98 1518.17,-594.81 1514.33,-594.81"/>
<text text-anchor="middle" x="1426" y="-579.61" font-family="Arial" font-size="14.00" fill="#cfffac">src/addressFromPublicKey.ts</text>
</g>
<!-- src/Transaction.ts&#45;&gt;src/addressFromPublicKey.ts -->
<g id="edge57" class="edge">
<title>src/Transaction.ts&#45;&gt;src/addressFromPublicKey.ts</title>
<path fill="none" stroke="#757575" d="M1251.19,-552.92C1281.07,-558.14 1317.39,-564.49 1349.09,-570.04"/>
<polygon fill="#757575" stroke="#757575" points="1348.75,-573.53 1359.21,-571.81 1349.96,-566.64 1348.75,-573.53"/>
</g>
<!-- src/publicKeyFromPrivateKey.ts -->
<g id="node26" class="node">
<title>src/publicKeyFromPrivateKey.ts</title>
<path fill="none" stroke="#cfffac" d="M1522.33,-553.81C1522.33,-553.81 1329.67,-553.81 1329.67,-553.81 1325.83,-553.81 1322,-549.98 1322,-546.14 1322,-546.14 1322,-538.48 1322,-538.48 1322,-534.64 1325.83,-530.81 1329.67,-530.81 1329.67,-530.81 1522.33,-530.81 1522.33,-530.81 1526.17,-530.81 1530,-534.64 1530,-538.48 1530,-538.48 1530,-546.14 1530,-546.14 1530,-549.98 1526.17,-553.81 1522.33,-553.81"/>
<text text-anchor="middle" x="1426" y="-538.61" font-family="Arial" font-size="14.00" fill="#cfffac">src/publicKeyFromPrivateKey.ts</text>
</g>
<!-- src/Transaction.ts&#45;&gt;src/publicKeyFromPrivateKey.ts -->
<g id="edge60" class="edge">
<title>src/Transaction.ts&#45;&gt;src/publicKeyFromPrivateKey.ts</title>
<path fill="none" stroke="#757575" d="M1251.19,-542.31C1269.74,-542.31 1290.76,-542.31 1311.62,-542.31"/>
<polygon fill="#757575" stroke="#757575" points="1311.84,-545.81 1321.84,-542.31 1311.84,-538.81 1311.84,-545.81"/>
</g>
<!-- src/beautifyBigInt.ts&#45;&gt;config/core.json -->
<g id="edge61" class="edge">
<title>src/beautifyBigInt.ts&#45;&gt;config/core.json</title>
<path fill="none" stroke="#757575" d="M1493.18,-772.16C1531.96,-769.14 1580.72,-765.35 1619.24,-762.35"/>
<polygon fill="#757575" stroke="#757575" points="1619.61,-765.83 1629.31,-761.56 1619.07,-758.85 1619.61,-765.83"/>
</g>
<!-- src/mongoose/schema/block.ts -->
<g id="node28" class="node">
<title>src/mongoose/schema/block.ts</title>
<path fill="none" stroke="#c6c5fe" d="M1519.83,-902.81C1519.83,-902.81 1332.17,-902.81 1332.17,-902.81 1328.33,-902.81 1324.5,-898.98 1324.5,-895.14 1324.5,-895.14 1324.5,-887.48 1324.5,-887.48 1324.5,-883.64 1328.33,-879.81 1332.17,-879.81 1332.17,-879.81 1519.83,-879.81 1519.83,-879.81 1523.67,-879.81 1527.5,-883.64 1527.5,-887.48 1527.5,-887.48 1527.5,-895.14 1527.5,-895.14 1527.5,-898.98 1523.67,-902.81 1519.83,-902.81"/>
<text text-anchor="middle" x="1426" y="-887.61" font-family="Arial" font-size="14.00" fill="#c6c5fe">src/mongoose/schema/block.ts</text>
</g>
<!-- src/mongoose/model/block.ts&#45;&gt;src/mongoose/schema/block.ts -->
<g id="edge66" class="edge">
<title>src/mongoose/model/block.ts&#45;&gt;src/mongoose/schema/block.ts</title>
<path fill="none" stroke="#757575" d="M1286.22,-891.31C1295.43,-891.31 1304.82,-891.31 1314.15,-891.31"/>
<polygon fill="#757575" stroke="#757575" points="1314.25,-894.81 1324.25,-891.31 1314.25,-887.81 1314.25,-894.81"/>
</g>
<!-- src/parseBigInt.ts&#45;&gt;config/core.json -->
<g id="edge72" class="edge">
<title>src/parseBigInt.ts&#45;&gt;config/core.json</title>
<path fill="none" stroke="#757575" d="M1465.48,-691.84C1510.8,-705.42 1586.16,-727.99 1635.46,-742.77"/>
<polygon fill="#757575" stroke="#757575" points="1634.68,-746.18 1645.26,-745.7 1636.69,-739.48 1634.68,-746.18"/>
</g>
<!-- src/Blockchain.ts&#45;&gt;config/core.json -->
<g id="edge12" class="edge">
<title>src/Blockchain.ts&#45;&gt;config/core.json</title>
<path fill="none" stroke="#757575" d="M730.98,-718.02C756.53,-733.16 803.88,-759.02 848,-771.31 1140.22,-852.73 1229.22,-837.66 1530,-798.31 1568.2,-793.31 1610.41,-781.62 1640.97,-771.99"/>
<polygon fill="#757575" stroke="#757575" points="1642.4,-775.21 1650.86,-768.82 1640.27,-768.54 1642.4,-775.21"/>
</g>
<!-- src/Blockchain.ts&#45;&gt;config/mongoose.json -->
<g id="edge13" class="edge">
<title>src/Blockchain.ts&#45;&gt;config/mongoose.json</title>
<path fill="none" stroke="#757575" d="M716.05,-717.9C728.9,-752.7 772.42,-856.45 848,-898.31 1015.53,-991.09 1608.59,-954.11 1829.64,-936.54"/>
<polygon fill="#757575" stroke="#757575" points="1830.19,-940.01 1839.88,-935.72 1829.63,-933.03 1830.19,-940.01"/>
</g>
<!-- src/Blockchain.ts&#45;&gt;config/settings.json -->
<g id="edge14" class="edge">
<title>src/Blockchain.ts&#45;&gt;config/settings.json</title>
<path fill="none" stroke="#757575" d="M770.12,-704.66C785.13,-701.73 800.33,-696.23 812,-686.31 846.71,-656.79 816.93,-623.64 848,-590.31 988.32,-439.81 1084.92,-483.96 1286,-440.31 1313.28,-434.39 1343.44,-427.29 1368.68,-421.2"/>
<polygon fill="#757575" stroke="#757575" points="1369.56,-424.59 1378.45,-418.83 1367.91,-417.79 1369.56,-424.59"/>
</g>
<!-- src/Blockchain.ts&#45;&gt;src/Block.ts -->
<g id="edge15" class="edge">
<title>src/Blockchain.ts&#45;&gt;src/Block.ts</title>
<path fill="none" stroke="#757575" d="M769.92,-694.8C783.71,-692.04 798.38,-689.09 812,-686.31 840.89,-680.42 873.11,-673.73 899.31,-668.26"/>
<polygon fill="#757575" stroke="#757575" points="900.32,-671.62 909.4,-666.15 898.89,-664.77 900.32,-671.62"/>
</g>
<!-- src/Blockchain.ts&#45;&gt;src/Transaction.ts -->
<g id="edge16" class="edge">
<title>src/Blockchain.ts&#45;&gt;src/Transaction.ts</title>
<path fill="none" stroke="#757575" d="M770.04,-702.12C784.56,-699.14 799.53,-694.25 812,-686.31 834.79,-671.79 825.25,-651.89 848,-637.31 927.84,-586.13 971.89,-636.15 1057,-594.31 1075.95,-584.99 1074.11,-572.75 1093,-563.31 1100.83,-559.39 1109.39,-556.2 1118.05,-553.6"/>
<polygon fill="#757575" stroke="#757575" points="1119.14,-556.93 1127.85,-550.91 1117.28,-550.18 1119.14,-556.93"/>
</g>
<!-- src/Blockchain.ts&#45;&gt;src/beautifyBigInt.ts -->
<g id="edge17" class="edge">
<title>src/Blockchain.ts&#45;&gt;src/beautifyBigInt.ts</title>
<path fill="none" stroke="#757575" d="M756.46,-717.83C827.14,-735.49 969.75,-768.45 1093,-780.31 1178.38,-788.52 1200.23,-781.23 1286,-780.31 1306.34,-780.09 1328.35,-779.69 1348.72,-779.25"/>
<polygon fill="#757575" stroke="#757575" points="1348.98,-782.75 1358.9,-779.03 1348.82,-775.75 1348.98,-782.75"/>
</g>
<!-- src/Blockchain.ts&#45;&gt;src/mongoose/model/block.ts -->
<g id="edge20" class="edge">
<title>src/Blockchain.ts&#45;&gt;src/mongoose/model/block.ts</title>
<path fill="none" stroke="#757575" d="M717.67,-717.81C733.41,-748.32 780.95,-831.27 848,-865.31 921.06,-902.39 1014.48,-907.02 1084.97,-903.42"/>
<polygon fill="#757575" stroke="#757575" points="1085.42,-906.9 1095.2,-902.83 1085.02,-899.91 1085.42,-906.9"/>
</g>
<!-- src/Blockchain.ts&#45;&gt;src/parseBigInt.ts -->
<g id="edge21" class="edge">
<title>src/Blockchain.ts&#45;&gt;src/parseBigInt.ts</title>
<path fill="none" stroke="#757575" d="M770.05,-704.19C900.11,-699.45 1214.5,-687.98 1355.06,-682.86"/>
<polygon fill="#757575" stroke="#757575" points="1355.41,-686.35 1365.28,-682.49 1355.16,-679.35 1355.41,-686.35"/>
</g>
<!-- src/Blockchain.ts&#45;&gt;src/log.ts -->
<g id="edge18" class="edge">
<title>src/Blockchain.ts&#45;&gt;src/log.ts</title>
<path fill="none" stroke="#757575" d="M770.24,-706.99C785.89,-704.21 801.4,-698.2 812,-686.31 876.4,-614.07 813.15,-342.59 848,-252.31 866.33,-204.82 906.89,-160.09 931.44,-135.92"/>
<polygon fill="#757575" stroke="#757575" points="934.03,-138.28 938.8,-128.82 929.17,-133.25 934.03,-138.28"/>
</g>
<!-- src/mongoose/model/address.ts -->
<g id="node17" class="node">
<title>src/mongoose/model/address.ts</title>
<path fill="none" stroke="#c6c5fe" d="M1049.33,-1017.81C1049.33,-1017.81 855.67,-1017.81 855.67,-1017.81 851.83,-1017.81 848,-1013.98 848,-1010.14 848,-1010.14 848,-1002.48 848,-1002.48 848,-998.64 851.83,-994.81 855.67,-994.81 855.67,-994.81 1049.33,-994.81 1049.33,-994.81 1053.17,-994.81 1057,-998.64 1057,-1002.48 1057,-1002.48 1057,-1010.14 1057,-1010.14 1057,-1013.98 1053.17,-1017.81 1049.33,-1017.81"/>
<text text-anchor="middle" x="952.5" y="-1002.61" font-family="Arial" font-size="14.00" fill="#c6c5fe">src/mongoose/model/address.ts</text>
</g>
<!-- src/Blockchain.ts&#45;&gt;src/mongoose/model/address.ts -->
<g id="edge19" class="edge">
<title>src/Blockchain.ts&#45;&gt;src/mongoose/model/address.ts</title>
<path fill="none" stroke="#757575" d="M716.32,-717.85C730.43,-754.35 778.3,-869.04 848,-941.31 867.85,-961.89 895.48,-978.81 917.2,-990.23"/>
<polygon fill="#757575" stroke="#757575" points="915.61,-993.34 926.1,-994.78 918.79,-987.11 915.61,-993.34"/>
</g>
<!-- src/log.ts&#45;&gt;config/default_env.json -->
<g id="edge62" class="edge">
<title>src/log.ts&#45;&gt;config/default_env.json</title>
<path fill="none" stroke="#757575" d="M988.18,-117.31C1018.12,-117.31 1062.68,-117.31 1102.17,-117.31"/>
<polygon fill="#757575" stroke="#757575" points="1102.36,-120.81 1112.36,-117.31 1102.36,-113.81 1102.36,-120.81"/>
</g>
<!-- src/mongoose/schema/address.ts -->
<g id="node27" class="node">
<title>src/mongoose/schema/address.ts</title>
<path fill="none" stroke="#c6c5fe" d="M1787.33,-1018.81C1787.33,-1018.81 1582.67,-1018.81 1582.67,-1018.81 1578.83,-1018.81 1575,-1014.98 1575,-1011.14 1575,-1011.14 1575,-1003.48 1575,-1003.48 1575,-999.64 1578.83,-995.81 1582.67,-995.81 1582.67,-995.81 1787.33,-995.81 1787.33,-995.81 1791.17,-995.81 1795,-999.64 1795,-1003.48 1795,-1003.48 1795,-1011.14 1795,-1011.14 1795,-1014.98 1791.17,-1018.81 1787.33,-1018.81"/>
<text text-anchor="middle" x="1685" y="-1003.61" font-family="Arial" font-size="14.00" fill="#c6c5fe">src/mongoose/schema/address.ts</text>
</g>
<!-- src/mongoose/model/address.ts&#45;&gt;src/mongoose/schema/address.ts -->
<g id="edge65" class="edge">
<title>src/mongoose/model/address.ts&#45;&gt;src/mongoose/schema/address.ts</title>
<path fill="none" stroke="#757575" d="M1057.39,-1006.45C1191.21,-1006.63 1423.35,-1006.95 1564.39,-1007.14"/>
<polygon fill="#757575" stroke="#757575" points="1564.8,-1010.65 1574.81,-1007.16 1564.81,-1003.65 1564.8,-1010.65"/>
</g>
<!-- src/HTTPApi.ts&#45;&gt;config/default_env.json -->
<g id="edge22" class="edge">
<title>src/HTTPApi.ts&#45;&gt;config/default_env.json</title>
<path fill="none" stroke="#757575" d="M764.69,-302.68C780.51,-298.77 797.5,-293.19 812,-285.31 831.07,-274.94 829.56,-263.76 848,-252.31 932.62,-199.74 964.47,-208.23 1057,-171.31 1088.91,-158.57 1125,-143.72 1151.29,-132.82"/>
<polygon fill="#757575" stroke="#757575" points="1152.97,-135.91 1160.86,-128.85 1150.28,-129.45 1152.97,-135.91"/>
</g>
<!-- src/HTTPApi.ts&#45;&gt;config/settings.json -->
<g id="edge23" class="edge">
<title>src/HTTPApi.ts&#45;&gt;config/settings.json</title>
<path fill="none" stroke="#757575" d="M764.54,-314.89C865.91,-322.28 1095.34,-341.34 1286,-374.31 1314.8,-379.29 1346.55,-386.68 1372.42,-393.2"/>
<polygon fill="#757575" stroke="#757575" points="1371.83,-396.66 1382.39,-395.75 1373.57,-389.88 1371.83,-396.66"/>
</g>
<!-- src/HTTPApi.ts&#45;&gt;src/Block.ts -->
<g id="edge24" class="edge">
<title>src/HTTPApi.ts&#45;&gt;src/Block.ts</title>
<path fill="none" stroke="#757575" d="M719.97,-322.82C754.7,-373 893.13,-572.98 937.64,-637.28"/>
<polygon fill="#757575" stroke="#757575" points="934.93,-639.52 943.5,-645.75 940.69,-635.54 934.93,-639.52"/>
</g>
<!-- src/HTTPApi.ts&#45;&gt;src/Transaction.ts -->
<g id="edge25" class="edge">
<title>src/HTTPApi.ts&#45;&gt;src/Transaction.ts</title>
<path fill="none" stroke="#757575" d="M735.96,-322.92C814.53,-361.01 1064.54,-482.22 1155.23,-526.18"/>
<polygon fill="#757575" stroke="#757575" points="1153.97,-529.46 1164.5,-530.67 1157.02,-523.16 1153.97,-529.46"/>
</g>
<!-- src/HTTPApi.ts&#45;&gt;src/log.ts -->
<g id="edge27" class="edge">
<title>src/HTTPApi.ts&#45;&gt;src/log.ts</title>
<path fill="none" stroke="#757575" d="M722.56,-299.69C744.54,-275.87 797.36,-220.47 848,-181.31 871.29,-163.29 899.9,-145.92 921.13,-133.84"/>
<polygon fill="#757575" stroke="#757575" points="923.03,-136.79 930.03,-128.83 919.6,-130.68 923.03,-136.79"/>
</g>
<!-- src/base58.ts -->
<g id="node19" class="node">
<title>src/base58.ts</title>
<path fill="none" stroke="#cfffac" d="M993.33,-284.81C993.33,-284.81 911.67,-284.81 911.67,-284.81 907.83,-284.81 904,-280.98 904,-277.14 904,-277.14 904,-269.48 904,-269.48 904,-265.64 907.83,-261.81 911.67,-261.81 911.67,-261.81 993.33,-261.81 993.33,-261.81 997.17,-261.81 1001,-265.64 1001,-269.48 1001,-269.48 1001,-277.14 1001,-277.14 1001,-280.98 997.17,-284.81 993.33,-284.81"/>
<text text-anchor="middle" x="952.5" y="-269.61" font-family="Arial" font-size="14.00" fill="#cfffac">src/base58.ts</text>
</g>
<!-- src/HTTPApi.ts&#45;&gt;src/base58.ts -->
<g id="edge26" class="edge">
<title>src/HTTPApi.ts&#45;&gt;src/base58.ts</title>
<path fill="none" stroke="#757575" d="M764.56,-302.97C802.81,-296.9 854.59,-288.68 893.96,-282.44"/>
<polygon fill="#757575" stroke="#757575" points="894.61,-285.88 903.94,-280.85 893.51,-278.96 894.61,-285.88"/>
</g>
<!-- src/TCPApi.ts&#45;&gt;config/default_env.json -->
<g id="edge45" class="edge">
<title>src/TCPApi.ts&#45;&gt;config/default_env.json</title>
<path fill="none" stroke="#757575" d="M527.79,-146.51C552.38,-142.1 582.76,-136.77 610,-132.31 806.69,-100.1 858.31,-80.54 1057,-96.31 1077.31,-97.92 1099.21,-100.91 1119.21,-104.14"/>
<polygon fill="#757575" stroke="#757575" points="1118.73,-107.61 1129.17,-105.79 1119.88,-100.7 1118.73,-107.61"/>
</g>
<!-- src/TCPApi.ts&#45;&gt;config/settings.json -->
<g id="edge46" class="edge">
<title>src/TCPApi.ts&#45;&gt;config/settings.json</title>
<path fill="none" stroke="#757575" d="M527.79,-159.92C627.91,-170.25 864.84,-198.64 1057,-252.31 1162.48,-281.77 1185.33,-300.17 1286,-343.31 1322.26,-358.85 1363.22,-377.89 1391.23,-391.15"/>
<polygon fill="#757575" stroke="#757575" points="1390.04,-394.46 1400.57,-395.58 1393.04,-388.13 1390.04,-394.46"/>
</g>
<!-- src/TCPApi.ts&#45;&gt;src/log.ts -->
<g id="edge47" class="edge">
<title>src/TCPApi.ts&#45;&gt;src/log.ts</title>
<path fill="none" stroke="#757575" d="M527.73,-152.55C592.45,-148.72 710.99,-141.23 812,-132.31 843.74,-129.51 879.46,-125.65 906.81,-122.55"/>
<polygon fill="#757575" stroke="#757575" points="907.31,-126.02 916.85,-121.4 906.52,-119.06 907.31,-126.02"/>
</g>
<!-- src/TCPApi.ts&#45;&gt;src/protocol.ts -->
<g id="edge48" class="edge">
<title>src/TCPApi.ts&#45;&gt;src/protocol.ts</title>
<path fill="none" stroke="#757575" d="M487.17,-166.95C520.6,-217.71 653.82,-420.01 696.66,-485.05"/>
<polygon fill="#757575" stroke="#757575" points="693.88,-487.19 702.3,-493.62 699.72,-483.34 693.88,-487.19"/>
</g>
<!-- src/TCPNode.ts&#45;&gt;config/default_env.json -->
<g id="edge49" class="edge">
<title>src/TCPNode.ts&#45;&gt;config/default_env.json</title>
<path fill="none" stroke="#757575" d="M310.3,-434.55C378.28,-391.47 623.88,-241.18 848,-171.31 854.13,-169.4 1005.05,-145.78 1103.88,-130.42"/>
<polygon fill="#757575" stroke="#757575" points="1104.53,-133.86 1113.87,-128.87 1103.45,-126.95 1104.53,-133.86"/>
</g>
<!-- src/TCPNode.ts&#45;&gt;config/settings.json -->
<g id="edge50" class="edge">
<title>src/TCPNode.ts&#45;&gt;config/settings.json</title>
<path fill="none" stroke="#757575" d="M347.34,-443.89C477.41,-438.26 812.72,-424.11 1093,-415.31 1181.39,-412.53 1283.04,-410.21 1350.33,-408.8"/>
<polygon fill="#757575" stroke="#757575" points="1350.49,-412.29 1360.41,-408.59 1350.34,-405.3 1350.49,-412.29"/>
</g>
<!-- src/TCPNode.ts&#45;&gt;src/log.ts -->
<g id="edge52" class="edge">
<title>src/TCPNode.ts&#45;&gt;src/log.ts</title>
<path fill="none" stroke="#757575" d="M294.09,-434.37C300.6,-400.83 323.76,-305.1 383,-257.31 535.61,-134.19 622.82,-205.87 812,-154.31 828.14,-149.91 831.88,-147.79 848,-143.31 867.28,-137.95 888.71,-132.48 907.05,-127.95"/>
<polygon fill="#757575" stroke="#757575" points="908.01,-131.32 916.89,-125.54 906.34,-124.52 908.01,-131.32"/>
</g>
<!-- src/TCPNode.ts&#45;&gt;src/mongoose/model/node.ts -->
<g id="edge53" class="edge">
<title>src/TCPNode.ts&#45;&gt;src/mongoose/model/node.ts</title>
<path fill="none" stroke="#757575" d="M309.39,-457.9C327.66,-470.05 357.26,-489.65 383,-506.31 405.57,-520.92 431.35,-537.26 450.27,-549.2"/>
<polygon fill="#757575" stroke="#757575" points="448.64,-552.31 458.97,-554.68 452.38,-546.38 448.64,-552.31"/>
</g>
<!-- src/TCPNode.ts&#45;&gt;src/protocol.ts -->
<g id="edge54" class="edge">
<title>src/TCPNode.ts&#45;&gt;src/protocol.ts</title>
<path fill="none" stroke="#757575" d="M347.02,-446.47C404.17,-447.46 495.99,-451.38 574,-465.31 606.23,-471.06 641.68,-481.63 668.3,-490.47"/>
<polygon fill="#757575" stroke="#757575" points="667.46,-493.87 678.05,-493.75 669.69,-487.24 667.46,-493.87"/>
</g>
<!-- src/Peer.ts -->
<g id="node24" class="node">
<title>src/Peer.ts</title>
<path fill="none" stroke="#c6c5fe" d="M510.83,-497.81C510.83,-497.81 446.17,-497.81 446.17,-497.81 442.33,-497.81 438.5,-493.98 438.5,-490.14 438.5,-490.14 438.5,-482.48 438.5,-482.48 438.5,-478.64 442.33,-474.81 446.17,-474.81 446.17,-474.81 510.83,-474.81 510.83,-474.81 514.67,-474.81 518.5,-478.64 518.5,-482.48 518.5,-482.48 518.5,-490.14 518.5,-490.14 518.5,-493.98 514.67,-497.81 510.83,-497.81"/>
<text text-anchor="middle" x="478.5" y="-482.61" font-family="Arial" font-size="14.00" fill="#c6c5fe">src/Peer.ts</text>
</g>
<!-- src/TCPNode.ts&#45;&gt;src/Peer.ts -->
<g id="edge51" class="edge">
<title>src/TCPNode.ts&#45;&gt;src/Peer.ts</title>
<path fill="none" stroke="#757575" d="M345.65,-457.88C371.82,-463.52 403.07,-470.26 428.57,-475.76"/>
<polygon fill="#757575" stroke="#757575" points="427.89,-479.19 438.4,-477.88 429.37,-472.35 427.89,-479.19"/>
</g>
<!-- src/mongoose/schema/node.ts -->
<g id="node29" class="node">
<title>src/mongoose/schema/node.ts</title>
<path fill="none" stroke="#cfffac" d="M804.33,-596.81C804.33,-596.81 617.67,-596.81 617.67,-596.81 613.83,-596.81 610,-592.98 610,-589.14 610,-589.14 610,-581.48 610,-581.48 610,-577.64 613.83,-573.81 617.67,-573.81 617.67,-573.81 804.33,-573.81 804.33,-573.81 808.17,-573.81 812,-577.64 812,-581.48 812,-581.48 812,-589.14 812,-589.14 812,-592.98 808.17,-596.81 804.33,-596.81"/>
<text text-anchor="middle" x="711" y="-581.61" font-family="Arial" font-size="14.00" fill="#cfffac">src/mongoose/schema/node.ts</text>
</g>
<!-- src/mongoose/model/node.ts&#45;&gt;src/mongoose/schema/node.ts -->
<g id="edge67" class="edge">
<title>src/mongoose/model/node.ts&#45;&gt;src/mongoose/schema/node.ts</title>
<path fill="none" stroke="#757575" d="M574.25,-574.12C582.55,-574.8 590.99,-575.5 599.41,-576.19"/>
<polygon fill="#757575" stroke="#757575" points="599.38,-579.7 609.64,-577.04 599.96,-572.73 599.38,-579.7"/>
</g>
<!-- src/protocol.ts&#45;&gt;src/Block.ts -->
<g id="edge73" class="edge">
<title>src/protocol.ts&#45;&gt;src/Block.ts</title>
<path fill="none" stroke="#757575" d="M761.57,-513.26C778.25,-517.2 796.53,-522.97 812,-531.31 839.01,-545.87 901.62,-607.04 932.95,-638.47"/>
<polygon fill="#757575" stroke="#757575" points="930.67,-641.15 940.2,-645.78 935.64,-636.22 930.67,-641.15"/>
</g>
<!-- src/protocol.ts&#45;&gt;src/Transaction.ts -->
<g id="edge74" class="edge">
<title>src/protocol.ts&#45;&gt;src/Transaction.ts</title>
<path fill="none" stroke="#757575" d="M761.72,-509.87C787.47,-512.19 819.41,-515 848,-517.31 941.15,-524.84 1048.7,-532.57 1117.6,-537.41"/>
<polygon fill="#757575" stroke="#757575" points="1117.67,-540.92 1127.89,-538.13 1118.16,-533.94 1117.67,-540.92"/>
</g>
<!-- src/Peer.ts&#45;&gt;config/settings.json -->
<g id="edge42" class="edge">
<title>src/Peer.ts&#45;&gt;config/settings.json</title>
<path fill="none" stroke="#757575" d="M518.62,-483.04C661.92,-471.07 1159.63,-429.48 1350.08,-413.57"/>
<polygon fill="#757575" stroke="#757575" points="1350.6,-417.04 1360.28,-412.72 1350.02,-410.06 1350.6,-417.04"/>
</g>
<!-- src/Peer.ts&#45;&gt;src/Block.ts -->
<g id="edge43" class="edge">
<title>src/Peer.ts&#45;&gt;src/Block.ts</title>
<path fill="none" stroke="#757575" d="M514.7,-497.82C540.82,-506.11 577.41,-517.23 610,-525.31 698.83,-547.32 727.33,-530.58 812,-565.31 857.53,-583.99 903.98,-618.31 930.13,-639.34"/>
<polygon fill="#757575" stroke="#757575" points="927.92,-642.05 937.88,-645.66 932.35,-636.63 927.92,-642.05"/>
</g>
<!-- src/Peer.ts&#45;&gt;src/protocol.ts -->
<g id="edge44" class="edge">
<title>src/Peer.ts&#45;&gt;src/protocol.ts</title>
<path fill="none" stroke="#757575" d="M518.6,-489.53C554.67,-492.5 608.76,-496.96 650.25,-500.38"/>
<polygon fill="#757575" stroke="#757575" points="649.98,-503.87 660.23,-501.21 650.55,-496.9 649.98,-503.87"/>
</g>
<!-- src/mongoose/schema/address.ts&#45;&gt;config/mongoose.json -->
<g id="edge68" class="edge">
<title>src/mongoose/schema/address.ts&#45;&gt;config/mongoose.json</title>
<path fill="none" stroke="#757575" d="M1751.03,-995.74C1768.46,-991.9 1787.13,-987.09 1804,-981.31 1831.92,-971.74 1862.11,-957.05 1883.71,-945.72"/>
<polygon fill="#757575" stroke="#757575" points="1885.51,-948.73 1892.7,-940.94 1882.22,-942.55 1885.51,-948.73"/>
</g>
<!-- src/mongoose/schema/block.ts&#45;&gt;config/mongoose.json -->
<g id="edge69" class="edge">
<title>src/mongoose/schema/block.ts&#45;&gt;config/mongoose.json</title>
<path fill="none" stroke="#757575" d="M1502.98,-902.83C1523.41,-905.62 1545.51,-908.35 1566,-910.31 1655.86,-918.89 1759.19,-923.93 1829.66,-926.63"/>
<polygon fill="#757575" stroke="#757575" points="1829.69,-930.14 1839.82,-927.02 1829.96,-923.14 1829.69,-930.14"/>
</g>
<!-- src/mongoose/schema/transaction.ts -->
<g id="node30" class="node">
<title>src/mongoose/schema/transaction.ts</title>
<path fill="none" stroke="#c6c5fe" d="M1796.33,-900.81C1796.33,-900.81 1573.67,-900.81 1573.67,-900.81 1569.83,-900.81 1566,-896.98 1566,-893.14 1566,-893.14 1566,-885.48 1566,-885.48 1566,-881.64 1569.83,-877.81 1573.67,-877.81 1573.67,-877.81 1796.33,-877.81 1796.33,-877.81 1800.17,-877.81 1804,-881.64 1804,-885.48 1804,-885.48 1804,-893.14 1804,-893.14 1804,-896.98 1800.17,-900.81 1796.33,-900.81"/>
<text text-anchor="middle" x="1685" y="-885.61" font-family="Arial" font-size="14.00" fill="#c6c5fe">src/mongoose/schema/transaction.ts</text>
</g>
<!-- src/mongoose/schema/block.ts&#45;&gt;src/mongoose/schema/transaction.ts -->
<g id="edge70" class="edge">
<title>src/mongoose/schema/block.ts&#45;&gt;src/mongoose/schema/transaction.ts</title>
<path fill="none" stroke="#757575" d="M1527.84,-890.52C1537.03,-890.45 1546.42,-890.38 1555.8,-890.31"/>
<polygon fill="#757575" stroke="#757575" points="1556.01,-893.8 1565.98,-890.23 1555.95,-886.8 1556.01,-893.8"/>
</g>
<!-- src/mongoose/schema/transaction.ts&#45;&gt;config/mongoose.json -->
<g id="edge71" class="edge">
<title>src/mongoose/schema/transaction.ts&#45;&gt;config/mongoose.json</title>
<path fill="none" stroke="#757575" d="M1751.5,-900.82C1778.5,-905.57 1809.96,-911.1 1837.94,-916.02"/>
<polygon fill="#757575" stroke="#757575" points="1837.62,-919.52 1848.07,-917.8 1838.83,-912.63 1837.62,-919.52"/>
</g>
</g>
</svg>
