<svg class="svg-icon" style="width: 1em; height: 1em;vertical-align: middle;fill: currentColor;overflow: hidden;" viewBox="0 0 1024 1024" version="1.1" xmlns="http://www.w3.org/2000/svg"><path d="M763.6 208s-180-10-170 170c180 10.4 170-170 170-170zM274 114.8s180-10 170 170c-180 10.4-170-170-170-170zM518.8 8.8s44 39.2 44 91.6c0 56.8-87.6 56.8-87.6 0-0.4-52 43.6-91.6 43.6-91.6z" fill="#FFD552" /><path d="M490.8 878.4c-8.8 0-17.2-2-25.2-5.6L296.8 792l5.6-12 168.8 80.4c14.4 6.8 30.8 5.6 44-2.8 13.2-8.4 21.2-22.8 21.2-38.4 0-17.2-9.2-32.4-24.4-40.4l-196-102H28v-13.2h291.2l1.6 0.8 197.2 102.8c19.6 10 31.6 30.4 31.6 52.4 0 20.4-10.4 38.8-27.6 50-9.6 5.6-20.4 8.8-31.2 8.8z" fill="#4A555F" /><path d="M527.2 1024c-34.8 0-69.2-7.2-102-21.2l-267.2-115.6H28v-13.2h132.4l270 116.8c65.2 28.4 139.2 26.4 203.2-4.4l322.4-156.8c22.8-11.2 32.8-38 22-61.2-10.4-23.2-37.2-34-60.8-24l-276.8 116.8c-104.8 44.4-169.2 20-213.2-6l6.8-11.6c62.4 36.8 122.4 38.4 201.2 5.2L912 732c30.4-12.8 64.8 0.8 78 30.8 13.6 30 0.8 64.4-28.4 78.8l-322.4 156.8c-35.2 16.8-73.6 25.6-112 25.6z" fill="#4A555F" /><path d="M490.4 878.4c-8.8 0-17.2-2-25.2-6l-38.4-18.4-0.4-0.4 4.8-4.8 1.2-1.6 2-4.4 36.8 17.6c6.4 2.8 12.8 4.4 19.6 4.4 11.6 0 23.2-4.8 32-12.8 8.8-8.4 14-20.4 14-32.8 0-17.2-9.2-32.4-24.4-40.4l-4.4-2.4 6-12 4.4 2.4c19.6 10 31.6 30.4 31.6 52.4 0 16-6.4 31.2-18 42.4-11.2 10.8-26.4 16.8-41.6 16.8z" fill="#4A555F" /><path d="M535.2 885.2c-33.2 0-69.2-8-107.2-30.4l-1.6-1.2 5.6-5.6-0.8 0.8 3.6-5.6c62.4 36.4 122.4 38 200.8 5.2l80.4-34 5.2 12.4-80.4 34c-30 12.8-65.6 24.4-105.6 24.4z" fill="#4A555F" /><path d="M490.4 878.4c-8.8 0-17.2-2-25.2-6l-74-35.2 5.6-12 74 35.2c6.4 2.8 12.8 4.4 19.6 4.4 11.6 0 23.2-4.8 32-12.8 8.8-8.4 14-20.4 14-32.8 0-17.2-9.2-32.4-24.4-40.4l-4.4-2.4 6-12 4.4 2.4c19.6 10 31.6 30.4 31.6 52.4 0 16-6.4 31.2-18 42.4-10.8 10.8-26 16.8-41.2 16.8z" fill="#4A555F" /><path d="M535.6 885.6c-32.8 0-68.4-8.4-107.6-30.8l-1.6-1.2 5.6-5.6-0.8 0.8 2-2.8 1.6-2.8h0.4c79.2 45.6 143.2 29.2 200.8 5.2l80.4-34 5.2 12.4-80.4 34c-32.8 13.6-67.6 24.8-105.6 24.8zM532.8 802.4c-4-10-11.6-18.4-21.2-23.6L316 676.8H233.2v-13.2h86.4l1.6 0.8 197.2 102.8c12.4 6.4 22.4 17.2 27.6 30.4l-13.2 4.8z" fill="#4A555F" /><path d="M532.8 802.4c-4-10-11.6-18.4-21.2-23.6l-4.4-2.4 6-12 4.4 2.4c12.4 6.4 22.4 17.2 27.6 30.4l-12.4 5.2z" fill="#4A555F" /><path d="M532.8 802.4c-4-10-11.6-18.4-21.2-23.6l-4.4-2.4 6-12 4.4 2.4c12.4 6.4 22.4 17.2 27.6 30.4l-12.4 5.2z" fill="#4A555F" /><path d="M507.6 776.8l-191.6-100H272v-13.2h47.2l1.6 0.8 192.8 100.4zM507.6 776.8l6-12zM507.6 776.8l6-12z" fill="#4A555F" /><path d="M507.6 776.8l-191.6-100H272v-13.2h47.2l1.6 0.8 192.8 100.4zM507.6 776.8l6-12zM507.6 776.8l6-12z" fill="#4A555F" /><path d="M961.6 775.6c-4.8-10.4-15.2-16.8-26-16.8-3.6 0-7.6 0.8-11.2 2.4L648 877.6c-46.8 20-86 27.2-118.8 27.2-51.2 0-86.8-18.4-112-35.2l-128.4-60.8 21.6-45.2 168.8 80.4c4 2 8 2.8 12 2.8 5.2 0 10-1.6 14.4-4.4 8-5.2 12.8-13.6 12.8-23.2 0-10.4-5.6-19.6-14.8-24.4l-191.6-100H28v162.8h136l273.6 116c28.4 12.4 59.2 18.4 89.6 18.4 33.6 0 67.6-7.6 98.4-22.8l322.4-156.8c14-6.4 20-22.8 13.6-36.8z" fill="#E0E0E0" /><path d="M535.2 885.6c-16 0-31.2-2-46.8-6-2-0.4-3.6-0.8-5.6-1.6-1.2-0.4-2.4-0.8-4-1.2h-1.6l-0.8-0.4c-1.6-0.4-3.6-0.8-5.2-1.6-1.2-0.4-2.4-0.8-3.2-1.2-0.4 0-0.8-0.4-1.2-0.4-2-0.8-4.4-1.6-6.8-2.8-0.8-0.4-2-0.8-2.8-1.2l-2-0.8c-4-1.6-8.4-3.6-12.4-6l-1.6-0.8c-2.4-1.2-4.4-2.4-6.8-3.6-0.8-0.4-2-1.2-2.8-1.6-0.8-0.4-2-1.2-2.8-1.6l-0.4-0.4c-0.4 0-0.4-0.4-0.8-0.4l6.4-11.6 36.8 17.6c0.8 0.4 2 0.8 2.8 1.2 0.8 0.4 1.6 0.4 2 0.8 0.8 0.4 2 0.8 2.8 0.8l2.8 0.8c1.2 0.4 2.4 0.4 3.6 0.4 6.4 0.8 13.2 0 19.6-2l0.8-0.4c1.2-0.4 2.4-0.8 3.6-1.6l0.4-0.4c1.2-0.8 2.4-1.2 3.6-2 14-8.4 22.4-23.2 22.4-39.2 0-2 0-4-0.4-6.4l-1.2-6c-0.8-2.8-2-5.6-3.6-8.4-0.4-0.4-0.4-1.2-0.8-1.6l-0.4-0.4c0-0.4-0.4-0.8-0.8-0.8l-0.4-0.8c-0.4-0.8-1.2-1.6-1.6-2.4 0 0-0.4-0.4-0.4-0.8-0.8-0.8-1.6-2-2.4-2.8l-1.2-1.2-1.6-1.6-1.6-1.6-1.2-1.2h-0.4l-1.6-1.6-1.6-1.2c-0.8-0.4-1.2-0.8-2-1.2l-0.4-0.4-0.8-0.4-0.8-0.8-194-100H166.8l0.8-7.2c5.2-53.6 46.4-96 100-102.8 25.2-3.2 50.4 2 72 14.4 34-51.2 88-85.2 149.2-92.8 8.8-1.2 18-1.6 26.8-1.6 86 0 164.4 53.6 196 133.2 26.8 8.8 50.4 25.6 66.8 48.4 10.4-6 22.4-10 34.4-11.6 4-0.4 7.6-0.8 11.6-0.8 45.6 0 84.8 34.4 90.4 80 0 1.2 0.4 2.8 0.4 4l0.4 4.8-4.4 2-270.8 114.4c-2 0.8-4.4 2-6.4 2.8-1.2 0.4-2.4 0.8-3.2 1.2-0.8 0.4-2 0.8-3.2 1.2-0.8 0.4-1.6 0.8-2.8 1.2h-0.4c-33.2 12.4-61.6 18-89.2 18z m-17.2-14c31.2 3.2 63.2-2 101.6-16.8l0.8-0.4c0.8-0.4 1.6-0.4 2.4-0.8 1.2-0.4 2.4-0.8 3.2-1.2 1.2-0.4 2.4-0.8 3.2-1.2 2-0.8 4.4-1.6 6.4-2.8l266.4-112.4c-5.6-38.4-38.4-66.8-77.2-66.8-3.2 0-6.8 0.4-10 0.8-12.4 1.6-23.6 6-34 13.2l-5.6 4-3.6-5.6c-15.6-23.6-39.2-41.2-66.4-49.2l-3.2-0.8-1.2-3.2C672 551.6 597.6 500 516 500c-8.4 0-16.8 0.4-25.2 1.6-59.6 7.6-111.6 41.2-143.2 92l-3.6 6-5.6-3.6c-20.4-13.2-44.8-19.2-68.8-16-44.8 5.6-80 39.6-87.6 83.6h137.2l198.4 103.6c0.4 0 0.4 0.4 0.8 0.4h0.8l2.4 1.2h0.4l1.2 0.8h0.4l2.4 2c0.4 0.4 0.8 0.8 1.2 0.8l1.6 1.2c0.8 0.8 1.6 1.2 2.4 2l2.4 2.4 1.2 1.2c1.2 1.2 2 2.4 3.2 3.6l0.4 0.8c0.8 0.8 1.2 2 2 2.8l0.4 0.8c0.4 0.8 0.8 1.2 1.2 2l1.2 2.4c2 3.6 3.2 7.2 4.4 11.2 0.8 3.2 1.2 5.6 1.6 8 0.4 2.8 0.4 5.6 0.4 8 0 21.2-10.8 40-29.2 50.8-0.8 1.2-1.6 1.6-2.4 2z" fill="#4A555F" /><path d="M558.4 853.6c5.2-10.4 8-22 8-34.4 0-3.6-0.4-6.8-0.8-10.4-0.4-2.8-0.8-6-2-10-1.6-5.2-3.6-10-5.6-14.4-0.8-1.2-1.2-2.4-1.6-3.2-0.4-0.8-1.2-2-1.6-2.8l-0.8-0.8c-0.8-1.2-1.6-2.4-2.4-3.2l-1.2-1.6-0.4-0.4c-1.2-1.6-2-2.8-3.2-4-0.4-0.4-1.2-1.6-1.2-1.6-1.2-1.2-2-2.4-3.2-3.2-0.8-0.8-2-1.6-3.2-2.8l-2.8-2.4h-0.4l-0.8-0.8-6-5.2h-1.6l-0.8-0.4c-0.4-0.4-1.2-0.4-1.6-0.8l-202-105.2H204.8c11.6-26.8 36.8-46 67.2-49.6 3.6-0.4 7.2-0.8 10.8-0.8 16.4 0 32.8 4.8 46.4 14l20.4 13.2 12.8-20.8c28.8-46.8 76.8-77.2 131.2-84.4 7.6-0.8 15.2-1.6 22.8-1.6 74.4 0 142.4 46.8 168.8 116.8l4 10.8 11.2 3.2c23.6 6.8 43.6 22 57.2 42l13.2 20 20-13.6c8-5.6 17.2-8.8 26.8-10.4 2.4-0.4 5.2-0.4 7.6-0.4 26 0 48.4 16.4 57.2 40l-253.2 106.8-6 2.4c-0.8 0.4-1.6 0.8-2.4 0.8l-0.8 0.4-0.8 0.4c-0.8 0.4-1.6 0.4-2 0.8l-0.8 0.4c-0.4 0.4-1.2 0.4-1.6 0.4l-0.8 0.4c-20.4 9.2-38.4 14.4-55.6 16.4z" fill="#F68F6F" /><path d="M512 76h13.2v419.2H512z" fill="#4A555F" /><path d="M715.408 246.64l9.336 9.332-201.384 201.384-9.332-9.336z" fill="#4A555F" /><path d="M322.132 153.124l201.384 201.384-9.336 9.332L312.8 162.46z" fill="#4A555F" /><path d="M608 385.2c-4.8 0-9.6 0-14.8-0.4l-6-0.4-0.4-6c-3.2-53.2 10-96 38.8-126.4 44.4-47.2 112.8-50.8 132.8-50.8h5.2l6 0.4 0.4 6c0 3.2 4 80.8-45.2 132.8-27.6 30-67.2 44.8-116.8 44.8z m-8-13.6h8c45.6 0 82-13.6 107.2-40.4 37.6-39.6 41.6-97.6 41.6-116.8-20.4 0.4-81.6 4.4-121.6 46.4-24.8 27.2-36.4 64-35.2 110.8z" fill="#4A555F" /><path d="M429.6 292C380 292 340.4 276.8 312.4 247.2c-49.2-52-45.6-129.6-45.2-132.8l0.4-6 6-0.4h5.2c20 0 88.4 3.6 132.8 50.8 28.8 30.4 42 73.2 38.8 126.4l-0.4 6-6 0.4c-4.8 0.4-9.6 0.4-14.4 0.4zM280.4 121.6c0.4 18.8 4.4 77.2 41.6 116.8 25.2 26.8 61.6 40.4 107.2 40.4h8c1.6-46.8-10.4-84-35.6-110.4-39.2-42.4-100.8-46.8-121.2-46.8z" fill="#4A555F" /><path d="M518.8 150c-25.2 0-50.4-16.8-50.4-49.2 0-54.8 44-94.8 46-96.4l4.4-4 4.4 4c2 1.6 46 42 46 96.4 0 32-25.6 49.2-50.4 49.2z m0-131.6c-10.8 11.2-37.2 43.2-37.2 82 0 24.8 19.2 36 37.2 36 18 0 37.2-11.2 37.2-36 0-38.8-26.8-70.8-37.2-82z" fill="#4A555F" /></svg>