<?xml version="1.0" encoding="UTF-8" standalone="no"?>
<!DOCTYPE svg PUBLIC "-//W3C//DTD SVG 1.1//EN"
 "http://www.w3.org/Graphics/SVG/1.1/DTD/svg11.dtd">
<!-- Generated by graphviz version 2.48.0 (0)
 -->
<!-- Title: G Pages: 1 -->
<svg width="2116pt" height="2138pt"
 viewBox="0.00 0.00 2116.20 2138.16" xmlns="http://www.w3.org/2000/svg" xmlns:xlink="http://www.w3.org/1999/xlink">
<g id="graph0" class="graph" transform="scale(1 1) rotate(0) translate(21.6 2116.56)">
<title>G</title>
<polygon fill="#111111" stroke="transparent" points="-21.6,21.6 -21.6,-2116.56 2094.6,-2116.56 2094.6,21.6 -21.6,21.6"/>
<!-- config/core.json -->
<g id="node1" class="node">
<title>config/core.json</title>
<path fill="none" stroke="#cfffac" d="M1816.83,-1612.38C1816.83,-1612.38 1721.17,-1612.38 1721.17,-1612.38 1717.33,-1612.38 1713.5,-1608.55 1713.5,-1604.72 1713.5,-1604.72 1713.5,-1597.05 1713.5,-1597.05 1713.5,-1593.22 1717.33,-1589.38 1721.17,-1589.38 1721.17,-1589.38 1816.83,-1589.38 1816.83,-1589.38 1820.67,-1589.38 1824.5,-1593.22 1824.5,-1597.05 1824.5,-1597.05 1824.5,-1604.72 1824.5,-1604.72 1824.5,-1608.55 1820.67,-1612.38 1816.83,-1612.38"/>
<text text-anchor="middle" x="1769" y="-1597.18" font-family="Arial" font-size="14.00" fill="#cfffac">config/core.json</text>
</g>
<!-- config/default_env.json -->
<g id="node2" class="node">
<title>config/default_env.json</title>
<path fill="none" stroke="#cfffac" d="M1115.33,-861.38C1115.33,-861.38 976.67,-861.38 976.67,-861.38 972.83,-861.38 969,-857.55 969,-853.72 969,-853.72 969,-846.05 969,-846.05 969,-842.22 972.83,-838.38 976.67,-838.38 976.67,-838.38 1115.33,-838.38 1115.33,-838.38 1119.17,-838.38 1123,-842.22 1123,-846.05 1123,-846.05 1123,-853.72 1123,-853.72 1123,-857.55 1119.17,-861.38 1115.33,-861.38"/>
<text text-anchor="middle" x="1046" y="-846.18" font-family="Arial" font-size="14.00" fill="#cfffac">config/default_env.json</text>
</g>
<!-- config/mongoose.json -->
<g id="node3" class="node">
<title>config/mongoose.json</title>
<path fill="none" stroke="#cfffac" d="M2065.33,-1891.38C2065.33,-1891.38 1931.67,-1891.38 1931.67,-1891.38 1927.83,-1891.38 1924,-1887.55 1924,-1883.72 1924,-1883.72 1924,-1876.05 1924,-1876.05 1924,-1872.22 1927.83,-1868.38 1931.67,-1868.38 1931.67,-1868.38 2065.33,-1868.38 2065.33,-1868.38 2069.17,-1868.38 2073,-1872.22 2073,-1876.05 2073,-1876.05 2073,-1883.72 2073,-1883.72 2073,-1887.55 2069.17,-1891.38 2065.33,-1891.38"/>
<text text-anchor="middle" x="1998.5" y="-1876.18" font-family="Arial" font-size="14.00" fill="#cfffac">config/mongoose.json</text>
</g>
<!-- config/settings.json -->
<g id="node4" class="node">
<title>config/settings.json</title>
<path fill="none" stroke="#cfffac" d="M1567.83,-1102.38C1567.83,-1102.38 1452.17,-1102.38 1452.17,-1102.38 1448.33,-1102.38 1444.5,-1098.55 1444.5,-1094.72 1444.5,-1094.72 1444.5,-1087.05 1444.5,-1087.05 1444.5,-1083.22 1448.33,-1079.38 1452.17,-1079.38 1452.17,-1079.38 1567.83,-1079.38 1567.83,-1079.38 1571.67,-1079.38 1575.5,-1083.22 1575.5,-1087.05 1575.5,-1087.05 1575.5,-1094.72 1575.5,-1094.72 1575.5,-1098.55 1571.67,-1102.38 1567.83,-1102.38"/>
<text text-anchor="middle" x="1510" y="-1087.18" font-family="Arial" font-size="14.00" fill="#cfffac">config/settings.json</text>
</g>
<!-- index.ts -->
<g id="node5" class="node">
<title>index.ts</title>
<path fill="none" stroke="#c6c5fe" d="M55.33,-969.38C55.33,-969.38 7.67,-969.38 7.67,-969.38 3.83,-969.38 0,-965.55 0,-961.72 0,-961.72 0,-954.05 0,-954.05 0,-950.22 3.83,-946.38 7.67,-946.38 7.67,-946.38 55.33,-946.38 55.33,-946.38 59.17,-946.38 63,-950.22 63,-954.05 63,-954.05 63,-961.72 63,-961.72 63,-965.55 59.17,-969.38 55.33,-969.38"/>
<text text-anchor="middle" x="31.5" y="-954.18" font-family="Arial" font-size="14.00" fill="#c6c5fe">index.ts</text>
</g>
<!-- index.ts&#45;&gt;config/core.json -->
<g id="edge1" class="edge">
<title>index.ts&#45;&gt;config/core.json</title>
<path fill="none" stroke="#757575" d="M32.66,-969.59C34.13,-1073.52 46.71,-1836.61 99,-1921.88 166.96,-2032.72 228.49,-2056.88 358.5,-2056.88 358.5,-2056.88 358.5,-2056.88 1047,-2056.88 1090.12,-2056.88 1100.22,-2046.89 1141,-2032.88 1246.04,-1996.81 1283.59,-2002.65 1370,-1932.88 1391.31,-1915.68 1384.74,-1900.14 1406,-1882.88 1484.5,-1819.2 1533.72,-1852.3 1614,-1790.88 1678.66,-1741.41 1732.86,-1659.46 1755.99,-1621.43"/>
<polygon fill="#757575" stroke="#757575" points="1759.05,-1623.14 1761.19,-1612.76 1753.04,-1619.54 1759.05,-1623.14"/>
</g>
<!-- index.ts&#45;&gt;config/default_env.json -->
<g id="edge2" class="edge">
<title>index.ts&#45;&gt;config/default_env.json</title>
<path fill="none" stroke="#757575" d="M63.08,-954.62C198.24,-940.21 744.8,-881.91 958.64,-859.1"/>
<polygon fill="#757575" stroke="#757575" points="959.3,-862.55 968.87,-858 958.56,-855.59 959.3,-862.55"/>
</g>
<!-- index.ts&#45;&gt;config/mongoose.json -->
<g id="edge3" class="edge">
<title>index.ts&#45;&gt;config/mongoose.json</title>
<path fill="none" stroke="#757575" d="M32.51,-969.51C32.66,-1077.8 35.87,-1908.24 99,-1995.88 171.15,-2096.05 235.06,-2094.88 358.5,-2094.88 358.5,-2094.88 358.5,-2094.88 1511,-2094.88 1684.81,-2094.88 1738.09,-2078.86 1888,-1990.88 1928.52,-1967.11 1964.42,-1924.56 1983.35,-1899.62"/>
<polygon fill="#757575" stroke="#757575" points="1986.16,-1901.7 1989.31,-1891.59 1980.54,-1897.52 1986.16,-1901.7"/>
</g>
<!-- index.ts&#45;&gt;config/settings.json -->
<g id="edge4" class="edge">
<title>index.ts&#45;&gt;config/settings.json</title>
<path fill="none" stroke="#757575" d="M32.8,-946.14C35.07,-862.07 50.74,-353.74 99,-307.88 182.94,-228.13 1026.05,-282.03 1141,-295.88 1245.02,-308.42 1297.94,-275.83 1370,-351.88 1472.01,-459.54 1502.44,-958.23 1507.99,-1069.03"/>
<polygon fill="#757575" stroke="#757575" points="1504.51,-1069.48 1508.49,-1079.3 1511.5,-1069.15 1504.51,-1069.48"/>
</g>
<!-- src/Address.ts -->
<g id="node6" class="node">
<title>src/Address.ts</title>
<path fill="none" stroke="#cfffac" d="M402.83,-218.38C402.83,-218.38 316.17,-218.38 316.17,-218.38 312.33,-218.38 308.5,-214.55 308.5,-210.72 308.5,-210.72 308.5,-203.05 308.5,-203.05 308.5,-199.22 312.33,-195.38 316.17,-195.38 316.17,-195.38 402.83,-195.38 402.83,-195.38 406.67,-195.38 410.5,-199.22 410.5,-203.05 410.5,-203.05 410.5,-210.72 410.5,-210.72 410.5,-214.55 406.67,-218.38 402.83,-218.38"/>
<text text-anchor="middle" x="359.5" y="-203.18" font-family="Arial" font-size="14.00" fill="#cfffac">src/Address.ts</text>
</g>
<!-- index.ts&#45;&gt;src/Address.ts -->
<g id="edge5" class="edge">
<title>index.ts&#45;&gt;src/Address.ts</title>
<path fill="none" stroke="#757575" d="M32.69,-946.27C34.28,-857.3 46.49,-285.84 99,-232.88 150.46,-180.99 240.19,-184.2 299.48,-193.66"/>
<polygon fill="#757575" stroke="#757575" points="299,-197.13 309.45,-195.35 300.17,-190.22 299,-197.13"/>
</g>
<!-- src/Block.ts -->
<g id="node7" class="node">
<title>src/Block.ts</title>
<path fill="none" stroke="#c6c5fe" d="M1081.33,-1417.38C1081.33,-1417.38 1010.67,-1417.38 1010.67,-1417.38 1006.83,-1417.38 1003,-1413.55 1003,-1409.72 1003,-1409.72 1003,-1402.05 1003,-1402.05 1003,-1398.22 1006.83,-1394.38 1010.67,-1394.38 1010.67,-1394.38 1081.33,-1394.38 1081.33,-1394.38 1085.17,-1394.38 1089,-1398.22 1089,-1402.05 1089,-1402.05 1089,-1409.72 1089,-1409.72 1089,-1413.55 1085.17,-1417.38 1081.33,-1417.38"/>
<text text-anchor="middle" x="1046" y="-1402.18" font-family="Arial" font-size="14.00" fill="#c6c5fe">src/Block.ts</text>
</g>
<!-- index.ts&#45;&gt;src/Block.ts -->
<g id="edge6" class="edge">
<title>index.ts&#45;&gt;src/Block.ts</title>
<path fill="none" stroke="#757575" d="M32.24,-969.41C30.78,-1043.25 26.16,-1449.74 99,-1543.88 150.57,-1610.54 193.14,-1596.52 276,-1611.88 348.98,-1625.42 370.35,-1627.07 443,-1611.88 567.87,-1585.78 584.77,-1536.62 706,-1496.88 796.47,-1467.23 828.55,-1489.78 915,-1449.88 933.16,-1441.5 932.67,-1430.88 951,-1422.88 963.97,-1417.23 978.73,-1413.46 992.65,-1410.94"/>
<polygon fill="#757575" stroke="#757575" points="993.29,-1414.38 1002.6,-1409.32 992.17,-1407.47 993.29,-1414.38"/>
</g>
<!-- src/Blockchain.ts -->
<g id="node8" class="node">
<title>src/Blockchain.ts</title>
<path fill="none" stroke="#c6c5fe" d="M625.83,-1680.38C625.83,-1680.38 523.17,-1680.38 523.17,-1680.38 519.33,-1680.38 515.5,-1676.55 515.5,-1672.72 515.5,-1672.72 515.5,-1665.05 515.5,-1665.05 515.5,-1661.22 519.33,-1657.38 523.17,-1657.38 523.17,-1657.38 625.83,-1657.38 625.83,-1657.38 629.67,-1657.38 633.5,-1661.22 633.5,-1665.05 633.5,-1665.05 633.5,-1672.72 633.5,-1672.72 633.5,-1676.55 629.67,-1680.38 625.83,-1680.38"/>
<text text-anchor="middle" x="574.5" y="-1665.18" font-family="Arial" font-size="14.00" fill="#c6c5fe">src/Blockchain.ts</text>
</g>
<!-- index.ts&#45;&gt;src/Blockchain.ts -->
<g id="edge7" class="edge">
<title>index.ts&#45;&gt;src/Blockchain.ts</title>
<path fill="none" stroke="#757575" d="M32.73,-969.46C34.55,-1055.7 47.98,-1596.16 99,-1644.88 216.84,-1757.43 435.37,-1710.57 529.02,-1683.3"/>
<polygon fill="#757575" stroke="#757575" points="530.16,-1686.61 538.75,-1680.41 528.16,-1679.9 530.16,-1686.61"/>
</g>
<!-- src/HTTPApi.ts -->
<g id="node9" class="node">
<title>src/HTTPApi.ts</title>
<path fill="none" stroke="#c6c5fe" d="M620.33,-716.38C620.33,-716.38 528.67,-716.38 528.67,-716.38 524.83,-716.38 521,-712.55 521,-708.72 521,-708.72 521,-701.05 521,-701.05 521,-697.22 524.83,-693.38 528.67,-693.38 528.67,-693.38 620.33,-693.38 620.33,-693.38 624.17,-693.38 628,-697.22 628,-701.05 628,-701.05 628,-708.72 628,-708.72 628,-712.55 624.17,-716.38 620.33,-716.38"/>
<text text-anchor="middle" x="574.5" y="-701.18" font-family="Arial" font-size="14.00" fill="#c6c5fe">src/HTTPApi.ts</text>
</g>
<!-- index.ts&#45;&gt;src/HTTPApi.ts -->
<g id="edge8" class="edge">
<title>index.ts&#45;&gt;src/HTTPApi.ts</title>
<path fill="none" stroke="#757575" d="M32.96,-945.98C34.92,-912.51 45.19,-816.78 99,-766.88 211.94,-662.17 410.13,-676.6 510.88,-692.53"/>
<polygon fill="#757575" stroke="#757575" points="510.48,-696.01 520.91,-694.17 511.61,-689.1 510.48,-696.01"/>
</g>
<!-- src/Miner.ts -->
<g id="node10" class="node">
<title>src/Miner.ts</title>
<path fill="none" stroke="#c6c5fe" d="M394.83,-794.38C394.83,-794.38 324.17,-794.38 324.17,-794.38 320.33,-794.38 316.5,-790.55 316.5,-786.72 316.5,-786.72 316.5,-779.05 316.5,-779.05 316.5,-775.22 320.33,-771.38 324.17,-771.38 324.17,-771.38 394.83,-771.38 394.83,-771.38 398.67,-771.38 402.5,-775.22 402.5,-779.05 402.5,-779.05 402.5,-786.72 402.5,-786.72 402.5,-790.55 398.67,-794.38 394.83,-794.38"/>
<text text-anchor="middle" x="359.5" y="-779.18" font-family="Arial" font-size="14.00" fill="#c6c5fe">src/Miner.ts</text>
</g>
<!-- index.ts&#45;&gt;src/Miner.ts -->
<g id="edge9" class="edge">
<title>index.ts&#45;&gt;src/Miner.ts</title>
<path fill="none" stroke="#757575" d="M33.85,-946.21C37.85,-917.55 52.43,-843.56 99,-809.88 159.47,-766.16 249.58,-767.53 306.14,-774.06"/>
<polygon fill="#757575" stroke="#757575" points="305.94,-777.56 316.29,-775.33 306.81,-770.62 305.94,-777.56"/>
</g>
<!-- src/MinerThread.ts -->
<g id="node11" class="node">
<title>src/MinerThread.ts</title>
<path fill="none" stroke="#c6c5fe" d="M416.83,-1602.38C416.83,-1602.38 302.17,-1602.38 302.17,-1602.38 298.33,-1602.38 294.5,-1598.55 294.5,-1594.72 294.5,-1594.72 294.5,-1587.05 294.5,-1587.05 294.5,-1583.22 298.33,-1579.38 302.17,-1579.38 302.17,-1579.38 416.83,-1579.38 416.83,-1579.38 420.67,-1579.38 424.5,-1583.22 424.5,-1587.05 424.5,-1587.05 424.5,-1594.72 424.5,-1594.72 424.5,-1598.55 420.67,-1602.38 416.83,-1602.38"/>
<text text-anchor="middle" x="359.5" y="-1587.18" font-family="Arial" font-size="14.00" fill="#c6c5fe">src/MinerThread.ts</text>
</g>
<!-- index.ts&#45;&gt;src/MinerThread.ts -->
<g id="edge10" class="edge">
<title>index.ts&#45;&gt;src/MinerThread.ts</title>
<path fill="none" stroke="#757575" d="M32.42,-969.64C32.18,-1039.84 34.08,-1403.44 99,-1488.88 142.88,-1546.64 224.29,-1571.73 284.26,-1582.61"/>
<polygon fill="#757575" stroke="#757575" points="284,-1586.11 294.45,-1584.35 285.18,-1579.21 284,-1586.11"/>
</g>
<!-- src/Node.ts -->
<g id="node12" class="node">
<title>src/Node.ts</title>
<path fill="none" stroke="#c6c5fe" d="M204.33,-1218.38C204.33,-1218.38 134.67,-1218.38 134.67,-1218.38 130.83,-1218.38 127,-1214.55 127,-1210.72 127,-1210.72 127,-1203.05 127,-1203.05 127,-1199.22 130.83,-1195.38 134.67,-1195.38 134.67,-1195.38 204.33,-1195.38 204.33,-1195.38 208.17,-1195.38 212,-1199.22 212,-1203.05 212,-1203.05 212,-1210.72 212,-1210.72 212,-1214.55 208.17,-1218.38 204.33,-1218.38"/>
<text text-anchor="middle" x="169.5" y="-1203.18" font-family="Arial" font-size="14.00" fill="#c6c5fe">src/Node.ts</text>
</g>
<!-- index.ts&#45;&gt;src/Node.ts -->
<g id="edge11" class="edge">
<title>index.ts&#45;&gt;src/Node.ts</title>
<path fill="none" stroke="#757575" d="M36.98,-969.75C46.83,-995.32 71.65,-1057.28 99,-1105.88 115.64,-1135.46 138.5,-1167.36 153.39,-1187.23"/>
<polygon fill="#757575" stroke="#757575" points="150.6,-1189.35 159.43,-1195.21 156.19,-1185.12 150.6,-1189.35"/>
</g>
<!-- src/NodeThread.ts -->
<g id="node13" class="node">
<title>src/NodeThread.ts</title>
<path fill="none" stroke="#c6c5fe" d="M866.83,-1340.38C866.83,-1340.38 754.17,-1340.38 754.17,-1340.38 750.33,-1340.38 746.5,-1336.55 746.5,-1332.72 746.5,-1332.72 746.5,-1325.05 746.5,-1325.05 746.5,-1321.22 750.33,-1317.38 754.17,-1317.38 754.17,-1317.38 866.83,-1317.38 866.83,-1317.38 870.67,-1317.38 874.5,-1321.22 874.5,-1325.05 874.5,-1325.05 874.5,-1332.72 874.5,-1332.72 874.5,-1336.55 870.67,-1340.38 866.83,-1340.38"/>
<text text-anchor="middle" x="810.5" y="-1325.18" font-family="Arial" font-size="14.00" fill="#c6c5fe">src/NodeThread.ts</text>
</g>
<!-- index.ts&#45;&gt;src/NodeThread.ts -->
<g id="edge12" class="edge">
<title>index.ts&#45;&gt;src/NodeThread.ts</title>
<path fill="none" stroke="#757575" d="M32.58,-969.4C33.27,-1030.97 39.68,-1320.83 99,-1381.88 286.62,-1574.97 668.8,-1401.41 779.08,-1345.09"/>
<polygon fill="#757575" stroke="#757575" points="780.74,-1348.17 788.02,-1340.48 777.53,-1341.95 780.74,-1348.17"/>
</g>
<!-- src/PaymentProcessor.ts -->
<g id="node14" class="node">
<title>src/PaymentProcessor.ts</title>
<path fill="none" stroke="#c6c5fe" d="M435.33,-638.38C435.33,-638.38 283.67,-638.38 283.67,-638.38 279.83,-638.38 276,-634.55 276,-630.72 276,-630.72 276,-623.05 276,-623.05 276,-619.22 279.83,-615.38 283.67,-615.38 283.67,-615.38 435.33,-615.38 435.33,-615.38 439.17,-615.38 443,-619.22 443,-623.05 443,-623.05 443,-630.72 443,-630.72 443,-634.55 439.17,-638.38 435.33,-638.38"/>
<text text-anchor="middle" x="359.5" y="-623.18" font-family="Arial" font-size="14.00" fill="#c6c5fe">src/PaymentProcessor.ts</text>
</g>
<!-- index.ts&#45;&gt;src/PaymentProcessor.ts -->
<g id="edge13" class="edge">
<title>index.ts&#45;&gt;src/PaymentProcessor.ts</title>
<path fill="none" stroke="#757575" d="M33.79,-946.37C39.22,-900.06 61.63,-728.17 99,-690.88 142.45,-647.54 210.27,-631.9 265.69,-626.9"/>
<polygon fill="#757575" stroke="#757575" points="266.19,-630.38 275.88,-626.09 265.63,-623.4 266.19,-630.38"/>
</g>
<!-- src/Peer.ts -->
<g id="node15" class="node">
<title>src/Peer.ts</title>
<path fill="none" stroke="#c6c5fe" d="M606.83,-1374.38C606.83,-1374.38 542.17,-1374.38 542.17,-1374.38 538.33,-1374.38 534.5,-1370.55 534.5,-1366.72 534.5,-1366.72 534.5,-1359.05 534.5,-1359.05 534.5,-1355.22 538.33,-1351.38 542.17,-1351.38 542.17,-1351.38 606.83,-1351.38 606.83,-1351.38 610.67,-1351.38 614.5,-1355.22 614.5,-1359.05 614.5,-1359.05 614.5,-1366.72 614.5,-1366.72 614.5,-1370.55 610.67,-1374.38 606.83,-1374.38"/>
<text text-anchor="middle" x="574.5" y="-1359.18" font-family="Arial" font-size="14.00" fill="#c6c5fe">src/Peer.ts</text>
</g>
<!-- index.ts&#45;&gt;src/Peer.ts -->
<g id="edge14" class="edge">
<title>index.ts&#45;&gt;src/Peer.ts</title>
<path fill="none" stroke="#757575" d="M32.68,-969.44C33.87,-1027.48 42.29,-1286.55 99,-1336.88 219.7,-1444.02 433.01,-1402.6 526.91,-1377.11"/>
<polygon fill="#757575" stroke="#757575" points="527.99,-1380.44 536.69,-1374.39 526.12,-1373.69 527.99,-1380.44"/>
</g>
<!-- src/TCPApi.ts -->
<g id="node16" class="node">
<title>src/TCPApi.ts</title>
<path fill="none" stroke="#c6c5fe" d="M615.83,-834.38C615.83,-834.38 533.17,-834.38 533.17,-834.38 529.33,-834.38 525.5,-830.55 525.5,-826.72 525.5,-826.72 525.5,-819.05 525.5,-819.05 525.5,-815.22 529.33,-811.38 533.17,-811.38 533.17,-811.38 615.83,-811.38 615.83,-811.38 619.67,-811.38 623.5,-815.22 623.5,-819.05 623.5,-819.05 623.5,-826.72 623.5,-826.72 623.5,-830.55 619.67,-834.38 615.83,-834.38"/>
<text text-anchor="middle" x="574.5" y="-819.18" font-family="Arial" font-size="14.00" fill="#c6c5fe">src/TCPApi.ts</text>
</g>
<!-- index.ts&#45;&gt;src/TCPApi.ts -->
<g id="edge15" class="edge">
<title>index.ts&#45;&gt;src/TCPApi.ts</title>
<path fill="none" stroke="#757575" d="M35.71,-946.05C42.73,-922.7 61.9,-871.07 99,-848.88 167.67,-807.83 404.63,-814.06 515.48,-819.49"/>
<polygon fill="#757575" stroke="#757575" points="515.32,-822.99 525.48,-819.99 515.67,-816 515.32,-822.99"/>
</g>
<!-- src/TCPNode.ts -->
<g id="node17" class="node">
<title>src/TCPNode.ts</title>
<path fill="none" stroke="#c6c5fe" d="M407.83,-1121.38C407.83,-1121.38 311.17,-1121.38 311.17,-1121.38 307.33,-1121.38 303.5,-1117.55 303.5,-1113.72 303.5,-1113.72 303.5,-1106.05 303.5,-1106.05 303.5,-1102.22 307.33,-1098.38 311.17,-1098.38 311.17,-1098.38 407.83,-1098.38 407.83,-1098.38 411.67,-1098.38 415.5,-1102.22 415.5,-1106.05 415.5,-1106.05 415.5,-1113.72 415.5,-1113.72 415.5,-1117.55 411.67,-1121.38 407.83,-1121.38"/>
<text text-anchor="middle" x="359.5" y="-1106.18" font-family="Arial" font-size="14.00" fill="#c6c5fe">src/TCPNode.ts</text>
</g>
<!-- index.ts&#45;&gt;src/TCPNode.ts -->
<g id="edge16" class="edge">
<title>index.ts&#45;&gt;src/TCPNode.ts</title>
<path fill="none" stroke="#757575" d="M36.04,-969.73C43.54,-992.64 63.35,-1042.83 99,-1066.88 156.46,-1105.66 237.02,-1113.57 293.08,-1113.58"/>
<polygon fill="#757575" stroke="#757575" points="293.28,-1117.08 303.25,-1113.5 293.23,-1110.08 293.28,-1117.08"/>
</g>
<!-- src/Transaction.ts -->
<g id="node18" class="node">
<title>src/Transaction.ts</title>
<path fill="none" stroke="#c6c5fe" d="M1327.33,-1220.38C1327.33,-1220.38 1219.67,-1220.38 1219.67,-1220.38 1215.83,-1220.38 1212,-1216.55 1212,-1212.72 1212,-1212.72 1212,-1205.05 1212,-1205.05 1212,-1201.22 1215.83,-1197.38 1219.67,-1197.38 1219.67,-1197.38 1327.33,-1197.38 1327.33,-1197.38 1331.17,-1197.38 1335,-1201.22 1335,-1205.05 1335,-1205.05 1335,-1212.72 1335,-1212.72 1335,-1216.55 1331.17,-1220.38 1327.33,-1220.38"/>
<text text-anchor="middle" x="1273.5" y="-1205.18" font-family="Arial" font-size="14.00" fill="#c6c5fe">src/Transaction.ts</text>
</g>
<!-- index.ts&#45;&gt;src/Transaction.ts -->
<g id="edge17" class="edge">
<title>index.ts&#45;&gt;src/Transaction.ts</title>
<path fill="none" stroke="#757575" d="M55.55,-969.53C107.94,-994.9 240.6,-1052.88 358.5,-1052.88 358.5,-1052.88 358.5,-1052.88 575.5,-1052.88 831.67,-1052.88 1128.29,-1154.47 1233.25,-1193.69"/>
<polygon fill="#757575" stroke="#757575" points="1232.21,-1197.04 1242.8,-1197.29 1234.68,-1190.49 1232.21,-1197.04"/>
</g>
<!-- src/Wallet.ts -->
<g id="node19" class="node">
<title>src/Wallet.ts</title>
<path fill="none" stroke="#c6c5fe" d="M206.83,-159.38C206.83,-159.38 132.17,-159.38 132.17,-159.38 128.33,-159.38 124.5,-155.55 124.5,-151.72 124.5,-151.72 124.5,-144.05 124.5,-144.05 124.5,-140.22 128.33,-136.38 132.17,-136.38 132.17,-136.38 206.83,-136.38 206.83,-136.38 210.67,-136.38 214.5,-140.22 214.5,-144.05 214.5,-144.05 214.5,-151.72 214.5,-151.72 214.5,-155.55 210.67,-159.38 206.83,-159.38"/>
<text text-anchor="middle" x="169.5" y="-144.18" font-family="Arial" font-size="14.00" fill="#c6c5fe">src/Wallet.ts</text>
</g>
<!-- index.ts&#45;&gt;src/Wallet.ts -->
<g id="edge18" class="edge">
<title>index.ts&#45;&gt;src/Wallet.ts</title>
<path fill="none" stroke="#757575" d="M32.91,-946.15C36.16,-854.98 58.81,-261.47 99,-193.88 106.44,-181.37 118.76,-171.59 130.98,-164.33"/>
<polygon fill="#757575" stroke="#757575" points="132.72,-167.37 139.79,-159.48 129.34,-161.24 132.72,-167.37"/>
</g>
<!-- src/addressFromPublicKey.ts -->
<g id="node20" class="node">
<title>src/addressFromPublicKey.ts</title>
<path fill="none" stroke="#cfffac" d="M1598.33,-159.38C1598.33,-159.38 1421.67,-159.38 1421.67,-159.38 1417.83,-159.38 1414,-155.55 1414,-151.72 1414,-151.72 1414,-144.05 1414,-144.05 1414,-140.22 1417.83,-136.38 1421.67,-136.38 1421.67,-136.38 1598.33,-136.38 1598.33,-136.38 1602.17,-136.38 1606,-140.22 1606,-144.05 1606,-144.05 1606,-151.72 1606,-151.72 1606,-155.55 1602.17,-159.38 1598.33,-159.38"/>
<text text-anchor="middle" x="1510" y="-144.18" font-family="Arial" font-size="14.00" fill="#cfffac">src/addressFromPublicKey.ts</text>
</g>
<!-- index.ts&#45;&gt;src/addressFromPublicKey.ts -->
<g id="edge19" class="edge">
<title>index.ts&#45;&gt;src/addressFromPublicKey.ts</title>
<path fill="none" stroke="#757575" d="M32.5,-946.13C32.64,-844.95 35.86,-123.03 99,-53.88 177.83,32.45 241.59,-10.88 358.5,-10.88 358.5,-10.88 358.5,-10.88 1047,-10.88 1215.14,-10.88 1404.02,-95.32 1477.45,-131.62"/>
<polygon fill="#757575" stroke="#757575" points="1476.12,-134.87 1486.63,-136.2 1479.25,-128.6 1476.12,-134.87"/>
</g>
<!-- src/base58.ts -->
<g id="node21" class="node">
<title>src/base58.ts</title>
<path fill="none" stroke="#cfffac" d="M851.33,-374.38C851.33,-374.38 769.67,-374.38 769.67,-374.38 765.83,-374.38 762,-370.55 762,-366.72 762,-366.72 762,-359.05 762,-359.05 762,-355.22 765.83,-351.38 769.67,-351.38 769.67,-351.38 851.33,-351.38 851.33,-351.38 855.17,-351.38 859,-355.22 859,-359.05 859,-359.05 859,-366.72 859,-366.72 859,-370.55 855.17,-374.38 851.33,-374.38"/>
<text text-anchor="middle" x="810.5" y="-359.18" font-family="Arial" font-size="14.00" fill="#cfffac">src/base58.ts</text>
</g>
<!-- index.ts&#45;&gt;src/base58.ts -->
<g id="edge20" class="edge">
<title>index.ts&#45;&gt;src/base58.ts</title>
<path fill="none" stroke="#757575" d="M33.56,-946.19C38.48,-893.79 60.58,-680.88 99,-627.88 212.91,-470.79 295.58,-476.23 479,-412.88 528.25,-395.88 671.02,-378.13 751.88,-369.05"/>
<polygon fill="#757575" stroke="#757575" points="752.35,-372.51 761.91,-367.93 751.58,-365.56 752.35,-372.51"/>
</g>
<!-- src/beautifyBigInt.ts -->
<g id="node22" class="node">
<title>src/beautifyBigInt.ts</title>
<path fill="none" stroke="#c6c5fe" d="M1569.33,-1612.38C1569.33,-1612.38 1450.67,-1612.38 1450.67,-1612.38 1446.83,-1612.38 1443,-1608.55 1443,-1604.72 1443,-1604.72 1443,-1597.05 1443,-1597.05 1443,-1593.22 1446.83,-1589.38 1450.67,-1589.38 1450.67,-1589.38 1569.33,-1589.38 1569.33,-1589.38 1573.17,-1589.38 1577,-1593.22 1577,-1597.05 1577,-1597.05 1577,-1604.72 1577,-1604.72 1577,-1608.55 1573.17,-1612.38 1569.33,-1612.38"/>
<text text-anchor="middle" x="1510" y="-1597.18" font-family="Arial" font-size="14.00" fill="#c6c5fe">src/beautifyBigInt.ts</text>
</g>
<!-- index.ts&#45;&gt;src/beautifyBigInt.ts -->
<g id="edge21" class="edge">
<title>index.ts&#45;&gt;src/beautifyBigInt.ts</title>
<path fill="none" stroke="#757575" d="M32.82,-969.57C35.54,-1067.18 55.96,-1745.38 99,-1823.88 168.36,-1950.39 214.23,-2018.88 358.5,-2018.88 358.5,-2018.88 358.5,-2018.88 1047,-2018.88 1210.91,-2018.88 1252.87,-1955.55 1370,-1840.88 1438.01,-1774.31 1483.86,-1667.47 1501.23,-1622.23"/>
<polygon fill="#757575" stroke="#757575" points="1504.61,-1623.18 1504.85,-1612.59 1498.06,-1620.71 1504.61,-1623.18"/>
</g>
<!-- src/isValidAddress.ts -->
<g id="node23" class="node">
<title>src/isValidAddress.ts</title>
<path fill="none" stroke="#c6c5fe" d="M232.33,-374.38C232.33,-374.38 106.67,-374.38 106.67,-374.38 102.83,-374.38 99,-370.55 99,-366.72 99,-366.72 99,-359.05 99,-359.05 99,-355.22 102.83,-351.38 106.67,-351.38 106.67,-351.38 232.33,-351.38 232.33,-351.38 236.17,-351.38 240,-355.22 240,-359.05 240,-359.05 240,-366.72 240,-366.72 240,-370.55 236.17,-374.38 232.33,-374.38"/>
<text text-anchor="middle" x="169.5" y="-359.18" font-family="Arial" font-size="14.00" fill="#c6c5fe">src/isValidAddress.ts</text>
</g>
<!-- index.ts&#45;&gt;src/isValidAddress.ts -->
<g id="edge22" class="edge">
<title>index.ts&#45;&gt;src/isValidAddress.ts</title>
<path fill="none" stroke="#757575" d="M32.27,-946.21C31.04,-873.23 27.85,-479.7 99,-388.88 101.73,-385.4 104.97,-382.39 108.54,-379.78"/>
<polygon fill="#757575" stroke="#757575" points="110.67,-382.58 117.39,-374.39 107.03,-376.6 110.67,-382.58"/>
</g>
<!-- src/keygen.ts -->
<g id="node24" class="node">
<title>src/keygen.ts</title>
<path fill="none" stroke="#cfffac" d="M399.83,-62.38C399.83,-62.38 319.17,-62.38 319.17,-62.38 315.33,-62.38 311.5,-58.55 311.5,-54.72 311.5,-54.72 311.5,-47.05 311.5,-47.05 311.5,-43.22 315.33,-39.38 319.17,-39.38 319.17,-39.38 399.83,-39.38 399.83,-39.38 403.67,-39.38 407.5,-43.22 407.5,-47.05 407.5,-47.05 407.5,-54.72 407.5,-54.72 407.5,-58.55 403.67,-62.38 399.83,-62.38"/>
<text text-anchor="middle" x="359.5" y="-47.18" font-family="Arial" font-size="14.00" fill="#cfffac">src/keygen.ts</text>
</g>
<!-- index.ts&#45;&gt;src/keygen.ts -->
<g id="edge23" class="edge">
<title>index.ts&#45;&gt;src/keygen.ts</title>
<path fill="none" stroke="#757575" d="M32.65,-946.24C33.95,-850.37 44.83,-193.48 99,-126.88 147.66,-67.07 240.7,-52.72 301.14,-50.12"/>
<polygon fill="#757575" stroke="#757575" points="301.41,-53.62 311.29,-49.78 301.18,-46.62 301.41,-53.62"/>
</g>
<!-- src/parseBigInt.ts -->
<g id="node25" class="node">
<title>src/parseBigInt.ts</title>
<path fill="none" stroke="#c6c5fe" d="M1562.83,-1520.38C1562.83,-1520.38 1457.17,-1520.38 1457.17,-1520.38 1453.33,-1520.38 1449.5,-1516.55 1449.5,-1512.72 1449.5,-1512.72 1449.5,-1505.05 1449.5,-1505.05 1449.5,-1501.22 1453.33,-1497.38 1457.17,-1497.38 1457.17,-1497.38 1562.83,-1497.38 1562.83,-1497.38 1566.67,-1497.38 1570.5,-1501.22 1570.5,-1505.05 1570.5,-1505.05 1570.5,-1512.72 1570.5,-1512.72 1570.5,-1516.55 1566.67,-1520.38 1562.83,-1520.38"/>
<text text-anchor="middle" x="1510" y="-1505.18" font-family="Arial" font-size="14.00" fill="#c6c5fe">src/parseBigInt.ts</text>
</g>
<!-- index.ts&#45;&gt;src/parseBigInt.ts -->
<g id="edge24" class="edge">
<title>index.ts&#45;&gt;src/parseBigInt.ts</title>
<path fill="none" stroke="#757575" d="M32.73,-969.44C34.7,-1063.13 49.76,-1696.83 99,-1763.88 172.06,-1863.38 235.06,-1862.88 358.5,-1862.88 358.5,-1862.88 358.5,-1862.88 1047,-1862.88 1194.37,-1862.88 1268.75,-1894.97 1370,-1787.88 1434.16,-1720.03 1355.89,-1659.68 1406,-1580.88 1421.85,-1555.97 1449.73,-1537.27 1472.49,-1525.18"/>
<polygon fill="#757575" stroke="#757575" points="1474.24,-1528.22 1481.56,-1520.56 1471.06,-1521.98 1474.24,-1528.22"/>
</g>
<!-- src/proofOfWorkHash.ts -->
<g id="node26" class="node">
<title>src/proofOfWorkHash.ts</title>
<path fill="none" stroke="#cfffac" d="M1346.33,-1758.38C1346.33,-1758.38 1200.67,-1758.38 1200.67,-1758.38 1196.83,-1758.38 1193,-1754.55 1193,-1750.72 1193,-1750.72 1193,-1743.05 1193,-1743.05 1193,-1739.22 1196.83,-1735.38 1200.67,-1735.38 1200.67,-1735.38 1346.33,-1735.38 1346.33,-1735.38 1350.17,-1735.38 1354,-1739.22 1354,-1743.05 1354,-1743.05 1354,-1750.72 1354,-1750.72 1354,-1754.55 1350.17,-1758.38 1346.33,-1758.38"/>
<text text-anchor="middle" x="1273.5" y="-1743.18" font-family="Arial" font-size="14.00" fill="#cfffac">src/proofOfWorkHash.ts</text>
</g>
<!-- index.ts&#45;&gt;src/proofOfWorkHash.ts -->
<g id="edge25" class="edge">
<title>index.ts&#45;&gt;src/proofOfWorkHash.ts</title>
<path fill="none" stroke="#757575" d="M32.88,-969.46C35.91,-1058.17 56.91,-1628.34 99,-1690.88 171.47,-1798.58 228.7,-1824.88 358.5,-1824.88 358.5,-1824.88 358.5,-1824.88 575.5,-1824.88 805.49,-1824.88 1075.54,-1782.42 1201.32,-1760.16"/>
<polygon fill="#757575" stroke="#757575" points="1201.99,-1763.59 1211.22,-1758.39 1200.76,-1756.7 1201.99,-1763.59"/>
</g>
<!-- src/protocol.ts -->
<g id="node27" class="node">
<title>src/protocol.ts</title>
<path fill="none" stroke="#c6c5fe" d="M853.33,-1260.38C853.33,-1260.38 767.67,-1260.38 767.67,-1260.38 763.83,-1260.38 760,-1256.55 760,-1252.72 760,-1252.72 760,-1245.05 760,-1245.05 760,-1241.22 763.83,-1237.38 767.67,-1237.38 767.67,-1237.38 853.33,-1237.38 853.33,-1237.38 857.17,-1237.38 861,-1241.22 861,-1245.05 861,-1245.05 861,-1252.72 861,-1252.72 861,-1256.55 857.17,-1260.38 853.33,-1260.38"/>
<text text-anchor="middle" x="810.5" y="-1245.18" font-family="Arial" font-size="14.00" fill="#c6c5fe">src/protocol.ts</text>
</g>
<!-- index.ts&#45;&gt;src/protocol.ts -->
<g id="edge26" class="edge">
<title>index.ts&#45;&gt;src/protocol.ts</title>
<path fill="none" stroke="#757575" d="M33.85,-969.46C39.49,-1016 62.62,-1188.87 99,-1227.88 273.1,-1414.63 421.51,-1349.54 670,-1290.88 687.41,-1286.77 689.17,-1278.95 706,-1272.88 719.96,-1267.86 735.36,-1263.62 749.93,-1260.17"/>
<polygon fill="#757575" stroke="#757575" points="750.88,-1263.54 759.85,-1257.91 749.32,-1256.72 750.88,-1263.54"/>
</g>
<!-- src/publicKeyFromPrivateKey.ts -->
<g id="node28" class="node">
<title>src/publicKeyFromPrivateKey.ts</title>
<path fill="none" stroke="#cfffac" d="M1606.33,-276.38C1606.33,-276.38 1413.67,-276.38 1413.67,-276.38 1409.83,-276.38 1406,-272.55 1406,-268.72 1406,-268.72 1406,-261.05 1406,-261.05 1406,-257.22 1409.83,-253.38 1413.67,-253.38 1413.67,-253.38 1606.33,-253.38 1606.33,-253.38 1610.17,-253.38 1614,-257.22 1614,-261.05 1614,-261.05 1614,-268.72 1614,-268.72 1614,-272.55 1610.17,-276.38 1606.33,-276.38"/>
<text text-anchor="middle" x="1510" y="-261.18" font-family="Arial" font-size="14.00" fill="#cfffac">src/publicKeyFromPrivateKey.ts</text>
</g>
<!-- index.ts&#45;&gt;src/publicKeyFromPrivateKey.ts -->
<g id="edge27" class="edge">
<title>index.ts&#45;&gt;src/publicKeyFromPrivateKey.ts</title>
<path fill="none" stroke="#757575" d="M32.73,-946.31C34.55,-860.07 47.99,-319.62 99,-270.88 145.57,-226.4 1068.58,-251 1395.46,-261.16"/>
<polygon fill="#757575" stroke="#757575" points="1395.79,-264.68 1405.89,-261.49 1396.01,-257.68 1395.79,-264.68"/>
</g>
<!-- src/walletPassphraseHash.ts -->
<g id="node29" class="node">
<title>src/walletPassphraseHash.ts</title>
<path fill="none" stroke="#c6c5fe" d="M1133.33,-328.38C1133.33,-328.38 958.67,-328.38 958.67,-328.38 954.83,-328.38 951,-324.55 951,-320.72 951,-320.72 951,-313.05 951,-313.05 951,-309.22 954.83,-305.38 958.67,-305.38 958.67,-305.38 1133.33,-305.38 1133.33,-305.38 1137.17,-305.38 1141,-309.22 1141,-313.05 1141,-313.05 1141,-320.72 1141,-320.72 1141,-324.55 1137.17,-328.38 1133.33,-328.38"/>
<text text-anchor="middle" x="1046" y="-313.18" font-family="Arial" font-size="14.00" fill="#c6c5fe">src/walletPassphraseHash.ts</text>
</g>
<!-- index.ts&#45;&gt;src/walletPassphraseHash.ts -->
<g id="edge28" class="edge">
<title>index.ts&#45;&gt;src/walletPassphraseHash.ts</title>
<path fill="none" stroke="#757575" d="M32.86,-946.23C35.45,-864.91 52.69,-384.58 99,-341.88 159.66,-285.95 707.65,-302.41 940.78,-312.09"/>
<polygon fill="#757575" stroke="#757575" points="940.83,-315.59 950.97,-312.51 941.12,-308.6 940.83,-315.59"/>
</g>
<!-- src/Block.ts&#45;&gt;config/core.json -->
<g id="edge29" class="edge">
<title>src/Block.ts&#45;&gt;config/core.json</title>
<path fill="none" stroke="#757575" d="M1089.09,-1404.21C1186.33,-1401.97 1432.16,-1405.68 1614,-1488.88 1667.08,-1513.17 1720.2,-1557.24 1748.05,-1582.24"/>
<polygon fill="#757575" stroke="#757575" points="1745.79,-1584.91 1755.54,-1589.05 1750.5,-1579.74 1745.79,-1584.91"/>
</g>
<!-- src/Block.ts&#45;&gt;config/mongoose.json -->
<g id="edge30" class="edge">
<title>src/Block.ts&#45;&gt;config/mongoose.json</title>
<path fill="none" stroke="#757575" d="M1089.23,-1399.54C1185.24,-1386.73 1426.13,-1363.87 1614,-1423.88 1747.7,-1466.59 1797.5,-1473.61 1888,-1580.88 1960.55,-1666.88 1986.95,-1805.12 1994.73,-1858.18"/>
<polygon fill="#757575" stroke="#757575" points="1991.27,-1858.74 1996.11,-1868.16 1998.21,-1857.78 1991.27,-1858.74"/>
</g>
<!-- src/Block.ts&#45;&gt;config/settings.json -->
<g id="edge31" class="edge">
<title>src/Block.ts&#45;&gt;config/settings.json</title>
<path fill="none" stroke="#757575" d="M1073.04,-1394.37C1099.04,-1383.14 1140.31,-1366.02 1177,-1353.88 1261.23,-1326.02 1298.02,-1354.75 1370,-1302.88 1439.93,-1252.49 1484.22,-1155.12 1501.17,-1112.15"/>
<polygon fill="#757575" stroke="#757575" points="1504.48,-1113.28 1504.8,-1102.69 1497.95,-1110.77 1504.48,-1113.28"/>
</g>
<!-- src/Block.ts&#45;&gt;src/Transaction.ts -->
<g id="edge32" class="edge">
<title>src/Block.ts&#45;&gt;src/Transaction.ts</title>
<path fill="none" stroke="#757575" d="M1066.5,-1394.16C1086.08,-1382.05 1116.73,-1362.1 1141,-1341.88 1185.32,-1304.98 1231.44,-1255.26 1255.53,-1228.27"/>
<polygon fill="#757575" stroke="#757575" points="1258.26,-1230.47 1262.27,-1220.67 1253.02,-1225.83 1258.26,-1230.47"/>
</g>
<!-- src/Block.ts&#45;&gt;src/beautifyBigInt.ts -->
<g id="edge33" class="edge">
<title>src/Block.ts&#45;&gt;src/beautifyBigInt.ts</title>
<path fill="none" stroke="#757575" d="M1069.28,-1417.55C1094.97,-1430.83 1138.58,-1452.88 1177,-1469.88 1280,-1515.47 1404.12,-1562.37 1467.43,-1585.73"/>
<polygon fill="#757575" stroke="#757575" points="1466.46,-1589.1 1477.06,-1589.27 1468.88,-1582.53 1466.46,-1589.1"/>
</g>
<!-- src/Block.ts&#45;&gt;src/parseBigInt.ts -->
<g id="edge35" class="edge">
<title>src/Block.ts&#45;&gt;src/parseBigInt.ts</title>
<path fill="none" stroke="#757575" d="M1089.22,-1415.3C1171.19,-1433.57 1352.17,-1473.92 1447.5,-1495.17"/>
<polygon fill="#757575" stroke="#757575" points="1446.77,-1498.6 1457.29,-1497.36 1448.29,-1491.76 1446.77,-1498.6"/>
</g>
<!-- src/Block.ts&#45;&gt;src/proofOfWorkHash.ts -->
<g id="edge36" class="edge">
<title>src/Block.ts&#45;&gt;src/proofOfWorkHash.ts</title>
<path fill="none" stroke="#757575" d="M1047.91,-1417.47C1052.24,-1464.36 1075.05,-1641.67 1177,-1726.88 1179.25,-1728.77 1181.64,-1730.49 1184.13,-1732.06"/>
<polygon fill="#757575" stroke="#757575" points="1182.51,-1735.16 1192.97,-1736.84 1185.84,-1729 1182.51,-1735.16"/>
</g>
<!-- src/mongoose/model/block.ts -->
<g id="node30" class="node">
<title>src/mongoose/model/block.ts</title>
<path fill="none" stroke="#c6c5fe" d="M1362.33,-1717.38C1362.33,-1717.38 1184.67,-1717.38 1184.67,-1717.38 1180.83,-1717.38 1177,-1713.55 1177,-1709.72 1177,-1709.72 1177,-1702.05 1177,-1702.05 1177,-1698.22 1180.83,-1694.38 1184.67,-1694.38 1184.67,-1694.38 1362.33,-1694.38 1362.33,-1694.38 1366.17,-1694.38 1370,-1698.22 1370,-1702.05 1370,-1702.05 1370,-1709.72 1370,-1709.72 1370,-1713.55 1366.17,-1717.38 1362.33,-1717.38"/>
<text text-anchor="middle" x="1273.5" y="-1702.18" font-family="Arial" font-size="14.00" fill="#c6c5fe">src/mongoose/model/block.ts</text>
</g>
<!-- src/Block.ts&#45;&gt;src/mongoose/model/block.ts -->
<g id="edge34" class="edge">
<title>src/Block.ts&#45;&gt;src/mongoose/model/block.ts</title>
<path fill="none" stroke="#757575" d="M1055.84,-1417.64C1090.08,-1463.2 1214.22,-1628.35 1257.5,-1685.92"/>
<polygon fill="#757575" stroke="#757575" points="1254.91,-1688.31 1263.72,-1694.21 1260.51,-1684.11 1254.91,-1688.31"/>
</g>
<!-- src/Blockchain.ts&#45;&gt;config/core.json -->
<g id="edge37" class="edge">
<title>src/Blockchain.ts&#45;&gt;config/core.json</title>
<path fill="none" stroke="#757575" d="M582.36,-1680.59C599.45,-1708.68 646.85,-1780.31 706,-1816.88 832.02,-1894.8 1230.4,-1926.49 1370,-1876.88 1389.1,-1870.1 1389.63,-1860.84 1406,-1848.88 1529.47,-1758.7 1681.83,-1657.5 1741.9,-1617.98"/>
<polygon fill="#757575" stroke="#757575" points="1743.97,-1620.81 1750.41,-1612.39 1740.13,-1614.96 1743.97,-1620.81"/>
</g>
<!-- src/Blockchain.ts&#45;&gt;config/mongoose.json -->
<g id="edge38" class="edge">
<title>src/Blockchain.ts&#45;&gt;config/mongoose.json</title>
<path fill="none" stroke="#757575" d="M576.53,-1680.51C581.26,-1725.93 605.16,-1892.32 706,-1961.88 768.11,-2004.73 969.55,-1980.88 1045,-1980.88 1045,-1980.88 1045,-1980.88 1511,-1980.88 1678.77,-1980.88 1730.21,-2018.87 1888,-1961.88 1924.68,-1948.64 1959.36,-1918.65 1979.51,-1898.84"/>
<polygon fill="#757575" stroke="#757575" points="1982.18,-1901.12 1986.74,-1891.56 1977.21,-1896.19 1982.18,-1901.12"/>
</g>
<!-- src/Blockchain.ts&#45;&gt;config/settings.json -->
<g id="edge39" class="edge">
<title>src/Blockchain.ts&#45;&gt;config/settings.json</title>
<path fill="none" stroke="#757575" d="M633.61,-1662.27C702.06,-1653.49 818.66,-1635.42 915,-1604.88 1137.65,-1534.3 1213.65,-1515.42 1370,-1341.88 1436.2,-1268.41 1483.32,-1157.94 1501.14,-1112.04"/>
<polygon fill="#757575" stroke="#757575" points="1504.47,-1113.13 1504.77,-1102.54 1497.93,-1110.64 1504.47,-1113.13"/>
</g>
<!-- src/Blockchain.ts&#45;&gt;src/Block.ts -->
<g id="edge40" class="edge">
<title>src/Blockchain.ts&#45;&gt;src/Block.ts</title>
<path fill="none" stroke="#757575" d="M590.97,-1657.27C614.8,-1639.7 662.35,-1605.97 706,-1582.88 794.79,-1535.92 826.88,-1545.09 915,-1496.88 954.78,-1475.12 997.15,-1443.73 1022.33,-1424.08"/>
<polygon fill="#757575" stroke="#757575" points="1024.8,-1426.59 1030.49,-1417.66 1020.47,-1421.09 1024.8,-1426.59"/>
</g>
<!-- src/Blockchain.ts&#45;&gt;src/Transaction.ts -->
<g id="edge41" class="edge">
<title>src/Blockchain.ts&#45;&gt;src/Transaction.ts</title>
<path fill="none" stroke="#757575" d="M605.69,-1657.37C632.06,-1647.41 671.42,-1632.78 706,-1620.88 906.17,-1552.02 989.03,-1574.25 1141,-1426.88 1202.87,-1366.89 1246.78,-1271.83 1264.19,-1229.91"/>
<polygon fill="#757575" stroke="#757575" points="1267.51,-1231.04 1268.04,-1220.46 1261.03,-1228.4 1267.51,-1231.04"/>
</g>
<!-- src/Blockchain.ts&#45;&gt;src/beautifyBigInt.ts -->
<g id="edge42" class="edge">
<title>src/Blockchain.ts&#45;&gt;src/beautifyBigInt.ts</title>
<path fill="none" stroke="#757575" d="M587.26,-1680.39C608.8,-1700.73 656.91,-1742.76 706,-1762.88 979.5,-1875.01 1108.04,-1937.83 1370,-1800.88 1443.74,-1762.34 1486.24,-1664.88 1501.96,-1621.85"/>
<polygon fill="#757575" stroke="#757575" points="1505.28,-1622.98 1505.31,-1612.39 1498.68,-1620.65 1505.28,-1622.98"/>
</g>
<!-- src/Blockchain.ts&#45;&gt;src/parseBigInt.ts -->
<g id="edge46" class="edge">
<title>src/Blockchain.ts&#45;&gt;src/parseBigInt.ts</title>
<path fill="none" stroke="#757575" d="M609.75,-1680.44C635.86,-1688.85 672.85,-1699.96 706,-1706.88 778.52,-1722.04 1312.87,-1815.06 1370,-1767.88 1435.26,-1713.99 1359.94,-1651.89 1406,-1580.88 1422.18,-1555.95 1450.3,-1537.16 1473.08,-1525.04"/>
<polygon fill="#757575" stroke="#757575" points="1474.83,-1528.08 1482.15,-1520.41 1471.65,-1521.84 1474.83,-1528.08"/>
</g>
<!-- src/Blockchain.ts&#45;&gt;src/mongoose/model/block.ts -->
<g id="edge45" class="edge">
<title>src/Blockchain.ts&#45;&gt;src/mongoose/model/block.ts</title>
<path fill="none" stroke="#757575" d="M633.82,-1678.24C656.32,-1681.51 682.3,-1684.86 706,-1686.88 866.25,-1700.59 1052.79,-1704.54 1166.73,-1705.6"/>
<polygon fill="#757575" stroke="#757575" points="1166.82,-1709.1 1176.85,-1705.69 1166.88,-1702.1 1166.82,-1709.1"/>
</g>
<!-- src/log.ts -->
<g id="node31" class="node">
<title>src/log.ts</title>
<path fill="none" stroke="#c6c5fe" d="M838.33,-986.38C838.33,-986.38 782.67,-986.38 782.67,-986.38 778.83,-986.38 775,-982.55 775,-978.72 775,-978.72 775,-971.05 775,-971.05 775,-967.22 778.83,-963.38 782.67,-963.38 782.67,-963.38 838.33,-963.38 838.33,-963.38 842.17,-963.38 846,-967.22 846,-971.05 846,-971.05 846,-978.72 846,-978.72 846,-982.55 842.17,-986.38 838.33,-986.38"/>
<text text-anchor="middle" x="810.5" y="-971.18" font-family="Arial" font-size="14.00" fill="#c6c5fe">src/log.ts</text>
</g>
<!-- src/Blockchain.ts&#45;&gt;src/log.ts -->
<g id="edge43" class="edge">
<title>src/Blockchain.ts&#45;&gt;src/log.ts</title>
<path fill="none" stroke="#757575" d="M580.19,-1657.15C595.4,-1618.63 643.91,-1492.34 670,-1383.88 694.71,-1281.15 670.33,-1248.35 706,-1148.88 727.6,-1088.66 770.81,-1026.11 793.98,-994.99"/>
<polygon fill="#757575" stroke="#757575" points="796.99,-996.81 800.22,-986.72 791.4,-992.6 796.99,-996.81"/>
</g>
<!-- src/mongoose/model/address.ts -->
<g id="node32" class="node">
<title>src/mongoose/model/address.ts</title>
<path fill="none" stroke="#c6c5fe" d="M907.33,-1952.38C907.33,-1952.38 713.67,-1952.38 713.67,-1952.38 709.83,-1952.38 706,-1948.55 706,-1944.72 706,-1944.72 706,-1937.05 706,-1937.05 706,-1933.22 709.83,-1929.38 713.67,-1929.38 713.67,-1929.38 907.33,-1929.38 907.33,-1929.38 911.17,-1929.38 915,-1933.22 915,-1937.05 915,-1937.05 915,-1944.72 915,-1944.72 915,-1948.55 911.17,-1952.38 907.33,-1952.38"/>
<text text-anchor="middle" x="810.5" y="-1937.18" font-family="Arial" font-size="14.00" fill="#c6c5fe">src/mongoose/model/address.ts</text>
</g>
<!-- src/Blockchain.ts&#45;&gt;src/mongoose/model/address.ts -->
<g id="edge44" class="edge">
<title>src/Blockchain.ts&#45;&gt;src/mongoose/model/address.ts</title>
<path fill="none" stroke="#757575" d="M578.11,-1680.58C587.58,-1720.23 623.99,-1850.63 706,-1914.88 711.12,-1918.9 716.78,-1922.3 722.74,-1925.18"/>
<polygon fill="#757575" stroke="#757575" points="721.75,-1928.56 732.32,-1929.29 724.51,-1922.13 721.75,-1928.56"/>
</g>
<!-- src/HTTPApi.ts&#45;&gt;config/default_env.json -->
<g id="edge47" class="edge">
<title>src/HTTPApi.ts&#45;&gt;config/default_env.json</title>
<path fill="none" stroke="#757575" d="M628.12,-703.66C698.53,-704.37 824.94,-714.1 915,-768.88 937.18,-782.38 930.05,-799.56 951,-814.88 962.42,-823.24 976.07,-829.82 989.37,-834.91"/>
<polygon fill="#757575" stroke="#757575" points="988.37,-838.26 998.96,-838.35 990.73,-831.68 988.37,-838.26"/>
</g>
<!-- src/HTTPApi.ts&#45;&gt;config/settings.json -->
<g id="edge48" class="edge">
<title>src/HTTPApi.ts&#45;&gt;config/settings.json</title>
<path fill="none" stroke="#757575" d="M628.31,-694.92C651.97,-690.94 680.29,-686.84 706,-684.88 899.15,-670.17 956.78,-652 1141,-711.88 1251.89,-747.93 1287.72,-757.27 1370,-839.88 1439.95,-910.12 1485.14,-1022.83 1501.8,-1069.54"/>
<polygon fill="#757575" stroke="#757575" points="1498.57,-1070.91 1505.17,-1079.2 1505.18,-1068.61 1498.57,-1070.91"/>
</g>
<!-- src/HTTPApi.ts&#45;&gt;src/Block.ts -->
<g id="edge49" class="edge">
<title>src/HTTPApi.ts&#45;&gt;src/Block.ts</title>
<path fill="none" stroke="#757575" d="M608.57,-716.43C676.83,-742 833.69,-810.07 915,-920.88 1025.63,-1071.66 1042.14,-1310.31 1044.58,-1383.69"/>
<polygon fill="#757575" stroke="#757575" points="1041.09,-1384.11 1044.86,-1394.01 1048.09,-1383.92 1041.09,-1384.11"/>
</g>
<!-- src/HTTPApi.ts&#45;&gt;src/Transaction.ts -->
<g id="edge50" class="edge">
<title>src/HTTPApi.ts&#45;&gt;src/Transaction.ts</title>
<path fill="none" stroke="#757575" d="M628.29,-696.85C695.94,-688.36 816.27,-679.4 915,-704.88 1026.14,-733.57 1067.07,-742.08 1141,-829.88 1234.96,-941.48 1263.2,-1124.19 1270.36,-1186.93"/>
<polygon fill="#757575" stroke="#757575" points="1266.91,-1187.63 1271.46,-1197.2 1273.87,-1186.89 1266.91,-1187.63"/>
</g>
<!-- src/HTTPApi.ts&#45;&gt;src/base58.ts -->
<g id="edge51" class="edge">
<title>src/HTTPApi.ts&#45;&gt;src/base58.ts</title>
<path fill="none" stroke="#757575" d="M583.55,-693.11C617.87,-642.96 752.1,-446.78 795.72,-383.02"/>
<polygon fill="#757575" stroke="#757575" points="798.72,-384.84 801.48,-374.61 792.94,-380.88 798.72,-384.84"/>
</g>
<!-- src/HTTPApi.ts&#45;&gt;src/log.ts -->
<g id="edge52" class="edge">
<title>src/HTTPApi.ts&#45;&gt;src/log.ts</title>
<path fill="none" stroke="#757575" d="M590.4,-716.61C611.03,-733.58 648.21,-766.9 670,-802.88 696.21,-846.16 674.61,-871.21 706,-910.88 722.79,-932.1 748.67,-948.1 770.36,-958.8"/>
<polygon fill="#757575" stroke="#757575" points="769.13,-962.09 779.67,-963.2 772.12,-955.76 769.13,-962.09"/>
</g>
<!-- src/Miner.ts&#45;&gt;config/default_env.json -->
<g id="edge53" class="edge">
<title>src/Miner.ts&#45;&gt;config/default_env.json</title>
<path fill="none" stroke="#757575" d="M402.62,-776.69C425.21,-773.67 453.56,-770.38 479,-768.88 563.74,-763.9 585.59,-759.87 670,-768.88 788.2,-781.5 923.85,-815.9 995.18,-835.57"/>
<polygon fill="#757575" stroke="#757575" points="994.65,-839.06 1005.22,-838.36 996.52,-832.31 994.65,-839.06"/>
</g>
<!-- src/Miner.ts&#45;&gt;config/settings.json -->
<g id="edge54" class="edge">
<title>src/Miner.ts&#45;&gt;config/settings.json</title>
<path fill="none" stroke="#757575" d="M371.62,-771.36C391.54,-751.28 435.31,-709.55 479,-683.88 742.01,-529.4 857.78,-389.63 1141,-502.88 1390.54,-602.67 1484.67,-975.32 1504.71,-1069.27"/>
<polygon fill="#757575" stroke="#757575" points="1501.28,-1070 1506.74,-1079.08 1508.14,-1068.58 1501.28,-1070"/>
</g>
<!-- src/Miner.ts&#45;&gt;src/Block.ts -->
<g id="edge55" class="edge">
<title>src/Miner.ts&#45;&gt;src/Block.ts</title>
<path fill="none" stroke="#757575" d="M402.75,-781.12C476.62,-778.78 625.59,-777.5 670,-802.88 694.72,-817.02 684.37,-837.36 706,-855.88 784.06,-922.75 848.43,-876.57 915,-954.88 1027.74,-1087.5 1042.85,-1312.81 1044.76,-1383.79"/>
<polygon fill="#757575" stroke="#757575" points="1041.27,-1384.24 1044.97,-1394.17 1048.27,-1384.1 1041.27,-1384.24"/>
</g>
<!-- src/Miner.ts&#45;&gt;src/HTTPApi.ts -->
<g id="edge56" class="edge">
<title>src/Miner.ts&#45;&gt;src/HTTPApi.ts</title>
<path fill="none" stroke="#757575" d="M402.64,-772.44C415.91,-768.41 430.39,-763.22 443,-756.88 460.64,-748.03 461.2,-739.42 479,-730.88 488.99,-726.1 500,-722.06 510.88,-718.71"/>
<polygon fill="#757575" stroke="#757575" points="512.17,-721.98 520.79,-715.82 510.21,-715.26 512.17,-721.98"/>
</g>
<!-- src/Miner.ts&#45;&gt;src/TCPApi.ts -->
<g id="edge57" class="edge">
<title>src/Miner.ts&#45;&gt;src/TCPApi.ts</title>
<path fill="none" stroke="#757575" d="M402.58,-790.79C434.69,-796.82 479.32,-805.2 514.92,-811.88"/>
<polygon fill="#757575" stroke="#757575" points="514.7,-815.4 525.18,-813.81 516,-808.52 514.7,-815.4"/>
</g>
<!-- src/Miner.ts&#45;&gt;src/log.ts -->
<g id="edge58" class="edge">
<title>src/Miner.ts&#45;&gt;src/log.ts</title>
<path fill="none" stroke="#757575" d="M381.67,-794.39C405.19,-807.03 444.43,-827.68 479,-843.88 562.49,-883.01 588.84,-881.12 670,-924.88 686.93,-934.01 688.42,-941.09 706,-948.88 724.58,-957.12 746.24,-963.07 764.93,-967.18"/>
<polygon fill="#757575" stroke="#757575" points="764.46,-970.66 774.97,-969.28 765.89,-963.81 764.46,-970.66"/>
</g>
<!-- src/MinerThread.ts&#45;&gt;src/Block.ts -->
<g id="edge59" class="edge">
<title>src/MinerThread.ts&#45;&gt;src/Block.ts</title>
<path fill="none" stroke="#757575" d="M372.08,-1579.26C392.02,-1560 434.94,-1521.73 479,-1502.88 571.63,-1463.26 870.78,-1425.74 992.63,-1411.7"/>
<polygon fill="#757575" stroke="#757575" points="993.28,-1415.15 1002.82,-1410.53 992.49,-1408.2 993.28,-1415.15"/>
</g>
<!-- src/MinerThread.ts&#45;&gt;src/Blockchain.ts -->
<g id="edge60" class="edge">
<title>src/MinerThread.ts&#45;&gt;src/Blockchain.ts</title>
<path fill="none" stroke="#757575" d="M391.93,-1602.39C429.21,-1616.05 491.47,-1638.84 532.51,-1653.87"/>
<polygon fill="#757575" stroke="#757575" points="531.35,-1657.18 541.94,-1657.33 533.76,-1650.6 531.35,-1657.18"/>
</g>
<!-- src/Node.ts&#45;&gt;config/mongoose.json -->
<g id="edge61" class="edge">
<title>src/Node.ts&#45;&gt;config/mongoose.json</title>
<path fill="none" stroke="#757575" d="M173.98,-1218.6C184.1,-1250.64 216.67,-1340.45 276,-1386.88 350.09,-1444.86 388.45,-1421.36 479,-1446.88 873.62,-1558.11 976.08,-1572.2 1370,-1685.88 1589.21,-1749.15 1849.08,-1832.03 1952.15,-1865.22"/>
<polygon fill="#757575" stroke="#757575" points="1951.32,-1868.63 1961.91,-1868.36 1953.47,-1861.97 1951.32,-1868.63"/>
</g>
<!-- src/Node.ts&#45;&gt;config/settings.json -->
<g id="edge62" class="edge">
<title>src/Node.ts&#45;&gt;config/settings.json</title>
<path fill="none" stroke="#757575" d="M212.1,-1201.78C302.08,-1190.87 521.55,-1164.98 706,-1148.88 1000.64,-1123.18 1075.27,-1129.49 1370,-1104.88 1390.87,-1103.14 1413.49,-1100.98 1434.28,-1098.88"/>
<polygon fill="#757575" stroke="#757575" points="1434.74,-1102.36 1444.33,-1097.86 1434.03,-1095.39 1434.74,-1102.36"/>
</g>
<!-- src/Node.ts&#45;&gt;src/Block.ts -->
<g id="edge63" class="edge">
<title>src/Node.ts&#45;&gt;src/Block.ts</title>
<path fill="none" stroke="#757575" d="M184.03,-1218.42C225.01,-1252.46 352.66,-1352.07 479,-1383.88 663.2,-1430.27 891.67,-1419.18 992.73,-1410.94"/>
<polygon fill="#757575" stroke="#757575" points="993.3,-1414.41 1002.98,-1410.08 992.72,-1407.43 993.3,-1414.41"/>
</g>
<!-- src/Node.ts&#45;&gt;src/Blockchain.ts -->
<g id="edge64" class="edge">
<title>src/Node.ts&#45;&gt;src/Blockchain.ts</title>
<path fill="none" stroke="#757575" d="M170.6,-1218.54C171.68,-1264.97 182.06,-1438.49 276,-1526.88 331.9,-1579.48 380.54,-1526.27 443,-1570.88 466.47,-1587.65 457.11,-1606.1 479,-1624.88 493.12,-1637 511.14,-1646.49 527.65,-1653.49"/>
<polygon fill="#757575" stroke="#757575" points="526.58,-1656.83 537.16,-1657.34 529.2,-1650.34 526.58,-1656.83"/>
</g>
<!-- src/Node.ts&#45;&gt;src/HTTPApi.ts -->
<g id="edge65" class="edge">
<title>src/Node.ts&#45;&gt;src/HTTPApi.ts</title>
<path fill="none" stroke="#757575" d="M171.58,-1195.18C177.73,-1131.23 210.33,-824.76 276,-761.88 292.82,-745.78 428.76,-724.68 510.95,-713.2"/>
<polygon fill="#757575" stroke="#757575" points="511.52,-716.65 520.94,-711.81 510.56,-709.72 511.52,-716.65"/>
</g>
<!-- src/Node.ts&#45;&gt;src/TCPApi.ts -->
<g id="edge66" class="edge">
<title>src/Node.ts&#45;&gt;src/TCPApi.ts</title>
<path fill="none" stroke="#757575" d="M171.38,-1195.34C175.25,-1152.97 194.31,-1004.34 276,-924.88 341.57,-861.1 448.74,-837.12 514.97,-828.16"/>
<polygon fill="#757575" stroke="#757575" points="515.76,-831.59 525.23,-826.84 514.87,-824.64 515.76,-831.59"/>
</g>
<!-- src/Node.ts&#45;&gt;src/TCPNode.ts -->
<g id="edge67" class="edge">
<title>src/Node.ts&#45;&gt;src/TCPNode.ts</title>
<path fill="none" stroke="#757575" d="M192.8,-1195.38C226.07,-1178.21 288.83,-1145.83 326.84,-1126.22"/>
<polygon fill="#757575" stroke="#757575" points="328.65,-1129.22 335.93,-1121.53 325.44,-1123 328.65,-1129.22"/>
</g>
<!-- src/Node.ts&#45;&gt;src/Transaction.ts -->
<g id="edge68" class="edge">
<title>src/Node.ts&#45;&gt;src/Transaction.ts</title>
<path fill="none" stroke="#757575" d="M212.24,-1213.38C231.59,-1216.14 254.92,-1219.13 276,-1220.88 365.96,-1228.39 388.74,-1226.33 479,-1227.88 745.82,-1232.48 1063.03,-1219.25 1201.71,-1212.53"/>
<polygon fill="#757575" stroke="#757575" points="1201.96,-1216.03 1211.78,-1212.04 1201.62,-1209.03 1201.96,-1216.03"/>
</g>
<!-- src/Node.ts&#45;&gt;src/beautifyBigInt.ts -->
<g id="edge69" class="edge">
<title>src/Node.ts&#45;&gt;src/beautifyBigInt.ts</title>
<path fill="none" stroke="#757575" d="M176.42,-1218.68C190.21,-1245.03 227.1,-1309.05 276,-1343.88 353.5,-1399.08 386.86,-1388.13 479,-1411.88 830.91,-1502.62 1261.24,-1566.89 1432.97,-1590.7"/>
<polygon fill="#757575" stroke="#757575" points="1432.54,-1594.18 1442.92,-1592.08 1433.5,-1587.24 1432.54,-1594.18"/>
</g>
<!-- src/Node.ts&#45;&gt;src/protocol.ts -->
<g id="edge72" class="edge">
<title>src/Node.ts&#45;&gt;src/protocol.ts</title>
<path fill="none" stroke="#757575" d="M187.06,-1218.53C207.05,-1231.81 242.2,-1252.74 276,-1260.88 443.84,-1301.34 650.02,-1276.54 749.79,-1260.05"/>
<polygon fill="#757575" stroke="#757575" points="750.4,-1263.5 759.68,-1258.38 749.24,-1256.59 750.4,-1263.5"/>
</g>
<!-- src/Node.ts&#45;&gt;src/log.ts -->
<g id="edge70" class="edge">
<title>src/Node.ts&#45;&gt;src/log.ts</title>
<path fill="none" stroke="#757575" d="M179.18,-1195.32C212.2,-1152.52 335.43,-1003.37 479,-961.88 577.97,-933.29 700.54,-951.16 765.02,-964.41"/>
<polygon fill="#757575" stroke="#757575" points="764.35,-967.84 774.86,-966.49 765.8,-961 764.35,-967.84"/>
</g>
<!-- src/mongoose/model/node.ts -->
<g id="node33" class="node">
<title>src/mongoose/model/node.ts</title>
<path fill="none" stroke="#c6c5fe" d="M662.33,-1218.38C662.33,-1218.38 486.67,-1218.38 486.67,-1218.38 482.83,-1218.38 479,-1214.55 479,-1210.72 479,-1210.72 479,-1203.05 479,-1203.05 479,-1199.22 482.83,-1195.38 486.67,-1195.38 486.67,-1195.38 662.33,-1195.38 662.33,-1195.38 666.17,-1195.38 670,-1199.22 670,-1203.05 670,-1203.05 670,-1210.72 670,-1210.72 670,-1214.55 666.17,-1218.38 662.33,-1218.38"/>
<text text-anchor="middle" x="574.5" y="-1203.18" font-family="Arial" font-size="14.00" fill="#c6c5fe">src/mongoose/model/node.ts</text>
</g>
<!-- src/Node.ts&#45;&gt;src/mongoose/model/node.ts -->
<g id="edge71" class="edge">
<title>src/Node.ts&#45;&gt;src/mongoose/model/node.ts</title>
<path fill="none" stroke="#757575" d="M212.11,-1206.88C272.11,-1206.88 384.91,-1206.88 468.59,-1206.88"/>
<polygon fill="#757575" stroke="#757575" points="468.65,-1210.38 478.65,-1206.88 468.65,-1203.38 468.65,-1210.38"/>
</g>
<!-- src/NodeThread.ts&#45;&gt;src/Block.ts -->
<g id="edge73" class="edge">
<title>src/NodeThread.ts&#45;&gt;src/Block.ts</title>
<path fill="none" stroke="#757575" d="M862.93,-1340.43C879.66,-1344.55 898.24,-1349.52 915,-1354.88 947.35,-1365.25 983.23,-1379.54 1009.08,-1390.36"/>
<polygon fill="#757575" stroke="#757575" points="1007.9,-1393.66 1018.47,-1394.32 1010.62,-1387.21 1007.9,-1393.66"/>
</g>
<!-- src/NodeThread.ts&#45;&gt;src/Transaction.ts -->
<g id="edge74" class="edge">
<title>src/NodeThread.ts&#45;&gt;src/Transaction.ts</title>
<path fill="none" stroke="#757575" d="M856.56,-1317.38C920.05,-1301.14 1039.42,-1270.5 1141,-1243.88 1166.9,-1237.1 1195.63,-1229.46 1219.62,-1223.06"/>
<polygon fill="#757575" stroke="#757575" points="1220.83,-1226.36 1229.58,-1220.4 1219.02,-1219.6 1220.83,-1226.36"/>
</g>
<!-- src/PaymentProcessor.ts&#45;&gt;src/HTTPApi.ts -->
<g id="edge75" class="edge">
<title>src/PaymentProcessor.ts&#45;&gt;src/HTTPApi.ts</title>
<path fill="none" stroke="#757575" d="M384.15,-638.48C407.78,-649.77 445.34,-666.94 479,-678.88 491.02,-683.15 504.1,-687.15 516.6,-690.67"/>
<polygon fill="#757575" stroke="#757575" points="515.89,-694.1 526.46,-693.38 517.75,-687.35 515.89,-694.1"/>
</g>
<!-- src/PaymentProcessor.ts&#45;&gt;src/TCPApi.ts -->
<g id="edge76" class="edge">
<title>src/PaymentProcessor.ts&#45;&gt;src/TCPApi.ts</title>
<path fill="none" stroke="#757575" d="M373.19,-638.56C408.85,-671.38 510.21,-764.65 553.5,-804.48"/>
<polygon fill="#757575" stroke="#757575" points="551.15,-807.08 560.88,-811.27 555.89,-801.92 551.15,-807.08"/>
</g>
<!-- src/PaymentProcessor.ts&#45;&gt;src/Transaction.ts -->
<g id="edge77" class="edge">
<title>src/PaymentProcessor.ts&#45;&gt;src/Transaction.ts</title>
<path fill="none" stroke="#757575" d="M443.18,-624.36C622.42,-620.67 1038.89,-622.24 1141,-711.88 1159.71,-728.31 1245.73,-1093.78 1267.49,-1187.26"/>
<polygon fill="#757575" stroke="#757575" points="1264.09,-1188.1 1269.76,-1197.05 1270.91,-1186.52 1264.09,-1188.1"/>
</g>
<!-- src/PaymentProcessor.ts&#45;&gt;src/addressFromPublicKey.ts -->
<g id="edge78" class="edge">
<title>src/PaymentProcessor.ts&#45;&gt;src/addressFromPublicKey.ts</title>
<path fill="none" stroke="#757575" d="M366.74,-615.35C381.98,-588.38 423.92,-521.07 479,-488.88 553.73,-445.22 593.09,-490.59 670,-450.88 689.56,-440.79 686.27,-426.64 706,-416.88 790.37,-375.18 822.43,-399.83 915,-382.88 921.3,-381.73 1135.2,-339.61 1141,-336.88 1159.59,-328.14 1159.63,-318.86 1177,-307.88 1277.11,-244.61 1406.02,-189.19 1469.74,-163.35"/>
<polygon fill="#757575" stroke="#757575" points="1471.43,-166.44 1479.4,-159.45 1468.81,-159.95 1471.43,-166.44"/>
</g>
<!-- src/PaymentProcessor.ts&#45;&gt;src/base58.ts -->
<g id="edge79" class="edge">
<title>src/PaymentProcessor.ts&#45;&gt;src/base58.ts</title>
<path fill="none" stroke="#757575" d="M365.4,-615.06C378.73,-584.43 418.74,-501.98 479,-460.88 551.31,-411.57 589.98,-448.34 670,-412.88 687.58,-405.09 688.42,-396.67 706,-388.88 720.45,-382.48 736.76,-377.46 752.09,-373.61"/>
<polygon fill="#757575" stroke="#757575" points="753.08,-376.97 762,-371.24 751.46,-370.16 753.08,-376.97"/>
</g>
<!-- src/PaymentProcessor.ts&#45;&gt;src/beautifyBigInt.ts -->
<g id="edge80" class="edge">
<title>src/PaymentProcessor.ts&#45;&gt;src/beautifyBigInt.ts</title>
<path fill="none" stroke="#757575" d="M443.05,-636.81C586.6,-654.33 871.17,-690.24 915,-704.88 1023.87,-741.26 1078.32,-733.72 1141,-829.88 1189.74,-904.65 1143.26,-1147.26 1177,-1229.88 1228.22,-1355.33 1293.61,-1353.97 1370,-1465.88 1388.4,-1492.84 1384,-1505.78 1406,-1529.88 1426.5,-1552.34 1455.38,-1571.47 1477.35,-1584.2"/>
<polygon fill="#757575" stroke="#757575" points="1475.86,-1587.38 1486.29,-1589.25 1479.31,-1581.28 1475.86,-1587.38"/>
</g>
<!-- src/PaymentProcessor.ts&#45;&gt;src/parseBigInt.ts -->
<g id="edge81" class="edge">
<title>src/PaymentProcessor.ts&#45;&gt;src/parseBigInt.ts</title>
<path fill="none" stroke="#757575" d="M394.85,-615.29C512.58,-577.87 905.49,-472.52 1141,-645.88 1291.88,-756.96 1468.77,-1365.34 1503.08,-1487.51"/>
<polygon fill="#757575" stroke="#757575" points="1499.73,-1488.53 1505.79,-1497.22 1506.47,-1486.65 1499.73,-1488.53"/>
</g>
<!-- src/PaymentProcessor.ts&#45;&gt;src/publicKeyFromPrivateKey.ts -->
<g id="edge82" class="edge">
<title>src/PaymentProcessor.ts&#45;&gt;src/publicKeyFromPrivateKey.ts</title>
<path fill="none" stroke="#757575" d="M379.79,-615.24C402.9,-601.53 443.01,-578.54 479,-561.88 561.48,-523.72 590.82,-533.49 670,-488.88 687.66,-478.94 687.55,-469.28 706,-460.88 728.41,-450.69 1117.1,-381.81 1141,-375.88 1259.53,-346.51 1396.65,-302.41 1465.21,-279.65"/>
<polygon fill="#757575" stroke="#757575" points="1466.44,-282.93 1474.82,-276.45 1464.22,-276.29 1466.44,-282.93"/>
</g>
<!-- src/Peer.ts&#45;&gt;config/settings.json -->
<g id="edge83" class="edge">
<title>src/Peer.ts&#45;&gt;config/settings.json</title>
<path fill="none" stroke="#757575" d="M614.93,-1355.68C632.39,-1351.58 652.81,-1345.5 670,-1336.88 688.12,-1327.8 687.25,-1316.59 706,-1308.88 843.45,-1252.43 1236.32,-1294.77 1370,-1229.88 1426.73,-1202.35 1473.97,-1142.16 1495.88,-1110.79"/>
<polygon fill="#757575" stroke="#757575" points="1498.86,-1112.63 1501.61,-1102.4 1493.08,-1108.68 1498.86,-1112.63"/>
</g>
<!-- src/Peer.ts&#45;&gt;src/Block.ts -->
<g id="edge84" class="edge">
<title>src/Peer.ts&#45;&gt;src/Block.ts</title>
<path fill="none" stroke="#757575" d="M614.72,-1366.2C677.95,-1371.58 806.31,-1382.65 915,-1392.88 940.57,-1395.29 968.96,-1398.11 992.67,-1400.51"/>
<polygon fill="#757575" stroke="#757575" points="992.56,-1404.02 1002.86,-1401.55 993.26,-1397.05 992.56,-1404.02"/>
</g>
<!-- src/Peer.ts&#45;&gt;src/protocol.ts -->
<g id="edge85" class="edge">
<title>src/Peer.ts&#45;&gt;src/protocol.ts</title>
<path fill="none" stroke="#757575" d="M614.88,-1358.96C633.14,-1355.51 654.23,-1349.04 670,-1336.88 695.24,-1317.43 680.55,-1294.05 706,-1274.88 718.69,-1265.33 734.48,-1259.26 749.88,-1255.41"/>
<polygon fill="#757575" stroke="#757575" points="750.9,-1258.77 759.91,-1253.19 749.39,-1251.94 750.9,-1258.77"/>
</g>
<!-- src/TCPApi.ts&#45;&gt;config/default_env.json -->
<g id="edge86" class="edge">
<title>src/TCPApi.ts&#45;&gt;config/default_env.json</title>
<path fill="none" stroke="#757575" d="M623.54,-825.65C702.32,-830.18 860.04,-839.25 958.61,-844.92"/>
<polygon fill="#757575" stroke="#757575" points="958.67,-848.43 968.85,-845.51 959.07,-841.44 958.67,-848.43"/>
</g>
<!-- src/TCPApi.ts&#45;&gt;config/settings.json -->
<g id="edge87" class="edge">
<title>src/TCPApi.ts&#45;&gt;config/settings.json</title>
<path fill="none" stroke="#757575" d="M623.62,-814.03C723.21,-797.71 957.93,-769.77 1141,-829.88 1295.34,-880.57 1441.14,-1020.44 1490.94,-1071.72"/>
<polygon fill="#757575" stroke="#757575" points="1488.64,-1074.38 1498.09,-1079.16 1493.68,-1069.53 1488.64,-1074.38"/>
</g>
<!-- src/TCPApi.ts&#45;&gt;src/protocol.ts -->
<g id="edge89" class="edge">
<title>src/TCPApi.ts&#45;&gt;src/protocol.ts</title>
<path fill="none" stroke="#757575" d="M579.07,-834.42C597.44,-893.49 681.31,-1160.4 706,-1189.88 722.12,-1209.14 746.23,-1223.4 767.12,-1233.07"/>
<polygon fill="#757575" stroke="#757575" points="765.9,-1236.36 776.46,-1237.2 768.73,-1229.95 765.9,-1236.36"/>
</g>
<!-- src/TCPApi.ts&#45;&gt;src/log.ts -->
<g id="edge88" class="edge">
<title>src/TCPApi.ts&#45;&gt;src/log.ts</title>
<path fill="none" stroke="#757575" d="M598.24,-834.42C618.82,-845.7 649.05,-864.43 670,-886.88 691.74,-910.18 680.55,-929.72 706,-948.88 722.89,-961.6 745.28,-968.15 764.92,-971.5"/>
<polygon fill="#757575" stroke="#757575" points="764.49,-974.97 774.9,-972.97 765.52,-968.05 764.49,-974.97"/>
</g>
<!-- src/TCPNode.ts&#45;&gt;config/default_env.json -->
<g id="edge90" class="edge">
<title>src/TCPNode.ts&#45;&gt;config/default_env.json</title>
<path fill="none" stroke="#757575" d="M398.71,-1098.32C421.82,-1091.56 451.95,-1083.15 479,-1076.88 671.01,-1032.4 743.33,-1092.7 915,-995.88 969.62,-965.08 1013.11,-902.69 1033.09,-870.35"/>
<polygon fill="#757575" stroke="#757575" points="1036.13,-872.08 1038.31,-861.71 1030.14,-868.47 1036.13,-872.08"/>
</g>
<!-- src/TCPNode.ts&#45;&gt;config/settings.json -->
<g id="edge91" class="edge">
<title>src/TCPNode.ts&#45;&gt;config/settings.json</title>
<path fill="none" stroke="#757575" d="M415.77,-1106.04C500.47,-1100.49 667.5,-1090.88 809.5,-1090.88 809.5,-1090.88 809.5,-1090.88 1047,-1090.88 1183.51,-1090.88 1342.7,-1090.88 1434.09,-1090.88"/>
<polygon fill="#757575" stroke="#757575" points="1434.35,-1094.38 1444.35,-1090.88 1434.35,-1087.38 1434.35,-1094.38"/>
</g>
<!-- src/TCPNode.ts&#45;&gt;src/Peer.ts -->
<g id="edge92" class="edge">
<title>src/TCPNode.ts&#45;&gt;src/Peer.ts</title>
<path fill="none" stroke="#757575" d="M370.21,-1121.41C403.75,-1161.26 515.03,-1293.43 557.15,-1343.46"/>
<polygon fill="#757575" stroke="#757575" points="554.62,-1345.89 563.74,-1351.29 559.97,-1341.38 554.62,-1345.89"/>
</g>
<!-- src/TCPNode.ts&#45;&gt;src/protocol.ts -->
<g id="edge95" class="edge">
<title>src/TCPNode.ts&#45;&gt;src/protocol.ts</title>
<path fill="none" stroke="#757575" d="M415.57,-1120.55C478.12,-1133.36 582.81,-1156.92 670,-1186.88 707.89,-1199.91 749.68,-1219.17 777.55,-1232.76"/>
<polygon fill="#757575" stroke="#757575" points="776.28,-1236.04 786.79,-1237.31 779.37,-1229.76 776.28,-1236.04"/>
</g>
<!-- src/TCPNode.ts&#45;&gt;src/log.ts -->
<g id="edge93" class="edge">
<title>src/TCPNode.ts&#45;&gt;src/log.ts</title>
<path fill="none" stroke="#757575" d="M368.7,-1098.34C386,-1075.04 428.78,-1022.78 479,-1000.88 574.15,-959.4 699.27,-963.47 764.9,-969.49"/>
<polygon fill="#757575" stroke="#757575" points="764.62,-972.98 774.91,-970.46 765.3,-966.01 764.62,-972.98"/>
</g>
<!-- src/TCPNode.ts&#45;&gt;src/mongoose/model/node.ts -->
<g id="edge94" class="edge">
<title>src/TCPNode.ts&#45;&gt;src/mongoose/model/node.ts</title>
<path fill="none" stroke="#757575" d="M385.77,-1121.39C423.78,-1138.7 495.77,-1171.49 538.71,-1191.04"/>
<polygon fill="#757575" stroke="#757575" points="537.38,-1194.28 547.93,-1195.24 540.28,-1187.91 537.38,-1194.28"/>
</g>
<!-- src/Transaction.ts&#45;&gt;config/mongoose.json -->
<g id="edge96" class="edge">
<title>src/Transaction.ts&#45;&gt;config/mongoose.json</title>
<path fill="none" stroke="#757575" d="M1335.15,-1203.72C1458.24,-1196.84 1738.37,-1200.18 1888,-1353.88 1960.07,-1427.91 1989.4,-1767.69 1996,-1857.86"/>
<polygon fill="#757575" stroke="#757575" points="1992.52,-1858.3 1996.72,-1868.02 1999.5,-1857.8 1992.52,-1858.3"/>
</g>
<!-- src/Transaction.ts&#45;&gt;config/settings.json -->
<g id="edge97" class="edge">
<title>src/Transaction.ts&#45;&gt;config/settings.json</title>
<path fill="none" stroke="#757575" d="M1297.41,-1197.36C1339.44,-1176.21 1428.94,-1131.17 1476.97,-1107"/>
<polygon fill="#757575" stroke="#757575" points="1478.64,-1110.08 1486,-1102.46 1475.49,-1103.83 1478.64,-1110.08"/>
</g>
<!-- src/Transaction.ts&#45;&gt;src/addressFromPublicKey.ts -->
<g id="edge98" class="edge">
<title>src/Transaction.ts&#45;&gt;src/addressFromPublicKey.ts</title>
<path fill="none" stroke="#757575" d="M1275.01,-1197.29C1279.47,-1100.22 1313.64,-422.17 1406,-243.88 1423.43,-210.25 1457.5,-182.16 1481.68,-165.22"/>
<polygon fill="#757575" stroke="#757575" points="1483.79,-168.02 1490.09,-159.5 1479.85,-162.23 1483.79,-168.02"/>
</g>
<!-- src/Transaction.ts&#45;&gt;src/beautifyBigInt.ts -->
<g id="edge99" class="edge">
<title>src/Transaction.ts&#45;&gt;src/beautifyBigInt.ts</title>
<path fill="none" stroke="#757575" d="M1279.94,-1220.75C1294.96,-1253.67 1338.02,-1349.04 1370,-1429.88 1387.38,-1473.81 1377.17,-1492.46 1406,-1529.88 1424.29,-1553.63 1452.79,-1572.4 1475.18,-1584.67"/>
<polygon fill="#757575" stroke="#757575" points="1473.56,-1587.77 1484.04,-1589.36 1476.84,-1581.59 1473.56,-1587.77"/>
</g>
<!-- src/Transaction.ts&#45;&gt;src/parseBigInt.ts -->
<g id="edge100" class="edge">
<title>src/Transaction.ts&#45;&gt;src/parseBigInt.ts</title>
<path fill="none" stroke="#757575" d="M1283.69,-1220.64C1319.37,-1266.29 1448.93,-1432.03 1493.67,-1489.28"/>
<polygon fill="#757575" stroke="#757575" points="1490.95,-1491.48 1499.87,-1497.21 1496.47,-1487.17 1490.95,-1491.48"/>
</g>
<!-- src/Transaction.ts&#45;&gt;src/publicKeyFromPrivateKey.ts -->
<g id="edge101" class="edge">
<title>src/Transaction.ts&#45;&gt;src/publicKeyFromPrivateKey.ts</title>
<path fill="none" stroke="#757575" d="M1277.38,-1197.29C1301.59,-1099.82 1471.07,-417.56 1503.61,-286.6"/>
<polygon fill="#757575" stroke="#757575" points="1507.08,-287.13 1506.1,-276.58 1500.29,-285.44 1507.08,-287.13"/>
</g>
<!-- src/Wallet.ts&#45;&gt;src/Address.ts -->
<g id="edge102" class="edge">
<title>src/Wallet.ts&#45;&gt;src/Address.ts</title>
<path fill="none" stroke="#757575" d="M207.19,-159.4C237.12,-168.79 279.57,-182.11 311.9,-192.26"/>
<polygon fill="#757575" stroke="#757575" points="310.99,-195.64 321.58,-195.3 313.08,-188.96 310.99,-195.64"/>
</g>
<!-- src/Wallet.ts&#45;&gt;src/Transaction.ts -->
<g id="edge103" class="edge">
<title>src/Wallet.ts&#45;&gt;src/Transaction.ts</title>
<path fill="none" stroke="#757575" d="M214.56,-148.6C337.36,-152.7 689.21,-178.86 915,-341.88 1215.22,-558.66 1264.17,-1074.59 1271.35,-1187.01"/>
<polygon fill="#757575" stroke="#757575" points="1267.87,-1187.36 1271.96,-1197.14 1274.86,-1186.95 1267.87,-1187.36"/>
</g>
<!-- src/Wallet.ts&#45;&gt;src/addressFromPublicKey.ts -->
<g id="edge104" class="edge">
<title>src/Wallet.ts&#45;&gt;src/addressFromPublicKey.ts</title>
<path fill="none" stroke="#757575" d="M200.96,-136.37C221.79,-129 250.19,-119.9 276,-114.88 406.22,-89.59 440.85,-90.88 573.5,-90.88 573.5,-90.88 573.5,-90.88 1047,-90.88 1190.95,-90.88 1227.74,-92.86 1370,-114.88 1399.56,-119.46 1432.11,-127.05 1458.28,-133.8"/>
<polygon fill="#757575" stroke="#757575" points="1457.42,-137.19 1467.98,-136.33 1459.19,-130.42 1457.42,-137.19"/>
</g>
<!-- src/Wallet.ts&#45;&gt;src/keygen.ts -->
<g id="edge105" class="edge">
<title>src/Wallet.ts&#45;&gt;src/keygen.ts</title>
<path fill="none" stroke="#757575" d="M184.71,-136.36C204.25,-120.98 240.99,-93.74 276,-76.88 284.74,-72.68 294.31,-68.94 303.75,-65.7"/>
<polygon fill="#757575" stroke="#757575" points="305.09,-68.95 313.5,-62.5 302.91,-62.29 305.09,-68.95"/>
</g>
<!-- src/Wallet.ts&#45;&gt;src/publicKeyFromPrivateKey.ts -->
<g id="edge106" class="edge">
<title>src/Wallet.ts&#45;&gt;src/publicKeyFromPrivateKey.ts</title>
<path fill="none" stroke="#757575" d="M214.6,-144.44C288.69,-138.97 442.87,-128.88 573.5,-128.88 573.5,-128.88 573.5,-128.88 1047,-128.88 1215.04,-128.88 1403.98,-212.7 1477.43,-248.74"/>
<polygon fill="#757575" stroke="#757575" points="1476.1,-251.98 1486.62,-253.29 1479.21,-245.71 1476.1,-251.98"/>
</g>
<!-- src/beautifyBigInt.ts&#45;&gt;config/core.json -->
<g id="edge107" class="edge">
<title>src/beautifyBigInt.ts&#45;&gt;config/core.json</title>
<path fill="none" stroke="#757575" d="M1577.18,-1600.88C1615.96,-1600.88 1664.72,-1600.88 1703.24,-1600.88"/>
<polygon fill="#757575" stroke="#757575" points="1703.31,-1604.38 1713.31,-1600.88 1703.31,-1597.38 1703.31,-1604.38"/>
</g>
<!-- src/isValidAddress.ts&#45;&gt;src/base58.ts -->
<g id="edge108" class="edge">
<title>src/isValidAddress.ts&#45;&gt;src/base58.ts</title>
<path fill="none" stroke="#757575" d="M240.1,-362.88C366.95,-362.88 633.53,-362.88 751.37,-362.88"/>
<polygon fill="#757575" stroke="#757575" points="751.63,-366.38 761.63,-362.88 751.63,-359.38 751.63,-366.38"/>
</g>
<!-- src/parseBigInt.ts&#45;&gt;config/core.json -->
<g id="edge117" class="edge">
<title>src/parseBigInt.ts&#45;&gt;config/core.json</title>
<path fill="none" stroke="#757575" d="M1543.29,-1520.44C1589.64,-1537.04 1675.08,-1567.62 1726.2,-1585.92"/>
<polygon fill="#757575" stroke="#757575" points="1725.05,-1589.23 1735.64,-1589.3 1727.41,-1582.63 1725.05,-1589.23"/>
</g>
<!-- src/protocol.ts&#45;&gt;src/Block.ts -->
<g id="edge118" class="edge">
<title>src/protocol.ts&#45;&gt;src/Block.ts</title>
<path fill="none" stroke="#757575" d="M833.35,-1260.59C854.6,-1272.19 887.61,-1290.81 915,-1308.88 954.07,-1334.66 997.21,-1367.85 1022.66,-1387.97"/>
<polygon fill="#757575" stroke="#757575" points="1020.57,-1390.78 1030.58,-1394.26 1024.93,-1385.3 1020.57,-1390.78"/>
</g>
<!-- src/protocol.ts&#45;&gt;src/Transaction.ts -->
<g id="edge119" class="edge">
<title>src/protocol.ts&#45;&gt;src/Transaction.ts</title>
<path fill="none" stroke="#757575" d="M861.22,-1245.39C925.76,-1240.75 1041.87,-1232.07 1141,-1222.88 1160.76,-1221.05 1182.17,-1218.86 1201.86,-1216.76"/>
<polygon fill="#757575" stroke="#757575" points="1202.41,-1220.23 1211.98,-1215.68 1201.66,-1213.27 1202.41,-1220.23"/>
</g>
<!-- src/walletPassphraseHash.ts&#45;&gt;config/settings.json -->
<g id="edge120" class="edge">
<title>src/walletPassphraseHash.ts&#45;&gt;config/settings.json</title>
<path fill="none" stroke="#757575" d="M1088.11,-328.42C1170.73,-351.94 1350.71,-405.09 1370,-426.88 1458.02,-526.35 1498.84,-965.96 1507.3,-1069.15"/>
<polygon fill="#757575" stroke="#757575" points="1503.83,-1069.61 1508.12,-1079.3 1510.81,-1069.05 1503.83,-1069.61"/>
</g>
<!-- src/mongoose/schema/block.ts -->
<g id="node35" class="node">
<title>src/mongoose/schema/block.ts</title>
<path fill="none" stroke="#c6c5fe" d="M1603.83,-1914.38C1603.83,-1914.38 1416.17,-1914.38 1416.17,-1914.38 1412.33,-1914.38 1408.5,-1910.55 1408.5,-1906.72 1408.5,-1906.72 1408.5,-1899.05 1408.5,-1899.05 1408.5,-1895.22 1412.33,-1891.38 1416.17,-1891.38 1416.17,-1891.38 1603.83,-1891.38 1603.83,-1891.38 1607.67,-1891.38 1611.5,-1895.22 1611.5,-1899.05 1611.5,-1899.05 1611.5,-1906.72 1611.5,-1906.72 1611.5,-1910.55 1607.67,-1914.38 1603.83,-1914.38"/>
<text text-anchor="middle" x="1510" y="-1899.18" font-family="Arial" font-size="14.00" fill="#c6c5fe">src/mongoose/schema/block.ts</text>
</g>
<!-- src/mongoose/model/block.ts&#45;&gt;src/mongoose/schema/block.ts -->
<g id="edge111" class="edge">
<title>src/mongoose/model/block.ts&#45;&gt;src/mongoose/schema/block.ts</title>
<path fill="none" stroke="#757575" d="M1350.46,-1717.44C1357.33,-1719.99 1363.96,-1723.1 1370,-1726.88 1433.01,-1766.34 1479.35,-1844.84 1498.84,-1882.2"/>
<polygon fill="#757575" stroke="#757575" points="1495.75,-1883.85 1503.41,-1891.17 1501.99,-1880.68 1495.75,-1883.85"/>
</g>
<!-- src/log.ts&#45;&gt;config/default_env.json -->
<g id="edge109" class="edge">
<title>src/log.ts&#45;&gt;config/default_env.json</title>
<path fill="none" stroke="#757575" d="M833.05,-963.35C874.75,-941.02 966.6,-891.86 1014.53,-866.2"/>
<polygon fill="#757575" stroke="#757575" points="1016.34,-869.2 1023.5,-861.39 1013.04,-863.03 1016.34,-869.2"/>
</g>
<!-- src/mongoose/schema/address.ts -->
<g id="node34" class="node">
<title>src/mongoose/schema/address.ts</title>
<path fill="none" stroke="#c6c5fe" d="M1871.33,-1952.38C1871.33,-1952.38 1666.67,-1952.38 1666.67,-1952.38 1662.83,-1952.38 1659,-1948.55 1659,-1944.72 1659,-1944.72 1659,-1937.05 1659,-1937.05 1659,-1933.22 1662.83,-1929.38 1666.67,-1929.38 1666.67,-1929.38 1871.33,-1929.38 1871.33,-1929.38 1875.17,-1929.38 1879,-1933.22 1879,-1937.05 1879,-1937.05 1879,-1944.72 1879,-1944.72 1879,-1948.55 1875.17,-1952.38 1871.33,-1952.38"/>
<text text-anchor="middle" x="1769" y="-1937.18" font-family="Arial" font-size="14.00" fill="#c6c5fe">src/mongoose/schema/address.ts</text>
</g>
<!-- src/mongoose/model/address.ts&#45;&gt;src/mongoose/schema/address.ts -->
<g id="edge110" class="edge">
<title>src/mongoose/model/address.ts&#45;&gt;src/mongoose/schema/address.ts</title>
<path fill="none" stroke="#757575" d="M915.23,-1940.88C1094.02,-1940.88 1459.23,-1940.88 1648.43,-1940.88"/>
<polygon fill="#757575" stroke="#757575" points="1648.69,-1944.38 1658.69,-1940.88 1648.69,-1937.38 1648.69,-1944.38"/>
</g>
<!-- src/mongoose/schema/node.ts -->
<g id="node36" class="node">
<title>src/mongoose/schema/node.ts</title>
<path fill="none" stroke="#cfffac" d="M903.83,-1180.38C903.83,-1180.38 717.17,-1180.38 717.17,-1180.38 713.33,-1180.38 709.5,-1176.55 709.5,-1172.72 709.5,-1172.72 709.5,-1165.05 709.5,-1165.05 709.5,-1161.22 713.33,-1157.38 717.17,-1157.38 717.17,-1157.38 903.83,-1157.38 903.83,-1157.38 907.67,-1157.38 911.5,-1161.22 911.5,-1165.05 911.5,-1165.05 911.5,-1172.72 911.5,-1172.72 911.5,-1176.55 907.67,-1180.38 903.83,-1180.38"/>
<text text-anchor="middle" x="810.5" y="-1165.18" font-family="Arial" font-size="14.00" fill="#cfffac">src/mongoose/schema/node.ts</text>
</g>
<!-- src/mongoose/model/node.ts&#45;&gt;src/mongoose/schema/node.ts -->
<g id="edge112" class="edge">
<title>src/mongoose/model/node.ts&#45;&gt;src/mongoose/schema/node.ts</title>
<path fill="none" stroke="#757575" d="M646.34,-1195.38C672.23,-1191.18 701.7,-1186.39 728.41,-1182.05"/>
<polygon fill="#757575" stroke="#757575" points="729.18,-1185.47 738.49,-1180.42 728.06,-1178.56 729.18,-1185.47"/>
</g>
<!-- src/mongoose/schema/address.ts&#45;&gt;config/mongoose.json -->
<g id="edge113" class="edge">
<title>src/mongoose/schema/address.ts&#45;&gt;config/mongoose.json</title>
<path fill="none" stroke="#757575" d="M1850.42,-1929.37C1863.08,-1926.95 1875.96,-1924.13 1888,-1920.88 1913.04,-1914.14 1940.36,-1903.91 1961.45,-1895.36"/>
<polygon fill="#757575" stroke="#757575" points="1963.05,-1898.49 1970.97,-1891.45 1960.39,-1892.02 1963.05,-1898.49"/>
</g>
<!-- src/mongoose/schema/block.ts&#45;&gt;config/mongoose.json -->
<g id="edge114" class="edge">
<title>src/mongoose/schema/block.ts&#45;&gt;config/mongoose.json</title>
<path fill="none" stroke="#757575" d="M1567.55,-1891.37C1592.68,-1886.81 1622.7,-1882.13 1650,-1879.88 1739.83,-1872.5 1843.17,-1873.74 1913.65,-1876.04"/>
<polygon fill="#757575" stroke="#757575" points="1913.69,-1879.55 1923.8,-1876.39 1913.93,-1872.55 1913.69,-1879.55"/>
</g>
<!-- src/mongoose/schema/transaction.ts -->
<g id="node37" class="node">
<title>src/mongoose/schema/transaction.ts</title>
<path fill="none" stroke="#c6c5fe" d="M1880.33,-1911.38C1880.33,-1911.38 1657.67,-1911.38 1657.67,-1911.38 1653.83,-1911.38 1650,-1907.55 1650,-1903.72 1650,-1903.72 1650,-1896.05 1650,-1896.05 1650,-1892.22 1653.83,-1888.38 1657.67,-1888.38 1657.67,-1888.38 1880.33,-1888.38 1880.33,-1888.38 1884.17,-1888.38 1888,-1892.22 1888,-1896.05 1888,-1896.05 1888,-1903.72 1888,-1903.72 1888,-1907.55 1884.17,-1911.38 1880.33,-1911.38"/>
<text text-anchor="middle" x="1769" y="-1896.18" font-family="Arial" font-size="14.00" fill="#c6c5fe">src/mongoose/schema/transaction.ts</text>
</g>
<!-- src/mongoose/schema/block.ts&#45;&gt;src/mongoose/schema/transaction.ts -->
<g id="edge115" class="edge">
<title>src/mongoose/schema/block.ts&#45;&gt;src/mongoose/schema/transaction.ts</title>
<path fill="none" stroke="#757575" d="M1611.84,-1901.71C1621.03,-1901.6 1630.42,-1901.49 1639.8,-1901.38"/>
<polygon fill="#757575" stroke="#757575" points="1640.02,-1904.88 1649.98,-1901.26 1639.94,-1897.88 1640.02,-1904.88"/>
</g>
<!-- src/mongoose/schema/transaction.ts&#45;&gt;config/mongoose.json -->
<g id="edge116" class="edge">
<title>src/mongoose/schema/transaction.ts&#45;&gt;config/mongoose.json</title>
<path fill="none" stroke="#757575" d="M1888.08,-1889.5C1896.77,-1888.74 1905.43,-1887.98 1913.85,-1887.24"/>
<polygon fill="#757575" stroke="#757575" points="1914.34,-1890.71 1923.99,-1886.35 1913.72,-1883.74 1914.34,-1890.71"/>
</g>
</g>
</svg>
