<?xml version="1.0" encoding="UTF-8" standalone="no"?>
<!DOCTYPE svg PUBLIC "-//W3C//DTD SVG 1.1//EN"
 "http://www.w3.org/Graphics/SVG/1.1/DTD/svg11.dtd">
<!-- Generated by graphviz version 2.48.0 (0)
 -->
<!-- Title: G Pages: 1 -->
<svg width="1743pt" height="968pt"
 viewBox="0.00 0.00 1743.20 968.23" xmlns="http://www.w3.org/2000/svg" xmlns:xlink="http://www.w3.org/1999/xlink">
<g id="graph0" class="graph" transform="scale(1 1) rotate(0) translate(21.6 946.63)">
<title>G</title>
<polygon fill="#111111" stroke="transparent" points="-21.6,21.6 -21.6,-946.63 1721.6,-946.63 1721.6,21.6 -21.6,21.6"/>
<!-- config/core.json -->
<g id="node1" class="node">
<title>config/core.json</title>
<path fill="none" stroke="#cfffac" d="M1443.83,-721.79C1443.83,-721.79 1348.17,-721.79 1348.17,-721.79 1344.33,-721.79 1340.5,-717.96 1340.5,-714.12 1340.5,-714.12 1340.5,-706.46 1340.5,-706.46 1340.5,-702.62 1344.33,-698.79 1348.17,-698.79 1348.17,-698.79 1443.83,-698.79 1443.83,-698.79 1447.67,-698.79 1451.5,-702.62 1451.5,-706.46 1451.5,-706.46 1451.5,-714.12 1451.5,-714.12 1451.5,-717.96 1447.67,-721.79 1443.83,-721.79"/>
<text text-anchor="middle" x="1396" y="-706.59" font-family="Arial" font-size="14.00" fill="#cfffac">config/core.json</text>
</g>
<!-- config/default_env.json -->
<g id="node2" class="node">
<title>config/default_env.json</title>
<path fill="none" stroke="#cfffac" d="M969.83,-168.79C969.83,-168.79 831.17,-168.79 831.17,-168.79 827.33,-168.79 823.5,-164.96 823.5,-161.12 823.5,-161.12 823.5,-153.46 823.5,-153.46 823.5,-149.62 827.33,-145.79 831.17,-145.79 831.17,-145.79 969.83,-145.79 969.83,-145.79 973.67,-145.79 977.5,-149.62 977.5,-153.46 977.5,-153.46 977.5,-161.12 977.5,-161.12 977.5,-164.96 973.67,-168.79 969.83,-168.79"/>
<text text-anchor="middle" x="900.5" y="-153.59" font-family="Arial" font-size="14.00" fill="#cfffac">config/default_env.json</text>
</g>
<!-- config/mongoose.json -->
<g id="node3" class="node">
<title>config/mongoose.json</title>
<path fill="none" stroke="#cfffac" d="M1692.33,-808.79C1692.33,-808.79 1558.67,-808.79 1558.67,-808.79 1554.83,-808.79 1551,-804.96 1551,-801.12 1551,-801.12 1551,-793.46 1551,-793.46 1551,-789.62 1554.83,-785.79 1558.67,-785.79 1558.67,-785.79 1692.33,-785.79 1692.33,-785.79 1696.17,-785.79 1700,-789.62 1700,-793.46 1700,-793.46 1700,-801.12 1700,-801.12 1700,-804.96 1696.17,-808.79 1692.33,-808.79"/>
<text text-anchor="middle" x="1625.5" y="-793.59" font-family="Arial" font-size="14.00" fill="#cfffac">config/mongoose.json</text>
</g>
<!-- config/settings.json -->
<g id="node4" class="node">
<title>config/settings.json</title>
<path fill="none" stroke="#cfffac" d="M1194.83,-383.79C1194.83,-383.79 1079.17,-383.79 1079.17,-383.79 1075.33,-383.79 1071.5,-379.96 1071.5,-376.12 1071.5,-376.12 1071.5,-368.46 1071.5,-368.46 1071.5,-364.62 1075.33,-360.79 1079.17,-360.79 1079.17,-360.79 1194.83,-360.79 1194.83,-360.79 1198.67,-360.79 1202.5,-364.62 1202.5,-368.46 1202.5,-368.46 1202.5,-376.12 1202.5,-376.12 1202.5,-379.96 1198.67,-383.79 1194.83,-383.79"/>
<text text-anchor="middle" x="1137" y="-368.59" font-family="Arial" font-size="14.00" fill="#cfffac">config/settings.json</text>
</g>
<!-- miner.ts -->
<g id="node5" class="node">
<title>miner.ts</title>
<path fill="none" stroke="#c6c5fe" d="M57.33,-116.79C57.33,-116.79 7.67,-116.79 7.67,-116.79 3.83,-116.79 0,-112.96 0,-109.12 0,-109.12 0,-101.46 0,-101.46 0,-97.62 3.83,-93.79 7.67,-93.79 7.67,-93.79 57.33,-93.79 57.33,-93.79 61.17,-93.79 65,-97.62 65,-101.46 65,-101.46 65,-109.12 65,-109.12 65,-112.96 61.17,-116.79 57.33,-116.79"/>
<text text-anchor="middle" x="32.5" y="-101.59" font-family="Arial" font-size="14.00" fill="#c6c5fe">miner.ts</text>
</g>
<!-- miner.ts&#45;&gt;config/default_env.json -->
<g id="edge1" class="edge">
<title>miner.ts&#45;&gt;config/default_env.json</title>
<path fill="none" stroke="#757575" d="M39.48,-93.54C49.46,-75.33 71.37,-40.79 101,-25.29 180.91,16.5 212.83,-6.29 303,-6.29 303,-6.29 303,-6.29 465,-6.29 627.08,-6.29 805.26,-101.2 872.14,-140.53"/>
<polygon fill="#757575" stroke="#757575" points="870.44,-143.59 880.83,-145.69 874.02,-137.57 870.44,-143.59"/>
</g>
<!-- src/Address.ts -->
<g id="node6" class="node">
<title>src/Address.ts</title>
<path fill="none" stroke="#cfffac" d="M195.33,-57.79C195.33,-57.79 108.67,-57.79 108.67,-57.79 104.83,-57.79 101,-53.96 101,-50.12 101,-50.12 101,-42.46 101,-42.46 101,-38.62 104.83,-34.79 108.67,-34.79 108.67,-34.79 195.33,-34.79 195.33,-34.79 199.17,-34.79 203,-38.62 203,-42.46 203,-42.46 203,-50.12 203,-50.12 203,-53.96 199.17,-57.79 195.33,-57.79"/>
<text text-anchor="middle" x="152" y="-42.59" font-family="Arial" font-size="14.00" fill="#cfffac">src/Address.ts</text>
</g>
<!-- miner.ts&#45;&gt;src/Address.ts -->
<g id="edge2" class="edge">
<title>miner.ts&#45;&gt;src/Address.ts</title>
<path fill="none" stroke="#757575" d="M56.43,-93.77C74.19,-84.86 99.01,-72.4 118.77,-62.48"/>
<polygon fill="#757575" stroke="#757575" points="120.36,-65.59 127.72,-57.98 117.21,-59.34 120.36,-65.59"/>
</g>
<!-- src/Miner.ts -->
<g id="node7" class="node">
<title>src/Miner.ts</title>
<path fill="none" stroke="#c6c5fe" d="M187.33,-287.79C187.33,-287.79 116.67,-287.79 116.67,-287.79 112.83,-287.79 109,-283.96 109,-280.12 109,-280.12 109,-272.46 109,-272.46 109,-268.62 112.83,-264.79 116.67,-264.79 116.67,-264.79 187.33,-264.79 187.33,-264.79 191.17,-264.79 195,-268.62 195,-272.46 195,-272.46 195,-280.12 195,-280.12 195,-283.96 191.17,-287.79 187.33,-287.79"/>
<text text-anchor="middle" x="152" y="-272.59" font-family="Arial" font-size="14.00" fill="#c6c5fe">src/Miner.ts</text>
</g>
<!-- miner.ts&#45;&gt;src/Miner.ts -->
<g id="edge3" class="edge">
<title>miner.ts&#45;&gt;src/Miner.ts</title>
<path fill="none" stroke="#757575" d="M41.58,-117.04C61.36,-145.84 112.45,-220.19 137.18,-256.18"/>
<polygon fill="#757575" stroke="#757575" points="134.32,-258.19 142.87,-264.45 140.09,-254.23 134.32,-258.19"/>
</g>
<!-- src/MinerThread.ts -->
<g id="node8" class="node">
<title>src/MinerThread.ts</title>
<path fill="none" stroke="#c6c5fe" d="M361.33,-562.79C361.33,-562.79 246.67,-562.79 246.67,-562.79 242.83,-562.79 239,-558.96 239,-555.12 239,-555.12 239,-547.46 239,-547.46 239,-543.62 242.83,-539.79 246.67,-539.79 246.67,-539.79 361.33,-539.79 361.33,-539.79 365.17,-539.79 369,-543.62 369,-547.46 369,-547.46 369,-555.12 369,-555.12 369,-558.96 365.17,-562.79 361.33,-562.79"/>
<text text-anchor="middle" x="304" y="-547.59" font-family="Arial" font-size="14.00" fill="#c6c5fe">src/MinerThread.ts</text>
</g>
<!-- miner.ts&#45;&gt;src/MinerThread.ts -->
<g id="edge4" class="edge">
<title>miner.ts&#45;&gt;src/MinerThread.ts</title>
<path fill="none" stroke="#757575" d="M36.68,-116.8C45.21,-147.02 70.07,-230.77 101,-296.29 151.72,-403.75 148.67,-448.09 239,-525.29 243.5,-529.13 248.64,-532.46 254.01,-535.33"/>
<polygon fill="#757575" stroke="#757575" points="252.65,-538.56 263.18,-539.73 255.68,-532.25 252.65,-538.56"/>
</g>
<!-- src/base58.ts -->
<g id="node9" class="node">
<title>src/base58.ts</title>
<path fill="none" stroke="#cfffac" d="M704.33,-208.79C704.33,-208.79 622.67,-208.79 622.67,-208.79 618.83,-208.79 615,-204.96 615,-201.12 615,-201.12 615,-193.46 615,-193.46 615,-189.62 618.83,-185.79 622.67,-185.79 622.67,-185.79 704.33,-185.79 704.33,-185.79 708.17,-185.79 712,-189.62 712,-193.46 712,-193.46 712,-201.12 712,-201.12 712,-204.96 708.17,-208.79 704.33,-208.79"/>
<text text-anchor="middle" x="663.5" y="-193.59" font-family="Arial" font-size="14.00" fill="#cfffac">src/base58.ts</text>
</g>
<!-- miner.ts&#45;&gt;src/base58.ts -->
<g id="edge5" class="edge">
<title>miner.ts&#45;&gt;src/base58.ts</title>
<path fill="none" stroke="#757575" d="M65.03,-99.75C144.14,-87.08 356.63,-60.76 523,-110.29 541.2,-115.71 542.93,-123.19 559,-133.29 584.55,-149.35 613.82,-167.42 634.69,-180.25"/>
<polygon fill="#757575" stroke="#757575" points="633.02,-183.33 643.37,-185.58 636.68,-177.36 633.02,-183.33"/>
</g>
<!-- src/log.ts -->
<g id="node10" class="node">
<title>src/log.ts</title>
<path fill="none" stroke="#c6c5fe" d="M691.33,-249.79C691.33,-249.79 635.67,-249.79 635.67,-249.79 631.83,-249.79 628,-245.96 628,-242.12 628,-242.12 628,-234.46 628,-234.46 628,-230.62 631.83,-226.79 635.67,-226.79 635.67,-226.79 691.33,-226.79 691.33,-226.79 695.17,-226.79 699,-230.62 699,-234.46 699,-234.46 699,-242.12 699,-242.12 699,-245.96 695.17,-249.79 691.33,-249.79"/>
<text text-anchor="middle" x="663.5" y="-234.59" font-family="Arial" font-size="14.00" fill="#c6c5fe">src/log.ts</text>
</g>
<!-- miner.ts&#45;&gt;src/log.ts -->
<g id="edge6" class="edge">
<title>miner.ts&#45;&gt;src/log.ts</title>
<path fill="none" stroke="#757575" d="M65.17,-112.15C146.88,-129.83 371.55,-178.3 559,-217.29 578.39,-221.32 599.84,-225.69 618.16,-229.39"/>
<polygon fill="#757575" stroke="#757575" points="617.49,-232.83 627.98,-231.37 618.87,-225.97 617.49,-232.83"/>
</g>
<!-- src/Miner.ts&#45;&gt;config/default_env.json -->
<g id="edge31" class="edge">
<title>src/Miner.ts&#45;&gt;config/default_env.json</title>
<path fill="none" stroke="#757575" d="M165.67,-264.76C181.61,-250.89 210.36,-227.92 239,-215.29 455.46,-119.85 531.43,-155.39 768,-156.29 782.56,-156.34 798.03,-156.43 813.05,-156.54"/>
<polygon fill="#757575" stroke="#757575" points="813.33,-160.04 823.36,-156.61 813.38,-153.04 813.33,-160.04"/>
</g>
<!-- src/Miner.ts&#45;&gt;config/settings.json -->
<g id="edge32" class="edge">
<title>src/Miner.ts&#45;&gt;config/settings.json</title>
<path fill="none" stroke="#757575" d="M191.77,-287.85C195.6,-289.25 199.4,-290.73 203,-292.29 219.8,-299.56 221.66,-306.44 239,-312.29 309.63,-336.12 330.8,-329.11 405,-336.29 644.13,-359.41 928.78,-368.02 1061.27,-370.94"/>
<polygon fill="#757575" stroke="#757575" points="1061.24,-374.44 1071.31,-371.15 1061.39,-367.44 1061.24,-374.44"/>
</g>
<!-- src/Miner.ts&#45;&gt;src/log.ts -->
<g id="edge36" class="edge">
<title>src/Miner.ts&#45;&gt;src/log.ts</title>
<path fill="none" stroke="#757575" d="M195.2,-273.79C263.92,-269.64 404.28,-260.83 523,-251.29 554.71,-248.74 590.43,-245.4 617.79,-242.75"/>
<polygon fill="#757575" stroke="#757575" points="618.23,-246.22 627.84,-241.77 617.54,-239.26 618.23,-246.22"/>
</g>
<!-- src/Block.ts -->
<g id="node11" class="node">
<title>src/Block.ts</title>
<path fill="none" stroke="#c6c5fe" d="M698.83,-562.79C698.83,-562.79 628.17,-562.79 628.17,-562.79 624.33,-562.79 620.5,-558.96 620.5,-555.12 620.5,-555.12 620.5,-547.46 620.5,-547.46 620.5,-543.62 624.33,-539.79 628.17,-539.79 628.17,-539.79 698.83,-539.79 698.83,-539.79 702.67,-539.79 706.5,-543.62 706.5,-547.46 706.5,-547.46 706.5,-555.12 706.5,-555.12 706.5,-558.96 702.67,-562.79 698.83,-562.79"/>
<text text-anchor="middle" x="663.5" y="-547.59" font-family="Arial" font-size="14.00" fill="#c6c5fe">src/Block.ts</text>
</g>
<!-- src/Miner.ts&#45;&gt;src/Block.ts -->
<g id="edge33" class="edge">
<title>src/Miner.ts&#45;&gt;src/Block.ts</title>
<path fill="none" stroke="#757575" d="M195.18,-286.28C198.03,-287.98 200.68,-289.96 203,-292.29 240.5,-329.93 204.6,-365.79 239,-406.29 334.07,-518.22 519.54,-543.91 610.15,-549.69"/>
<polygon fill="#757575" stroke="#757575" points="610.01,-553.19 620.19,-550.28 610.41,-546.2 610.01,-553.19"/>
</g>
<!-- src/HTTPApi.ts -->
<g id="node19" class="node">
<title>src/HTTPApi.ts</title>
<path fill="none" stroke="#c6c5fe" d="M509.83,-327.79C509.83,-327.79 418.17,-327.79 418.17,-327.79 414.33,-327.79 410.5,-323.96 410.5,-320.12 410.5,-320.12 410.5,-312.46 410.5,-312.46 410.5,-308.62 414.33,-304.79 418.17,-304.79 418.17,-304.79 509.83,-304.79 509.83,-304.79 513.67,-304.79 517.5,-308.62 517.5,-312.46 517.5,-312.46 517.5,-320.12 517.5,-320.12 517.5,-323.96 513.67,-327.79 509.83,-327.79"/>
<text text-anchor="middle" x="464" y="-312.59" font-family="Arial" font-size="14.00" fill="#c6c5fe">src/HTTPApi.ts</text>
</g>
<!-- src/Miner.ts&#45;&gt;src/HTTPApi.ts -->
<g id="edge34" class="edge">
<title>src/Miner.ts&#45;&gt;src/HTTPApi.ts</title>
<path fill="none" stroke="#757575" d="M195.37,-283.58C209.25,-285.87 224.77,-288.31 239,-290.29 293.32,-297.86 355.27,-304.93 400.23,-309.78"/>
<polygon fill="#757575" stroke="#757575" points="400.1,-313.29 410.41,-310.87 400.84,-306.33 400.1,-313.29"/>
</g>
<!-- src/TCPApi.ts -->
<g id="node20" class="node">
<title>src/TCPApi.ts</title>
<path fill="none" stroke="#c6c5fe" d="M345.33,-247.79C345.33,-247.79 262.67,-247.79 262.67,-247.79 258.83,-247.79 255,-243.96 255,-240.12 255,-240.12 255,-232.46 255,-232.46 255,-228.62 258.83,-224.79 262.67,-224.79 262.67,-224.79 345.33,-224.79 345.33,-224.79 349.17,-224.79 353,-228.62 353,-232.46 353,-232.46 353,-240.12 353,-240.12 353,-243.96 349.17,-247.79 345.33,-247.79"/>
<text text-anchor="middle" x="304" y="-232.59" font-family="Arial" font-size="14.00" fill="#c6c5fe">src/TCPApi.ts</text>
</g>
<!-- src/Miner.ts&#45;&gt;src/TCPApi.ts -->
<g id="edge35" class="edge">
<title>src/Miner.ts&#45;&gt;src/TCPApi.ts</title>
<path fill="none" stroke="#757575" d="M195.18,-265.04C212.22,-260.5 232.07,-255.2 250.06,-250.41"/>
<polygon fill="#757575" stroke="#757575" points="251.07,-253.76 259.83,-247.8 249.27,-247 251.07,-253.76"/>
</g>
<!-- src/MinerThread.ts&#45;&gt;src/Block.ts -->
<g id="edge37" class="edge">
<title>src/MinerThread.ts&#45;&gt;src/Block.ts</title>
<path fill="none" stroke="#757575" d="M369.33,-551.29C438.26,-551.29 546.36,-551.29 610.25,-551.29"/>
<polygon fill="#757575" stroke="#757575" points="610.49,-554.79 620.49,-551.29 610.49,-547.79 610.49,-554.79"/>
</g>
<!-- src/Blockchain.ts -->
<g id="node17" class="node">
<title>src/Blockchain.ts</title>
<path fill="none" stroke="#c6c5fe" d="M515.33,-638.79C515.33,-638.79 412.67,-638.79 412.67,-638.79 408.83,-638.79 405,-634.96 405,-631.12 405,-631.12 405,-623.46 405,-623.46 405,-619.62 408.83,-615.79 412.67,-615.79 412.67,-615.79 515.33,-615.79 515.33,-615.79 519.17,-615.79 523,-619.62 523,-623.46 523,-623.46 523,-631.12 523,-631.12 523,-634.96 519.17,-638.79 515.33,-638.79"/>
<text text-anchor="middle" x="464" y="-623.59" font-family="Arial" font-size="14.00" fill="#c6c5fe">src/Blockchain.ts</text>
</g>
<!-- src/MinerThread.ts&#45;&gt;src/Blockchain.ts -->
<g id="edge38" class="edge">
<title>src/MinerThread.ts&#45;&gt;src/Blockchain.ts</title>
<path fill="none" stroke="#757575" d="M329,-562.83C355.87,-575.76 399.61,-596.8 429.76,-611.3"/>
<polygon fill="#757575" stroke="#757575" points="428.51,-614.58 439.04,-615.76 431.54,-608.27 428.51,-614.58"/>
</g>
<!-- src/log.ts&#45;&gt;config/default_env.json -->
<g id="edge50" class="edge">
<title>src/log.ts&#45;&gt;config/default_env.json</title>
<path fill="none" stroke="#757575" d="M699.04,-233.31C719.4,-229.87 745.51,-224.6 768,-217.29 803.92,-205.62 843.06,-186.93 869.22,-173.51"/>
<polygon fill="#757575" stroke="#757575" points="870.97,-176.54 878.24,-168.83 867.75,-170.33 870.97,-176.54"/>
</g>
<!-- src/Block.ts&#45;&gt;config/core.json -->
<g id="edge7" class="edge">
<title>src/Block.ts&#45;&gt;config/core.json</title>
<path fill="none" stroke="#757575" d="M680.51,-562.79C705.72,-580.46 756.66,-614.42 804,-635.29 901.14,-678.13 928.09,-687 1033,-703.29 1135.87,-719.26 1257.13,-717.49 1329.95,-714.26"/>
<polygon fill="#757575" stroke="#757575" points="1330.5,-717.74 1340.33,-713.77 1330.18,-710.75 1330.5,-717.74"/>
</g>
<!-- src/Block.ts&#45;&gt;config/mongoose.json -->
<g id="edge8" class="edge">
<title>src/Block.ts&#45;&gt;config/mongoose.json</title>
<path fill="none" stroke="#757575" d="M706.74,-549.51C802.92,-546.43 1045.07,-544.16 1241,-588.29 1367.62,-616.81 1405.44,-619.71 1515,-689.29 1553.54,-713.77 1589.45,-753.73 1609.05,-777.57"/>
<polygon fill="#757575" stroke="#757575" points="1606.5,-779.99 1615.5,-785.57 1611.95,-775.59 1606.5,-779.99"/>
</g>
<!-- src/Block.ts&#45;&gt;config/settings.json -->
<g id="edge9" class="edge">
<title>src/Block.ts&#45;&gt;config/settings.json</title>
<path fill="none" stroke="#757575" d="M676.82,-539.47C699.84,-518.07 751.8,-472.93 804,-449.29 884.05,-413.03 911.42,-426.29 997,-406.29 1024.34,-399.9 1054.62,-392.53 1079.93,-386.28"/>
<polygon fill="#757575" stroke="#757575" points="1080.86,-389.66 1089.72,-383.86 1079.18,-382.87 1080.86,-389.66"/>
</g>
<!-- src/Transaction.ts -->
<g id="node12" class="node">
<title>src/Transaction.ts</title>
<path fill="none" stroke="#c6c5fe" d="M954.33,-481.79C954.33,-481.79 846.67,-481.79 846.67,-481.79 842.83,-481.79 839,-477.96 839,-474.12 839,-474.12 839,-466.46 839,-466.46 839,-462.62 842.83,-458.79 846.67,-458.79 846.67,-458.79 954.33,-458.79 954.33,-458.79 958.17,-458.79 962,-462.62 962,-466.46 962,-466.46 962,-474.12 962,-474.12 962,-477.96 958.17,-481.79 954.33,-481.79"/>
<text text-anchor="middle" x="900.5" y="-466.59" font-family="Arial" font-size="14.00" fill="#c6c5fe">src/Transaction.ts</text>
</g>
<!-- src/Block.ts&#45;&gt;src/Transaction.ts -->
<g id="edge10" class="edge">
<title>src/Block.ts&#45;&gt;src/Transaction.ts</title>
<path fill="none" stroke="#757575" d="M706.6,-545.26C726.14,-541.25 749.16,-534.73 768,-524.29 787.25,-513.62 784.5,-500.48 804,-490.29 811.8,-486.21 820.37,-482.97 829.07,-480.38"/>
<polygon fill="#757575" stroke="#757575" points="830.16,-483.71 838.91,-477.74 828.35,-476.95 830.16,-483.71"/>
</g>
<!-- src/beautifyBigInt.ts -->
<g id="node13" class="node">
<title>src/beautifyBigInt.ts</title>
<path fill="none" stroke="#c6c5fe" d="M1196.33,-694.79C1196.33,-694.79 1077.67,-694.79 1077.67,-694.79 1073.83,-694.79 1070,-690.96 1070,-687.12 1070,-687.12 1070,-679.46 1070,-679.46 1070,-675.62 1073.83,-671.79 1077.67,-671.79 1077.67,-671.79 1196.33,-671.79 1196.33,-671.79 1200.17,-671.79 1204,-675.62 1204,-679.46 1204,-679.46 1204,-687.12 1204,-687.12 1204,-690.96 1200.17,-694.79 1196.33,-694.79"/>
<text text-anchor="middle" x="1137" y="-679.59" font-family="Arial" font-size="14.00" fill="#c6c5fe">src/beautifyBigInt.ts</text>
</g>
<!-- src/Block.ts&#45;&gt;src/beautifyBigInt.ts -->
<g id="edge11" class="edge">
<title>src/Block.ts&#45;&gt;src/beautifyBigInt.ts</title>
<path fill="none" stroke="#757575" d="M699.62,-562.86C727.75,-572.01 768.27,-584.93 804,-595.29 900.42,-623.26 1013.61,-652.5 1079.81,-669.24"/>
<polygon fill="#757575" stroke="#757575" points="1079.07,-672.67 1089.62,-671.72 1080.78,-665.88 1079.07,-672.67"/>
</g>
<!-- src/mongoose/model/block.ts -->
<g id="node14" class="node">
<title>src/mongoose/model/block.ts</title>
<path fill="none" stroke="#c6c5fe" d="M989.33,-830.79C989.33,-830.79 811.67,-830.79 811.67,-830.79 807.83,-830.79 804,-826.96 804,-823.12 804,-823.12 804,-815.46 804,-815.46 804,-811.62 807.83,-807.79 811.67,-807.79 811.67,-807.79 989.33,-807.79 989.33,-807.79 993.17,-807.79 997,-811.62 997,-815.46 997,-815.46 997,-823.12 997,-823.12 997,-826.96 993.17,-830.79 989.33,-830.79"/>
<text text-anchor="middle" x="900.5" y="-815.59" font-family="Arial" font-size="14.00" fill="#c6c5fe">src/mongoose/model/block.ts</text>
</g>
<!-- src/Block.ts&#45;&gt;src/mongoose/model/block.ts -->
<g id="edge12" class="edge">
<title>src/Block.ts&#45;&gt;src/mongoose/model/block.ts</title>
<path fill="none" stroke="#757575" d="M670.44,-563.01C687.63,-596.15 740.3,-692.18 804,-755.29 823.09,-774.21 848.53,-790.93 868.35,-802.54"/>
<polygon fill="#757575" stroke="#757575" points="866.88,-805.73 877.29,-807.65 870.35,-799.65 866.88,-805.73"/>
</g>
<!-- src/parseBigInt.ts -->
<g id="node15" class="node">
<title>src/parseBigInt.ts</title>
<path fill="none" stroke="#c6c5fe" d="M1189.83,-620.79C1189.83,-620.79 1084.17,-620.79 1084.17,-620.79 1080.33,-620.79 1076.5,-616.96 1076.5,-613.12 1076.5,-613.12 1076.5,-605.46 1076.5,-605.46 1076.5,-601.62 1080.33,-597.79 1084.17,-597.79 1084.17,-597.79 1189.83,-597.79 1189.83,-597.79 1193.67,-597.79 1197.5,-601.62 1197.5,-605.46 1197.5,-605.46 1197.5,-613.12 1197.5,-613.12 1197.5,-616.96 1193.67,-620.79 1189.83,-620.79"/>
<text text-anchor="middle" x="1137" y="-605.59" font-family="Arial" font-size="14.00" fill="#c6c5fe">src/parseBigInt.ts</text>
</g>
<!-- src/Block.ts&#45;&gt;src/parseBigInt.ts -->
<g id="edge13" class="edge">
<title>src/Block.ts&#45;&gt;src/parseBigInt.ts</title>
<path fill="none" stroke="#757575" d="M706.76,-556.49C788.05,-566.49 966.93,-588.49 1066.19,-600.7"/>
<polygon fill="#757575" stroke="#757575" points="1065.78,-604.18 1076.13,-601.92 1066.63,-597.23 1065.78,-604.18"/>
</g>
<!-- src/proofOfWorkHash.ts -->
<g id="node16" class="node">
<title>src/proofOfWorkHash.ts</title>
<path fill="none" stroke="#cfffac" d="M973.33,-522.79C973.33,-522.79 827.67,-522.79 827.67,-522.79 823.83,-522.79 820,-518.96 820,-515.12 820,-515.12 820,-507.46 820,-507.46 820,-503.62 823.83,-499.79 827.67,-499.79 827.67,-499.79 973.33,-499.79 973.33,-499.79 977.17,-499.79 981,-503.62 981,-507.46 981,-507.46 981,-515.12 981,-515.12 981,-518.96 977.17,-522.79 973.33,-522.79"/>
<text text-anchor="middle" x="900.5" y="-507.59" font-family="Arial" font-size="14.00" fill="#cfffac">src/proofOfWorkHash.ts</text>
</g>
<!-- src/Block.ts&#45;&gt;src/proofOfWorkHash.ts -->
<g id="edge14" class="edge">
<title>src/Block.ts&#45;&gt;src/proofOfWorkHash.ts</title>
<path fill="none" stroke="#757575" d="M706.51,-544.14C738.39,-538.71 783.11,-531.1 821.48,-524.57"/>
<polygon fill="#757575" stroke="#757575" points="822.33,-527.98 831.6,-522.85 821.15,-521.07 822.33,-527.98"/>
</g>
<!-- src/Transaction.ts&#45;&gt;config/mongoose.json -->
<g id="edge43" class="edge">
<title>src/Transaction.ts&#45;&gt;config/mongoose.json</title>
<path fill="none" stroke="#757575" d="M962.27,-480.82C984.48,-484.45 1009.84,-488.34 1033,-491.29 1139.73,-504.89 1428.29,-473.58 1515,-537.29 1594.81,-595.93 1616.86,-724.15 1622.6,-775.44"/>
<polygon fill="#757575" stroke="#757575" points="1619.15,-776.1 1623.64,-785.7 1626.11,-775.39 1619.15,-776.1"/>
</g>
<!-- src/Transaction.ts&#45;&gt;config/settings.json -->
<g id="edge44" class="edge">
<title>src/Transaction.ts&#45;&gt;config/settings.json</title>
<path fill="none" stroke="#757575" d="M962.18,-458.73C974.17,-455.09 986.33,-450.38 997,-444.29 1016.38,-433.23 1014.07,-421.11 1033,-409.29 1047.68,-400.12 1064.96,-392.8 1081.12,-387.16"/>
<polygon fill="#757575" stroke="#757575" points="1082.63,-390.35 1091.01,-383.87 1080.41,-383.7 1082.63,-390.35"/>
</g>
<!-- src/Transaction.ts&#45;&gt;src/beautifyBigInt.ts -->
<g id="edge46" class="edge">
<title>src/Transaction.ts&#45;&gt;src/beautifyBigInt.ts</title>
<path fill="none" stroke="#757575" d="M962.44,-472.74C975.16,-475.89 987.56,-481.29 997,-490.29 1043.17,-534.34 993.34,-579.3 1033,-629.29 1046.97,-646.89 1068.25,-659.4 1087.86,-667.91"/>
<polygon fill="#757575" stroke="#757575" points="1086.73,-671.23 1097.31,-671.77 1089.38,-664.75 1086.73,-671.23"/>
</g>
<!-- src/Transaction.ts&#45;&gt;src/parseBigInt.ts -->
<g id="edge47" class="edge">
<title>src/Transaction.ts&#45;&gt;src/parseBigInt.ts</title>
<path fill="none" stroke="#757575" d="M962.21,-477.5C974.2,-480.42 986.35,-484.53 997,-490.29 1016.9,-501.06 1016.17,-511.17 1033,-526.29 1059.28,-549.89 1091.16,-575.1 1112.43,-591.45"/>
<polygon fill="#757575" stroke="#757575" points="1110.5,-594.39 1120.57,-597.69 1114.76,-588.83 1110.5,-594.39"/>
</g>
<!-- src/addressFromPublicKey.ts -->
<g id="node22" class="node">
<title>src/addressFromPublicKey.ts</title>
<path fill="none" stroke="#cfffac" d="M1225.33,-482.79C1225.33,-482.79 1048.67,-482.79 1048.67,-482.79 1044.83,-482.79 1041,-478.96 1041,-475.12 1041,-475.12 1041,-467.46 1041,-467.46 1041,-463.62 1044.83,-459.79 1048.67,-459.79 1048.67,-459.79 1225.33,-459.79 1225.33,-459.79 1229.17,-459.79 1233,-463.62 1233,-467.46 1233,-467.46 1233,-475.12 1233,-475.12 1233,-478.96 1229.17,-482.79 1225.33,-482.79"/>
<text text-anchor="middle" x="1137" y="-467.59" font-family="Arial" font-size="14.00" fill="#cfffac">src/addressFromPublicKey.ts</text>
</g>
<!-- src/Transaction.ts&#45;&gt;src/addressFromPublicKey.ts -->
<g id="edge45" class="edge">
<title>src/Transaction.ts&#45;&gt;src/addressFromPublicKey.ts</title>
<path fill="none" stroke="#757575" d="M962.19,-470.55C983.21,-470.64 1007.42,-470.74 1030.96,-470.84"/>
<polygon fill="#757575" stroke="#757575" points="1030.98,-474.34 1041,-470.88 1031.01,-467.34 1030.98,-474.34"/>
</g>
<!-- src/publicKeyFromPrivateKey.ts -->
<g id="node23" class="node">
<title>src/publicKeyFromPrivateKey.ts</title>
<path fill="none" stroke="#cfffac" d="M1233.33,-441.79C1233.33,-441.79 1040.67,-441.79 1040.67,-441.79 1036.83,-441.79 1033,-437.96 1033,-434.12 1033,-434.12 1033,-426.46 1033,-426.46 1033,-422.62 1036.83,-418.79 1040.67,-418.79 1040.67,-418.79 1233.33,-418.79 1233.33,-418.79 1237.17,-418.79 1241,-422.62 1241,-426.46 1241,-426.46 1241,-434.12 1241,-434.12 1241,-437.96 1237.17,-441.79 1233.33,-441.79"/>
<text text-anchor="middle" x="1137" y="-426.59" font-family="Arial" font-size="14.00" fill="#cfffac">src/publicKeyFromPrivateKey.ts</text>
</g>
<!-- src/Transaction.ts&#45;&gt;src/publicKeyFromPrivateKey.ts -->
<g id="edge48" class="edge">
<title>src/Transaction.ts&#45;&gt;src/publicKeyFromPrivateKey.ts</title>
<path fill="none" stroke="#757575" d="M962.19,-459.94C991.58,-454.92 1027.21,-448.85 1058.53,-443.5"/>
<polygon fill="#757575" stroke="#757575" points="1059.27,-446.93 1068.54,-441.8 1058.09,-440.03 1059.27,-446.93"/>
</g>
<!-- src/beautifyBigInt.ts&#45;&gt;config/core.json -->
<g id="edge49" class="edge">
<title>src/beautifyBigInt.ts&#45;&gt;config/core.json</title>
<path fill="none" stroke="#757575" d="M1204.18,-690.24C1242.96,-694.32 1291.72,-699.44 1330.24,-703.49"/>
<polygon fill="#757575" stroke="#757575" points="1330,-706.98 1340.31,-704.54 1330.73,-700.02 1330,-706.98"/>
</g>
<!-- src/mongoose/schema/block.ts -->
<g id="node25" class="node">
<title>src/mongoose/schema/block.ts</title>
<path fill="none" stroke="#c6c5fe" d="M1230.83,-830.79C1230.83,-830.79 1043.17,-830.79 1043.17,-830.79 1039.33,-830.79 1035.5,-826.96 1035.5,-823.12 1035.5,-823.12 1035.5,-815.46 1035.5,-815.46 1035.5,-811.62 1039.33,-807.79 1043.17,-807.79 1043.17,-807.79 1230.83,-807.79 1230.83,-807.79 1234.67,-807.79 1238.5,-811.62 1238.5,-815.46 1238.5,-815.46 1238.5,-823.12 1238.5,-823.12 1238.5,-826.96 1234.67,-830.79 1230.83,-830.79"/>
<text text-anchor="middle" x="1137" y="-815.59" font-family="Arial" font-size="14.00" fill="#c6c5fe">src/mongoose/schema/block.ts</text>
</g>
<!-- src/mongoose/model/block.ts&#45;&gt;src/mongoose/schema/block.ts -->
<g id="edge52" class="edge">
<title>src/mongoose/model/block.ts&#45;&gt;src/mongoose/schema/block.ts</title>
<path fill="none" stroke="#757575" d="M997.22,-819.29C1006.43,-819.29 1015.82,-819.29 1025.15,-819.29"/>
<polygon fill="#757575" stroke="#757575" points="1025.25,-822.79 1035.25,-819.29 1025.25,-815.79 1025.25,-822.79"/>
</g>
<!-- src/parseBigInt.ts&#45;&gt;config/core.json -->
<g id="edge57" class="edge">
<title>src/parseBigInt.ts&#45;&gt;config/core.json</title>
<path fill="none" stroke="#757575" d="M1167.48,-620.88C1213.93,-639.13 1304.18,-674.6 1355.96,-694.95"/>
<polygon fill="#757575" stroke="#757575" points="1354.88,-698.28 1365.47,-698.68 1357.44,-691.77 1354.88,-698.28"/>
</g>
<!-- src/Blockchain.ts&#45;&gt;config/core.json -->
<g id="edge15" class="edge">
<title>src/Blockchain.ts&#45;&gt;config/core.json</title>
<path fill="none" stroke="#757575" d="M494.21,-638.85C512.56,-645.71 536.86,-654.05 559,-659.29 855.31,-729.36 936.83,-738.09 1241,-724.29 1270.25,-722.96 1302.53,-720.23 1329.95,-717.52"/>
<polygon fill="#757575" stroke="#757575" points="1330.6,-720.97 1340.2,-716.49 1329.9,-714.01 1330.6,-720.97"/>
</g>
<!-- src/Blockchain.ts&#45;&gt;config/mongoose.json -->
<g id="edge16" class="edge">
<title>src/Blockchain.ts&#45;&gt;config/mongoose.json</title>
<path fill="none" stroke="#757575" d="M465.2,-638.87C466.6,-679.91 477.41,-819.2 559,-879.29 681.05,-969.17 747.93,-898.29 899.5,-898.29 899.5,-898.29 899.5,-898.29 1138,-898.29 1305.77,-898.29 1357.21,-936.27 1515,-879.29 1551.68,-866.04 1586.36,-836.05 1606.51,-816.25"/>
<polygon fill="#757575" stroke="#757575" points="1609.18,-818.53 1613.74,-808.96 1604.21,-813.6 1609.18,-818.53"/>
</g>
<!-- src/Blockchain.ts&#45;&gt;config/settings.json -->
<g id="edge17" class="edge">
<title>src/Blockchain.ts&#45;&gt;config/settings.json</title>
<path fill="none" stroke="#757575" d="M469.33,-615.54C480.09,-588.01 510.69,-518.88 559,-482.29 649.88,-413.46 692.3,-429.1 804,-406.29 891.34,-388.46 993.61,-379.78 1061.32,-375.69"/>
<polygon fill="#757575" stroke="#757575" points="1061.69,-379.18 1071.47,-375.1 1061.28,-372.19 1061.69,-379.18"/>
</g>
<!-- src/Blockchain.ts&#45;&gt;src/log.ts -->
<g id="edge21" class="edge">
<title>src/Blockchain.ts&#45;&gt;src/log.ts</title>
<path fill="none" stroke="#757575" d="M469.67,-615.65C482.7,-583.43 521.01,-490.55 559,-416.29 588.93,-357.78 629.25,-291.5 649.6,-258.79"/>
<polygon fill="#757575" stroke="#757575" points="652.69,-260.46 655.02,-250.13 646.75,-256.75 652.69,-260.46"/>
</g>
<!-- src/Blockchain.ts&#45;&gt;src/Block.ts -->
<g id="edge18" class="edge">
<title>src/Blockchain.ts&#45;&gt;src/Block.ts</title>
<path fill="none" stroke="#757575" d="M495,-615.75C529.17,-602.6 585.16,-581.05 622.89,-566.53"/>
<polygon fill="#757575" stroke="#757575" points="624.47,-569.67 632.55,-562.82 621.96,-563.14 624.47,-569.67"/>
</g>
<!-- src/Blockchain.ts&#45;&gt;src/Transaction.ts -->
<g id="edge19" class="edge">
<title>src/Blockchain.ts&#45;&gt;src/Transaction.ts</title>
<path fill="none" stroke="#757575" d="M472.45,-615.76C486.58,-594.94 519.43,-551.28 559,-530.29 604.67,-506.06 743.03,-487.27 828.68,-477.57"/>
<polygon fill="#757575" stroke="#757575" points="829.3,-481.03 838.85,-476.44 828.52,-474.07 829.3,-481.03"/>
</g>
<!-- src/Blockchain.ts&#45;&gt;src/beautifyBigInt.ts -->
<g id="edge20" class="edge">
<title>src/Blockchain.ts&#45;&gt;src/beautifyBigInt.ts</title>
<path fill="none" stroke="#757575" d="M523.15,-632.99C535.01,-634.11 547.41,-635.26 559,-636.29 738.36,-652.18 949.27,-668.85 1059.73,-677.42"/>
<polygon fill="#757575" stroke="#757575" points="1059.53,-680.92 1069.77,-678.2 1060.07,-673.94 1059.53,-680.92"/>
</g>
<!-- src/Blockchain.ts&#45;&gt;src/mongoose/model/block.ts -->
<g id="edge23" class="edge">
<title>src/Blockchain.ts&#45;&gt;src/mongoose/model/block.ts</title>
<path fill="none" stroke="#757575" d="M467.65,-639.17C475.39,-670.68 501.13,-756.53 559,-793.29 640.13,-844.82 755.07,-841.51 828.45,-832.15"/>
<polygon fill="#757575" stroke="#757575" points="829.08,-835.6 838.52,-830.8 828.14,-828.66 829.08,-835.6"/>
</g>
<!-- src/Blockchain.ts&#45;&gt;src/parseBigInt.ts -->
<g id="edge24" class="edge">
<title>src/Blockchain.ts&#45;&gt;src/parseBigInt.ts</title>
<path fill="none" stroke="#757575" d="M523.08,-625.73C646.26,-622.43 933.3,-614.73 1066.19,-611.16"/>
<polygon fill="#757575" stroke="#757575" points="1066.35,-614.66 1076.26,-610.89 1066.17,-607.66 1066.35,-614.66"/>
</g>
<!-- src/mongoose/model/address.ts -->
<g id="node18" class="node">
<title>src/mongoose/model/address.ts</title>
<path fill="none" stroke="#c6c5fe" d="M760.33,-869.79C760.33,-869.79 566.67,-869.79 566.67,-869.79 562.83,-869.79 559,-865.96 559,-862.12 559,-862.12 559,-854.46 559,-854.46 559,-850.62 562.83,-846.79 566.67,-846.79 566.67,-846.79 760.33,-846.79 760.33,-846.79 764.17,-846.79 768,-850.62 768,-854.46 768,-854.46 768,-862.12 768,-862.12 768,-865.96 764.17,-869.79 760.33,-869.79"/>
<text text-anchor="middle" x="663.5" y="-854.59" font-family="Arial" font-size="14.00" fill="#c6c5fe">src/mongoose/model/address.ts</text>
</g>
<!-- src/Blockchain.ts&#45;&gt;src/mongoose/model/address.ts -->
<g id="edge22" class="edge">
<title>src/Blockchain.ts&#45;&gt;src/mongoose/model/address.ts</title>
<path fill="none" stroke="#757575" d="M466.76,-638.92C472.7,-673.96 495.32,-779.36 559,-832.29 563.7,-836.2 568.91,-839.53 574.42,-842.37"/>
<polygon fill="#757575" stroke="#757575" points="573.38,-845.74 583.93,-846.7 576.28,-839.37 573.38,-845.74"/>
</g>
<!-- src/mongoose/schema/address.ts -->
<g id="node24" class="node">
<title>src/mongoose/schema/address.ts</title>
<path fill="none" stroke="#c6c5fe" d="M1498.33,-869.79C1498.33,-869.79 1293.67,-869.79 1293.67,-869.79 1289.83,-869.79 1286,-865.96 1286,-862.12 1286,-862.12 1286,-854.46 1286,-854.46 1286,-850.62 1289.83,-846.79 1293.67,-846.79 1293.67,-846.79 1498.33,-846.79 1498.33,-846.79 1502.17,-846.79 1506,-850.62 1506,-854.46 1506,-854.46 1506,-862.12 1506,-862.12 1506,-865.96 1502.17,-869.79 1498.33,-869.79"/>
<text text-anchor="middle" x="1396" y="-854.59" font-family="Arial" font-size="14.00" fill="#c6c5fe">src/mongoose/schema/address.ts</text>
</g>
<!-- src/mongoose/model/address.ts&#45;&gt;src/mongoose/schema/address.ts -->
<g id="edge51" class="edge">
<title>src/mongoose/model/address.ts&#45;&gt;src/mongoose/schema/address.ts</title>
<path fill="none" stroke="#757575" d="M768.39,-858.29C902.21,-858.29 1134.35,-858.29 1275.39,-858.29"/>
<polygon fill="#757575" stroke="#757575" points="1275.81,-861.79 1285.81,-858.29 1275.81,-854.79 1275.81,-861.79"/>
</g>
<!-- src/HTTPApi.ts&#45;&gt;config/default_env.json -->
<g id="edge25" class="edge">
<title>src/HTTPApi.ts&#45;&gt;config/default_env.json</title>
<path fill="none" stroke="#757575" d="M517.76,-307.56C598.43,-294 745.49,-268.4 768,-258.29 813.3,-237.95 857.26,-199.16 881.11,-176.02"/>
<polygon fill="#757575" stroke="#757575" points="883.75,-178.34 888.41,-168.83 878.83,-173.36 883.75,-178.34"/>
</g>
<!-- src/HTTPApi.ts&#45;&gt;config/settings.json -->
<g id="edge26" class="edge">
<title>src/HTTPApi.ts&#45;&gt;config/settings.json</title>
<path fill="none" stroke="#757575" d="M517.76,-315.52C613.66,-314.81 822.72,-316.5 997,-340.29 1026.35,-344.3 1058.62,-351.55 1084.67,-358.13"/>
<polygon fill="#757575" stroke="#757575" points="1084.14,-361.61 1094.7,-360.71 1085.89,-354.83 1084.14,-361.61"/>
</g>
<!-- src/HTTPApi.ts&#45;&gt;src/base58.ts -->
<g id="edge29" class="edge">
<title>src/HTTPApi.ts&#45;&gt;src/base58.ts</title>
<path fill="none" stroke="#757575" d="M472.42,-304.59C486.51,-283.44 519.3,-239.04 559,-217.29 572.89,-209.68 589.22,-204.93 604.75,-201.98"/>
<polygon fill="#757575" stroke="#757575" points="605.52,-205.4 614.8,-200.28 604.36,-198.49 605.52,-205.4"/>
</g>
<!-- src/HTTPApi.ts&#45;&gt;src/log.ts -->
<g id="edge30" class="edge">
<title>src/HTTPApi.ts&#45;&gt;src/log.ts</title>
<path fill="none" stroke="#757575" d="M493.9,-304.72C503.37,-300.56 513.82,-295.58 523,-290.29 540.09,-280.42 541.11,-272.62 559,-264.29 577.42,-255.71 599.06,-249.71 617.77,-245.65"/>
<polygon fill="#757575" stroke="#757575" points="618.74,-249.03 627.83,-243.6 617.33,-242.17 618.74,-249.03"/>
</g>
<!-- src/HTTPApi.ts&#45;&gt;src/Block.ts -->
<g id="edge27" class="edge">
<title>src/HTTPApi.ts&#45;&gt;src/Block.ts</title>
<path fill="none" stroke="#757575" d="M474.79,-327.94C506.51,-365.69 606.66,-484.85 646.21,-531.9"/>
<polygon fill="#757575" stroke="#757575" points="643.53,-534.16 652.65,-539.57 648.89,-529.66 643.53,-534.16"/>
</g>
<!-- src/HTTPApi.ts&#45;&gt;src/Transaction.ts -->
<g id="edge28" class="edge">
<title>src/HTTPApi.ts&#45;&gt;src/Transaction.ts</title>
<path fill="none" stroke="#757575" d="M497.66,-327.86C575.29,-355.38 770.81,-424.68 857.26,-455.32"/>
<polygon fill="#757575" stroke="#757575" points="856.17,-458.64 866.76,-458.69 858.5,-452.05 856.17,-458.64"/>
</g>
<!-- src/TCPApi.ts&#45;&gt;config/default_env.json -->
<g id="edge39" class="edge">
<title>src/TCPApi.ts&#45;&gt;config/default_env.json</title>
<path fill="none" stroke="#757575" d="M344.18,-224.76C393.72,-210.71 481.87,-187.46 559,-176.29 644.83,-163.86 743.92,-159.43 812.99,-157.92"/>
<polygon fill="#757575" stroke="#757575" points="813.46,-161.41 823.39,-157.71 813.32,-154.41 813.46,-161.41"/>
</g>
<!-- src/TCPApi.ts&#45;&gt;config/settings.json -->
<g id="edge40" class="edge">
<title>src/TCPApi.ts&#45;&gt;config/settings.json</title>
<path fill="none" stroke="#757575" d="M321.08,-224.61C340.12,-211.39 373.27,-190.27 405,-179.29 654.3,-93.02 767.97,-5.38 997,-136.29 1079.9,-183.67 1118.27,-301.94 1130.96,-350.72"/>
<polygon fill="#757575" stroke="#757575" points="1127.6,-351.68 1133.41,-360.54 1134.39,-349.99 1127.6,-351.68"/>
</g>
<!-- src/TCPApi.ts&#45;&gt;src/log.ts -->
<g id="edge41" class="edge">
<title>src/TCPApi.ts&#45;&gt;src/log.ts</title>
<path fill="none" stroke="#757575" d="M353.21,-236.56C422.68,-236.95 549.99,-237.66 617.58,-238.04"/>
<polygon fill="#757575" stroke="#757575" points="617.88,-241.54 627.9,-238.1 617.92,-234.54 617.88,-241.54"/>
</g>
<!-- src/protocol.ts -->
<g id="node21" class="node">
<title>src/protocol.ts</title>
<path fill="none" stroke="#c6c5fe" d="M506.83,-481.79C506.83,-481.79 421.17,-481.79 421.17,-481.79 417.33,-481.79 413.5,-477.96 413.5,-474.12 413.5,-474.12 413.5,-466.46 413.5,-466.46 413.5,-462.62 417.33,-458.79 421.17,-458.79 421.17,-458.79 506.83,-458.79 506.83,-458.79 510.67,-458.79 514.5,-462.62 514.5,-466.46 514.5,-466.46 514.5,-474.12 514.5,-474.12 514.5,-477.96 510.67,-481.79 506.83,-481.79"/>
<text text-anchor="middle" x="464" y="-466.59" font-family="Arial" font-size="14.00" fill="#c6c5fe">src/protocol.ts</text>
</g>
<!-- src/TCPApi.ts&#45;&gt;src/protocol.ts -->
<g id="edge42" class="edge">
<title>src/TCPApi.ts&#45;&gt;src/protocol.ts</title>
<path fill="none" stroke="#757575" d="M312.84,-247.89C338.05,-285.24 417.33,-402.66 449.37,-450.1"/>
<polygon fill="#757575" stroke="#757575" points="446.62,-452.29 455.12,-458.62 452.42,-448.37 446.62,-452.29"/>
</g>
<!-- src/protocol.ts&#45;&gt;src/Block.ts -->
<g id="edge58" class="edge">
<title>src/protocol.ts&#45;&gt;src/Block.ts</title>
<path fill="none" stroke="#757575" d="M493.3,-481.89C527.91,-496.09 586.61,-520.17 624.97,-535.9"/>
<polygon fill="#757575" stroke="#757575" points="623.68,-539.15 634.26,-539.71 626.33,-532.67 623.68,-539.15"/>
</g>
<!-- src/protocol.ts&#45;&gt;src/Transaction.ts -->
<g id="edge59" class="edge">
<title>src/protocol.ts&#45;&gt;src/Transaction.ts</title>
<path fill="none" stroke="#757575" d="M514.84,-470.29C591.93,-470.29 740.35,-470.29 828.59,-470.29"/>
<polygon fill="#757575" stroke="#757575" points="828.78,-473.79 838.78,-470.29 828.78,-466.79 828.78,-473.79"/>
</g>
<!-- src/mongoose/schema/address.ts&#45;&gt;config/mongoose.json -->
<g id="edge53" class="edge">
<title>src/mongoose/schema/address.ts&#45;&gt;config/mongoose.json</title>
<path fill="none" stroke="#757575" d="M1477.42,-846.77C1490.08,-844.35 1502.96,-841.53 1515,-838.29 1540.04,-831.54 1567.36,-821.32 1588.45,-812.77"/>
<polygon fill="#757575" stroke="#757575" points="1590.05,-815.89 1597.97,-808.85 1587.39,-809.42 1590.05,-815.89"/>
</g>
<!-- src/mongoose/schema/block.ts&#45;&gt;config/mongoose.json -->
<g id="edge54" class="edge">
<title>src/mongoose/schema/block.ts&#45;&gt;config/mongoose.json</title>
<path fill="none" stroke="#757575" d="M1197.62,-807.75C1222.11,-803.56 1250.82,-799.35 1277,-797.29 1366.86,-790.22 1470.19,-791.4 1540.66,-793.61"/>
<polygon fill="#757575" stroke="#757575" points="1540.71,-797.12 1550.82,-793.95 1540.94,-790.12 1540.71,-797.12"/>
</g>
<!-- src/mongoose/schema/transaction.ts -->
<g id="node26" class="node">
<title>src/mongoose/schema/transaction.ts</title>
<path fill="none" stroke="#c6c5fe" d="M1507.33,-828.79C1507.33,-828.79 1284.67,-828.79 1284.67,-828.79 1280.83,-828.79 1277,-824.96 1277,-821.12 1277,-821.12 1277,-813.46 1277,-813.46 1277,-809.62 1280.83,-805.79 1284.67,-805.79 1284.67,-805.79 1507.33,-805.79 1507.33,-805.79 1511.17,-805.79 1515,-809.62 1515,-813.46 1515,-813.46 1515,-821.12 1515,-821.12 1515,-824.96 1511.17,-828.79 1507.33,-828.79"/>
<text text-anchor="middle" x="1396" y="-813.59" font-family="Arial" font-size="14.00" fill="#c6c5fe">src/mongoose/schema/transaction.ts</text>
</g>
<!-- src/mongoose/schema/block.ts&#45;&gt;src/mongoose/schema/transaction.ts -->
<g id="edge55" class="edge">
<title>src/mongoose/schema/block.ts&#45;&gt;src/mongoose/schema/transaction.ts</title>
<path fill="none" stroke="#757575" d="M1238.84,-818.5C1248.03,-818.43 1257.42,-818.36 1266.8,-818.29"/>
<polygon fill="#757575" stroke="#757575" points="1267.01,-821.79 1276.98,-818.21 1266.95,-814.79 1267.01,-821.79"/>
</g>
<!-- src/mongoose/schema/transaction.ts&#45;&gt;config/mongoose.json -->
<g id="edge56" class="edge">
<title>src/mongoose/schema/transaction.ts&#45;&gt;config/mongoose.json</title>
<path fill="none" stroke="#757575" d="M1515.08,-806.91C1523.77,-806.14 1532.43,-805.38 1540.85,-804.64"/>
<polygon fill="#757575" stroke="#757575" points="1541.34,-808.11 1550.99,-803.75 1540.72,-801.14 1541.34,-808.11"/>
</g>
</g>
</svg>
