<?xml version="1.0" encoding="UTF-8" standalone="no"?>
<!DOCTYPE svg PUBLIC "-//W3C//DTD SVG 1.1//EN"
 "http://www.w3.org/Graphics/SVG/1.1/DTD/svg11.dtd">
<!-- Generated by graphviz version 2.48.0 (0)
 -->
<!-- Title: G Pages: 1 -->
<svg width="1404pt" height="845pt"
 viewBox="0.00 0.00 1404.20 845.19" xmlns="http://www.w3.org/2000/svg" xmlns:xlink="http://www.w3.org/1999/xlink">
<g id="graph0" class="graph" transform="scale(1 1) rotate(0) translate(21.6 823.59)">
<title>G</title>
<polygon fill="#111111" stroke="transparent" points="-21.6,21.6 -21.6,-823.59 1382.6,-823.59 1382.6,21.6 -21.6,21.6"/>
<!-- config/core.json -->
<g id="node1" class="node">
<title>config/core.json</title>
<path fill="none" stroke="#cfffac" d="M1104.83,-531.99C1104.83,-531.99 1009.17,-531.99 1009.17,-531.99 1005.33,-531.99 1001.5,-528.15 1001.5,-524.32 1001.5,-524.32 1001.5,-516.65 1001.5,-516.65 1001.5,-512.82 1005.33,-508.99 1009.17,-508.99 1009.17,-508.99 1104.83,-508.99 1104.83,-508.99 1108.67,-508.99 1112.5,-512.82 1112.5,-516.65 1112.5,-516.65 1112.5,-524.32 1112.5,-524.32 1112.5,-528.15 1108.67,-531.99 1104.83,-531.99"/>
<text text-anchor="middle" x="1057" y="-516.79" font-family="Arial" font-size="14.00" fill="#cfffac">config/core.json</text>
</g>
<!-- config/default_env.json -->
<g id="node2" class="node">
<title>config/default_env.json</title>
<path fill="none" stroke="#cfffac" d="M630.83,-293.99C630.83,-293.99 492.17,-293.99 492.17,-293.99 488.33,-293.99 484.5,-290.15 484.5,-286.32 484.5,-286.32 484.5,-278.65 484.5,-278.65 484.5,-274.82 488.33,-270.99 492.17,-270.99 492.17,-270.99 630.83,-270.99 630.83,-270.99 634.67,-270.99 638.5,-274.82 638.5,-278.65 638.5,-278.65 638.5,-286.32 638.5,-286.32 638.5,-290.15 634.67,-293.99 630.83,-293.99"/>
<text text-anchor="middle" x="561.5" y="-278.79" font-family="Arial" font-size="14.00" fill="#cfffac">config/default_env.json</text>
</g>
<!-- config/mongoose.json -->
<g id="node3" class="node">
<title>config/mongoose.json</title>
<path fill="none" stroke="#cfffac" d="M1353.33,-394.99C1353.33,-394.99 1219.67,-394.99 1219.67,-394.99 1215.83,-394.99 1212,-391.15 1212,-387.32 1212,-387.32 1212,-379.65 1212,-379.65 1212,-375.82 1215.83,-371.99 1219.67,-371.99 1219.67,-371.99 1353.33,-371.99 1353.33,-371.99 1357.17,-371.99 1361,-375.82 1361,-379.65 1361,-379.65 1361,-387.32 1361,-387.32 1361,-391.15 1357.17,-394.99 1353.33,-394.99"/>
<text text-anchor="middle" x="1286.5" y="-379.79" font-family="Arial" font-size="14.00" fill="#cfffac">config/mongoose.json</text>
</g>
<!-- config/settings.json -->
<g id="node4" class="node">
<title>config/settings.json</title>
<path fill="none" stroke="#cfffac" d="M855.83,-723.99C855.83,-723.99 740.17,-723.99 740.17,-723.99 736.33,-723.99 732.5,-720.15 732.5,-716.32 732.5,-716.32 732.5,-708.65 732.5,-708.65 732.5,-704.82 736.33,-700.99 740.17,-700.99 740.17,-700.99 855.83,-700.99 855.83,-700.99 859.67,-700.99 863.5,-704.82 863.5,-708.65 863.5,-708.65 863.5,-716.32 863.5,-716.32 863.5,-720.15 859.67,-723.99 855.83,-723.99"/>
<text text-anchor="middle" x="798" y="-708.79" font-family="Arial" font-size="14.00" fill="#cfffac">config/settings.json</text>
</g>
<!-- src/Address.ts -->
<g id="node5" class="node">
<title>src/Address.ts</title>
<path fill="none" stroke="#cfffac" d="M421.33,-137.99C421.33,-137.99 334.67,-137.99 334.67,-137.99 330.83,-137.99 327,-134.15 327,-130.32 327,-130.32 327,-122.65 327,-122.65 327,-118.82 330.83,-114.99 334.67,-114.99 334.67,-114.99 421.33,-114.99 421.33,-114.99 425.17,-114.99 429,-118.82 429,-122.65 429,-122.65 429,-130.32 429,-130.32 429,-134.15 425.17,-137.99 421.33,-137.99"/>
<text text-anchor="middle" x="378" y="-122.79" font-family="Arial" font-size="14.00" fill="#cfffac">src/Address.ts</text>
</g>
<!-- src/Block.ts -->
<g id="node6" class="node">
<title>src/Block.ts</title>
<path fill="none" stroke="#c6c5fe" d="M413.33,-528.99C413.33,-528.99 342.67,-528.99 342.67,-528.99 338.83,-528.99 335,-525.15 335,-521.32 335,-521.32 335,-513.65 335,-513.65 335,-509.82 338.83,-505.99 342.67,-505.99 342.67,-505.99 413.33,-505.99 413.33,-505.99 417.17,-505.99 421,-509.82 421,-513.65 421,-513.65 421,-521.32 421,-521.32 421,-525.15 417.17,-528.99 413.33,-528.99"/>
<text text-anchor="middle" x="378" y="-513.79" font-family="Arial" font-size="14.00" fill="#c6c5fe">src/Block.ts</text>
</g>
<!-- src/Block.ts&#45;&gt;config/core.json -->
<g id="edge1" class="edge">
<title>src/Block.ts&#45;&gt;config/core.json</title>
<path fill="none" stroke="#757575" d="M421.27,-526.02C435.15,-528.51 450.68,-530.96 465,-532.49 658.17,-553.04 708.18,-554.64 902,-541.49 931.36,-539.49 963.66,-535.39 991.06,-531.33"/>
<polygon fill="#757575" stroke="#757575" points="991.94,-534.74 1001.3,-529.78 990.89,-527.82 991.94,-534.74"/>
</g>
<!-- src/Block.ts&#45;&gt;config/mongoose.json -->
<g id="edge2" class="edge">
<title>src/Block.ts&#45;&gt;config/mongoose.json</title>
<path fill="none" stroke="#757575" d="M398.71,-505.84C408.92,-498.97 420.9,-489.48 429,-478.49 455.79,-442.14 427.84,-409.14 465,-383.49 524.45,-342.44 1004.84,-366.44 1201.76,-378.18"/>
<polygon fill="#757575" stroke="#757575" points="1201.58,-381.67 1211.78,-378.78 1202,-374.69 1201.58,-381.67"/>
</g>
<!-- src/Block.ts&#45;&gt;config/settings.json -->
<g id="edge3" class="edge">
<title>src/Block.ts&#45;&gt;config/settings.json</title>
<path fill="none" stroke="#757575" d="M394.6,-529.15C411.41,-541.4 439.23,-560.76 465,-574.49 564.55,-627.54 689,-674.46 753.59,-697.47"/>
<polygon fill="#757575" stroke="#757575" points="752.45,-700.78 763.05,-700.82 754.79,-694.18 752.45,-700.78"/>
</g>
<!-- src/Transaction.ts -->
<g id="node7" class="node">
<title>src/Transaction.ts</title>
<path fill="none" stroke="#c6c5fe" d="M615.33,-334.99C615.33,-334.99 507.67,-334.99 507.67,-334.99 503.83,-334.99 500,-331.15 500,-327.32 500,-327.32 500,-319.65 500,-319.65 500,-315.82 503.83,-311.99 507.67,-311.99 507.67,-311.99 615.33,-311.99 615.33,-311.99 619.17,-311.99 623,-315.82 623,-319.65 623,-319.65 623,-327.32 623,-327.32 623,-331.15 619.17,-334.99 615.33,-334.99"/>
<text text-anchor="middle" x="561.5" y="-319.79" font-family="Arial" font-size="14.00" fill="#c6c5fe">src/Transaction.ts</text>
</g>
<!-- src/Block.ts&#45;&gt;src/Transaction.ts -->
<g id="edge4" class="edge">
<title>src/Block.ts&#45;&gt;src/Transaction.ts</title>
<path fill="none" stroke="#757575" d="M411.03,-505.94C417.77,-502.22 424.26,-497.47 429,-491.49 469.42,-440.45 419.37,-395.93 465,-349.49 472.05,-342.32 480.86,-337.07 490.26,-333.23"/>
<polygon fill="#757575" stroke="#757575" points="491.56,-336.49 499.82,-329.85 489.22,-329.89 491.56,-336.49"/>
</g>
<!-- src/beautifyBigInt.ts -->
<g id="node8" class="node">
<title>src/beautifyBigInt.ts</title>
<path fill="none" stroke="#c6c5fe" d="M857.33,-490.99C857.33,-490.99 738.67,-490.99 738.67,-490.99 734.83,-490.99 731,-487.15 731,-483.32 731,-483.32 731,-475.65 731,-475.65 731,-471.82 734.83,-467.99 738.67,-467.99 738.67,-467.99 857.33,-467.99 857.33,-467.99 861.17,-467.99 865,-471.82 865,-475.65 865,-475.65 865,-483.32 865,-483.32 865,-487.15 861.17,-490.99 857.33,-490.99"/>
<text text-anchor="middle" x="798" y="-475.79" font-family="Arial" font-size="14.00" fill="#c6c5fe">src/beautifyBigInt.ts</text>
</g>
<!-- src/Block.ts&#45;&gt;src/beautifyBigInt.ts -->
<g id="edge5" class="edge">
<title>src/Block.ts&#45;&gt;src/beautifyBigInt.ts</title>
<path fill="none" stroke="#757575" d="M421.38,-513.63C491.56,-507.25 632.85,-494.41 720.74,-486.42"/>
<polygon fill="#757575" stroke="#757575" points="721.27,-489.89 730.92,-485.5 720.64,-482.91 721.27,-489.89"/>
</g>
<!-- src/mongoose/model/block.ts -->
<g id="node9" class="node">
<title>src/mongoose/model/block.ts</title>
<path fill="none" stroke="#c6c5fe" d="M650.33,-455.99C650.33,-455.99 472.67,-455.99 472.67,-455.99 468.83,-455.99 465,-452.15 465,-448.32 465,-448.32 465,-440.65 465,-440.65 465,-436.82 468.83,-432.99 472.67,-432.99 472.67,-432.99 650.33,-432.99 650.33,-432.99 654.17,-432.99 658,-436.82 658,-440.65 658,-440.65 658,-448.32 658,-448.32 658,-452.15 654.17,-455.99 650.33,-455.99"/>
<text text-anchor="middle" x="561.5" y="-440.79" font-family="Arial" font-size="14.00" fill="#c6c5fe">src/mongoose/model/block.ts</text>
</g>
<!-- src/Block.ts&#45;&gt;src/mongoose/model/block.ts -->
<g id="edge6" class="edge">
<title>src/Block.ts&#45;&gt;src/mongoose/model/block.ts</title>
<path fill="none" stroke="#757575" d="M401.77,-505.94C410.36,-501.51 420.17,-496.35 429,-491.49 445.22,-482.55 447.92,-477.65 465,-470.49 475.54,-466.07 487.05,-462.19 498.32,-458.87"/>
<polygon fill="#757575" stroke="#757575" points="499.45,-462.19 508.12,-456.1 497.55,-455.45 499.45,-462.19"/>
</g>
<!-- src/parseBigInt.ts -->
<g id="node10" class="node">
<title>src/parseBigInt.ts</title>
<path fill="none" stroke="#c6c5fe" d="M850.83,-531.99C850.83,-531.99 745.17,-531.99 745.17,-531.99 741.33,-531.99 737.5,-528.15 737.5,-524.32 737.5,-524.32 737.5,-516.65 737.5,-516.65 737.5,-512.82 741.33,-508.99 745.17,-508.99 745.17,-508.99 850.83,-508.99 850.83,-508.99 854.67,-508.99 858.5,-512.82 858.5,-516.65 858.5,-516.65 858.5,-524.32 858.5,-524.32 858.5,-528.15 854.67,-531.99 850.83,-531.99"/>
<text text-anchor="middle" x="798" y="-516.79" font-family="Arial" font-size="14.00" fill="#c6c5fe">src/parseBigInt.ts</text>
</g>
<!-- src/Block.ts&#45;&gt;src/parseBigInt.ts -->
<g id="edge7" class="edge">
<title>src/Block.ts&#45;&gt;src/parseBigInt.ts</title>
<path fill="none" stroke="#757575" d="M421.38,-517.79C493.35,-518.31 640.14,-519.36 727.38,-519.99"/>
<polygon fill="#757575" stroke="#757575" points="727.43,-523.49 737.45,-520.06 727.48,-516.49 727.43,-523.49"/>
</g>
<!-- src/proofOfWorkHash.ts -->
<g id="node11" class="node">
<title>src/proofOfWorkHash.ts</title>
<path fill="none" stroke="#cfffac" d="M634.33,-414.99C634.33,-414.99 488.67,-414.99 488.67,-414.99 484.83,-414.99 481,-411.15 481,-407.32 481,-407.32 481,-399.65 481,-399.65 481,-395.82 484.83,-391.99 488.67,-391.99 488.67,-391.99 634.33,-391.99 634.33,-391.99 638.17,-391.99 642,-395.82 642,-399.65 642,-399.65 642,-407.32 642,-407.32 642,-411.15 638.17,-414.99 634.33,-414.99"/>
<text text-anchor="middle" x="561.5" y="-399.79" font-family="Arial" font-size="14.00" fill="#cfffac">src/proofOfWorkHash.ts</text>
</g>
<!-- src/Block.ts&#45;&gt;src/proofOfWorkHash.ts -->
<g id="edge8" class="edge">
<title>src/Block.ts&#45;&gt;src/proofOfWorkHash.ts</title>
<path fill="none" stroke="#757575" d="M408.46,-505.87C415.75,-502.04 423.15,-497.26 429,-491.49 453.06,-467.75 438.03,-444.87 465,-424.49 467.13,-422.88 469.37,-421.38 471.68,-420"/>
<polygon fill="#757575" stroke="#757575" points="473.67,-422.91 480.94,-415.2 470.45,-416.69 473.67,-422.91"/>
</g>
<!-- src/Transaction.ts&#45;&gt;config/mongoose.json -->
<g id="edge15" class="edge">
<title>src/Transaction.ts&#45;&gt;config/mongoose.json</title>
<path fill="none" stroke="#757575" d="M623.14,-320.91C733.88,-317.33 975.9,-314.79 1176,-349.49 1199.77,-353.61 1225.57,-361.45 1246.15,-368.56"/>
<polygon fill="#757575" stroke="#757575" points="1245.21,-371.94 1255.8,-371.97 1247.54,-365.34 1245.21,-371.94"/>
</g>
<!-- src/Transaction.ts&#45;&gt;config/settings.json -->
<g id="edge16" class="edge">
<title>src/Transaction.ts&#45;&gt;config/settings.json</title>
<path fill="none" stroke="#757575" d="M592.88,-335.09C614.29,-344.83 641.91,-360.81 658,-383.49 699.67,-442.23 667.08,-474.69 694,-541.49 717.58,-600 759.7,-661.76 782.08,-692.56"/>
<polygon fill="#757575" stroke="#757575" points="779.35,-694.76 788.09,-700.75 784.99,-690.62 779.35,-694.76"/>
</g>
<!-- src/Transaction.ts&#45;&gt;src/beautifyBigInt.ts -->
<g id="edge18" class="edge">
<title>src/Transaction.ts&#45;&gt;src/beautifyBigInt.ts</title>
<path fill="none" stroke="#757575" d="M589.3,-335.15C610.24,-345.38 638.89,-361.96 658,-383.49 682.82,-411.44 664.48,-436.57 694,-459.49 701.99,-465.69 711.35,-470.14 721.12,-473.31"/>
<polygon fill="#757575" stroke="#757575" points="720.42,-476.75 730.99,-476.07 722.3,-470 720.42,-476.75"/>
</g>
<!-- src/Transaction.ts&#45;&gt;src/parseBigInt.ts -->
<g id="edge19" class="edge">
<title>src/Transaction.ts&#45;&gt;src/parseBigInt.ts</title>
<path fill="none" stroke="#757575" d="M591.49,-335.04C612.77,-344.92 640.84,-361.11 658,-383.49 691.11,-426.66 653.53,-464.12 694,-500.49 703.35,-508.89 715.16,-514.22 727.4,-517.52"/>
<polygon fill="#757575" stroke="#757575" points="726.76,-520.96 737.28,-519.75 728.3,-514.13 726.76,-520.96"/>
</g>
<!-- src/addressFromPublicKey.ts -->
<g id="node15" class="node">
<title>src/addressFromPublicKey.ts</title>
<path fill="none" stroke="#cfffac" d="M886.33,-253.99C886.33,-253.99 709.67,-253.99 709.67,-253.99 705.83,-253.99 702,-250.15 702,-246.32 702,-246.32 702,-238.65 702,-238.65 702,-234.82 705.83,-230.99 709.67,-230.99 709.67,-230.99 886.33,-230.99 886.33,-230.99 890.17,-230.99 894,-234.82 894,-238.65 894,-238.65 894,-246.32 894,-246.32 894,-250.15 890.17,-253.99 886.33,-253.99"/>
<text text-anchor="middle" x="798" y="-238.79" font-family="Arial" font-size="14.00" fill="#cfffac">src/addressFromPublicKey.ts</text>
</g>
<!-- src/Transaction.ts&#45;&gt;src/addressFromPublicKey.ts -->
<g id="edge17" class="edge">
<title>src/Transaction.ts&#45;&gt;src/addressFromPublicKey.ts</title>
<path fill="none" stroke="#757575" d="M623.08,-312C634.78,-309.27 646.85,-306.08 658,-302.49 695.59,-290.36 736.95,-271.8 764.7,-258.53"/>
<polygon fill="#757575" stroke="#757575" points="766.43,-261.58 773.92,-254.08 763.39,-255.28 766.43,-261.58"/>
</g>
<!-- src/publicKeyFromPrivateKey.ts -->
<g id="node16" class="node">
<title>src/publicKeyFromPrivateKey.ts</title>
<path fill="none" stroke="#cfffac" d="M894.33,-177.99C894.33,-177.99 701.67,-177.99 701.67,-177.99 697.83,-177.99 694,-174.15 694,-170.32 694,-170.32 694,-162.65 694,-162.65 694,-158.82 697.83,-154.99 701.67,-154.99 701.67,-154.99 894.33,-154.99 894.33,-154.99 898.17,-154.99 902,-158.82 902,-162.65 902,-162.65 902,-170.32 902,-170.32 902,-174.15 898.17,-177.99 894.33,-177.99"/>
<text text-anchor="middle" x="798" y="-162.79" font-family="Arial" font-size="14.00" fill="#cfffac">src/publicKeyFromPrivateKey.ts</text>
</g>
<!-- src/Transaction.ts&#45;&gt;src/publicKeyFromPrivateKey.ts -->
<g id="edge20" class="edge">
<title>src/Transaction.ts&#45;&gt;src/publicKeyFromPrivateKey.ts</title>
<path fill="none" stroke="#757575" d="M623.42,-318.91C635.86,-315.67 648.14,-310.54 658,-302.49 688.52,-277.58 667.17,-250.33 694,-221.49 710.21,-204.06 733.22,-191.05 753.37,-182.07"/>
<polygon fill="#757575" stroke="#757575" points="754.87,-185.24 762.7,-178.11 752.13,-178.8 754.87,-185.24"/>
</g>
<!-- src/beautifyBigInt.ts&#45;&gt;config/core.json -->
<g id="edge26" class="edge">
<title>src/beautifyBigInt.ts&#45;&gt;config/core.json</title>
<path fill="none" stroke="#757575" d="M865.18,-490.05C903.96,-496.23 952.72,-504.01 991.24,-510.16"/>
<polygon fill="#757575" stroke="#757575" points="990.88,-513.64 1001.31,-511.76 991.99,-506.73 990.88,-513.64"/>
</g>
<!-- src/mongoose/schema/block.ts -->
<g id="node19" class="node">
<title>src/mongoose/schema/block.ts</title>
<path fill="none" stroke="#c6c5fe" d="M891.83,-449.99C891.83,-449.99 704.17,-449.99 704.17,-449.99 700.33,-449.99 696.5,-446.15 696.5,-442.32 696.5,-442.32 696.5,-434.65 696.5,-434.65 696.5,-430.82 700.33,-426.99 704.17,-426.99 704.17,-426.99 891.83,-426.99 891.83,-426.99 895.67,-426.99 899.5,-430.82 899.5,-434.65 899.5,-434.65 899.5,-442.32 899.5,-442.32 899.5,-446.15 895.67,-449.99 891.83,-449.99"/>
<text text-anchor="middle" x="798" y="-434.79" font-family="Arial" font-size="14.00" fill="#c6c5fe">src/mongoose/schema/block.ts</text>
</g>
<!-- src/mongoose/model/block.ts&#45;&gt;src/mongoose/schema/block.ts -->
<g id="edge28" class="edge">
<title>src/mongoose/model/block.ts&#45;&gt;src/mongoose/schema/block.ts</title>
<path fill="none" stroke="#757575" d="M658.22,-442.04C667.43,-441.8 676.82,-441.56 686.15,-441.32"/>
<polygon fill="#757575" stroke="#757575" points="686.34,-444.82 696.25,-441.07 686.17,-437.82 686.34,-444.82"/>
</g>
<!-- src/parseBigInt.ts&#45;&gt;config/core.json -->
<g id="edge32" class="edge">
<title>src/parseBigInt.ts&#45;&gt;config/core.json</title>
<path fill="none" stroke="#757575" d="M858.61,-520.49C898.25,-520.49 950.31,-520.49 991.01,-520.49"/>
<polygon fill="#757575" stroke="#757575" points="991.1,-523.99 1001.1,-520.49 991.1,-516.99 991.1,-523.99"/>
</g>
<!-- src/HTTPApi.ts -->
<g id="node12" class="node">
<title>src/HTTPApi.ts</title>
<path fill="none" stroke="#c6c5fe" d="M241.83,-450.99C241.83,-450.99 150.17,-450.99 150.17,-450.99 146.33,-450.99 142.5,-447.15 142.5,-443.32 142.5,-443.32 142.5,-435.65 142.5,-435.65 142.5,-431.82 146.33,-427.99 150.17,-427.99 150.17,-427.99 241.83,-427.99 241.83,-427.99 245.67,-427.99 249.5,-431.82 249.5,-435.65 249.5,-435.65 249.5,-443.32 249.5,-443.32 249.5,-447.15 245.67,-450.99 241.83,-450.99"/>
<text text-anchor="middle" x="196" y="-435.79" font-family="Arial" font-size="14.00" fill="#c6c5fe">src/HTTPApi.ts</text>
</g>
<!-- src/HTTPApi.ts&#45;&gt;config/default_env.json -->
<g id="edge9" class="edge">
<title>src/HTTPApi.ts&#45;&gt;config/default_env.json</title>
<path fill="none" stroke="#757575" d="M249.69,-441.81C309.54,-443.33 402.37,-441.94 429,-420.49 471.7,-386.09 424.53,-339.48 465,-302.49 468.16,-299.59 471.64,-297.08 475.33,-294.89"/>
<polygon fill="#757575" stroke="#757575" points="476.93,-298 484.28,-290.37 473.78,-291.75 476.93,-298"/>
</g>
<!-- src/HTTPApi.ts&#45;&gt;config/settings.json -->
<g id="edge10" class="edge">
<title>src/HTTPApi.ts&#45;&gt;config/settings.json</title>
<path fill="none" stroke="#757575" d="M211.59,-451.08C235.41,-469.89 284.27,-508.02 327,-538.49 387.02,-581.28 397.55,-600.76 465,-630.49 549.41,-667.68 653.64,-689.93 722.55,-701.68"/>
<polygon fill="#757575" stroke="#757575" points="722.01,-705.14 732.45,-703.34 723.17,-698.23 722.01,-705.14"/>
</g>
<!-- src/HTTPApi.ts&#45;&gt;src/Block.ts -->
<g id="edge11" class="edge">
<title>src/HTTPApi.ts&#45;&gt;src/Block.ts</title>
<path fill="none" stroke="#757575" d="M223.56,-451C254.67,-464.48 306.35,-486.87 341.03,-501.9"/>
<polygon fill="#757575" stroke="#757575" points="339.76,-505.17 350.33,-505.93 342.55,-498.74 339.76,-505.17"/>
</g>
<!-- src/HTTPApi.ts&#45;&gt;src/Transaction.ts -->
<g id="edge12" class="edge">
<title>src/HTTPApi.ts&#45;&gt;src/Transaction.ts</title>
<path fill="none" stroke="#757575" d="M223.96,-451.1C270.54,-469.16 367.04,-497.61 429,-453.49 468.84,-425.12 429.27,-382.89 465,-349.49 472.25,-342.71 481.09,-337.67 490.43,-333.92"/>
<polygon fill="#757575" stroke="#757575" points="491.63,-337.21 499.9,-330.59 489.3,-330.61 491.63,-337.21"/>
</g>
<!-- src/base58.ts -->
<g id="node13" class="node">
<title>src/base58.ts</title>
<path fill="none" stroke="#cfffac" d="M418.83,-410.99C418.83,-410.99 337.17,-410.99 337.17,-410.99 333.33,-410.99 329.5,-407.15 329.5,-403.32 329.5,-403.32 329.5,-395.65 329.5,-395.65 329.5,-391.82 333.33,-387.99 337.17,-387.99 337.17,-387.99 418.83,-387.99 418.83,-387.99 422.67,-387.99 426.5,-391.82 426.5,-395.65 426.5,-395.65 426.5,-403.32 426.5,-403.32 426.5,-407.15 422.67,-410.99 418.83,-410.99"/>
<text text-anchor="middle" x="378" y="-395.79" font-family="Arial" font-size="14.00" fill="#cfffac">src/base58.ts</text>
</g>
<!-- src/HTTPApi.ts&#45;&gt;src/base58.ts -->
<g id="edge13" class="edge">
<title>src/HTTPApi.ts&#45;&gt;src/base58.ts</title>
<path fill="none" stroke="#757575" d="M249.06,-427.92C271.13,-423.01 296.93,-417.28 319.55,-412.25"/>
<polygon fill="#757575" stroke="#757575" points="320.36,-415.66 329.36,-410.07 318.84,-408.83 320.36,-415.66"/>
</g>
<!-- src/log.ts -->
<g id="node14" class="node">
<title>src/log.ts</title>
<path fill="none" stroke="#c6c5fe" d="M405.83,-369.99C405.83,-369.99 350.17,-369.99 350.17,-369.99 346.33,-369.99 342.5,-366.15 342.5,-362.32 342.5,-362.32 342.5,-354.65 342.5,-354.65 342.5,-350.82 346.33,-346.99 350.17,-346.99 350.17,-346.99 405.83,-346.99 405.83,-346.99 409.67,-346.99 413.5,-350.82 413.5,-354.65 413.5,-354.65 413.5,-362.32 413.5,-362.32 413.5,-366.15 409.67,-369.99 405.83,-369.99"/>
<text text-anchor="middle" x="378" y="-354.79" font-family="Arial" font-size="14.00" fill="#c6c5fe">src/log.ts</text>
</g>
<!-- src/HTTPApi.ts&#45;&gt;src/log.ts -->
<g id="edge14" class="edge">
<title>src/HTTPApi.ts&#45;&gt;src/log.ts</title>
<path fill="none" stroke="#757575" d="M221.32,-427.95C247.36,-415.68 289.92,-395.82 327,-379.49 331.08,-377.69 335.37,-375.83 339.64,-374.01"/>
<polygon fill="#757575" stroke="#757575" points="341.05,-377.21 348.9,-370.09 338.32,-370.77 341.05,-377.21"/>
</g>
<!-- src/log.ts&#45;&gt;config/default_env.json -->
<g id="edge27" class="edge">
<title>src/log.ts&#45;&gt;config/default_env.json</title>
<path fill="none" stroke="#757575" d="M403.76,-346.94C412.01,-342.75 421.1,-337.74 429,-332.49 446.34,-320.95 446.25,-311.56 465,-302.49 469.01,-300.55 473.21,-298.79 477.51,-297.21"/>
<polygon fill="#757575" stroke="#757575" points="478.68,-300.51 487.05,-294.01 476.46,-293.87 478.68,-300.51"/>
</g>
<!-- src/Wallet.ts -->
<g id="node17" class="node">
<title>src/Wallet.ts</title>
<path fill="none" stroke="#c6c5fe" d="M233.33,-208.99C233.33,-208.99 158.67,-208.99 158.67,-208.99 154.83,-208.99 151,-205.15 151,-201.32 151,-201.32 151,-193.65 151,-193.65 151,-189.82 154.83,-185.99 158.67,-185.99 158.67,-185.99 233.33,-185.99 233.33,-185.99 237.17,-185.99 241,-189.82 241,-193.65 241,-193.65 241,-201.32 241,-201.32 241,-205.15 237.17,-208.99 233.33,-208.99"/>
<text text-anchor="middle" x="196" y="-193.79" font-family="Arial" font-size="14.00" fill="#c6c5fe">src/Wallet.ts</text>
</g>
<!-- src/Wallet.ts&#45;&gt;src/Address.ts -->
<g id="edge21" class="edge">
<title>src/Wallet.ts&#45;&gt;src/Address.ts</title>
<path fill="none" stroke="#757575" d="M227.54,-185.97C245.96,-178.99 269.87,-169.83 291,-161.49 306.87,-155.22 324.31,-148.16 339.32,-142.02"/>
<polygon fill="#757575" stroke="#757575" points="340.86,-145.17 348.78,-138.14 338.2,-138.69 340.86,-145.17"/>
</g>
<!-- src/Wallet.ts&#45;&gt;src/Transaction.ts -->
<g id="edge22" class="edge">
<title>src/Wallet.ts&#45;&gt;src/Transaction.ts</title>
<path fill="none" stroke="#757575" d="M222.4,-208.99C269.44,-229.95 373.68,-274.74 465,-302.49 473.44,-305.05 482.38,-307.44 491.28,-309.62"/>
<polygon fill="#757575" stroke="#757575" points="490.75,-313.09 501.28,-311.98 492.36,-306.27 490.75,-313.09"/>
</g>
<!-- src/Wallet.ts&#45;&gt;src/addressFromPublicKey.ts -->
<g id="edge23" class="edge">
<title>src/Wallet.ts&#45;&gt;src/addressFromPublicKey.ts</title>
<path fill="none" stroke="#757575" d="M241.22,-199.97C323.38,-204.69 505.13,-215.65 658,-228.49 668.94,-229.41 680.35,-230.44 691.73,-231.51"/>
<polygon fill="#757575" stroke="#757575" points="691.42,-235 701.7,-232.47 692.08,-228.03 691.42,-235"/>
</g>
<!-- src/Wallet.ts&#45;&gt;src/publicKeyFromPrivateKey.ts -->
<g id="edge25" class="edge">
<title>src/Wallet.ts&#45;&gt;src/publicKeyFromPrivateKey.ts</title>
<path fill="none" stroke="#757575" d="M241.22,-195.08C266.37,-193.71 298.45,-191.99 327,-190.49 448.82,-184.1 588.42,-177 683.62,-172.19"/>
<polygon fill="#757575" stroke="#757575" points="684.04,-175.67 693.85,-171.67 683.68,-168.68 684.04,-175.67"/>
</g>
<!-- src/keygen.ts -->
<g id="node18" class="node">
<title>src/keygen.ts</title>
<path fill="none" stroke="#cfffac" d="M418.33,-96.99C418.33,-96.99 337.67,-96.99 337.67,-96.99 333.83,-96.99 330,-93.15 330,-89.32 330,-89.32 330,-81.65 330,-81.65 330,-77.82 333.83,-73.99 337.67,-73.99 337.67,-73.99 418.33,-73.99 418.33,-73.99 422.17,-73.99 426,-77.82 426,-81.65 426,-81.65 426,-89.32 426,-89.32 426,-93.15 422.17,-96.99 418.33,-96.99"/>
<text text-anchor="middle" x="378" y="-81.79" font-family="Arial" font-size="14.00" fill="#cfffac">src/keygen.ts</text>
</g>
<!-- src/Wallet.ts&#45;&gt;src/keygen.ts -->
<g id="edge24" class="edge">
<title>src/Wallet.ts&#45;&gt;src/keygen.ts</title>
<path fill="none" stroke="#757575" d="M211.08,-185.82C234.19,-167.09 282.07,-129.93 327,-105.49 329.71,-104.02 332.54,-102.59 335.43,-101.23"/>
<polygon fill="#757575" stroke="#757575" points="337.03,-104.35 344.74,-97.09 334.19,-97.95 337.03,-104.35"/>
</g>
<!-- src/mongoose/schema/block.ts&#45;&gt;config/mongoose.json -->
<g id="edge29" class="edge">
<title>src/mongoose/schema/block.ts&#45;&gt;config/mongoose.json</title>
<path fill="none" stroke="#757575" d="M899.64,-443.44C976.17,-445.12 1083.68,-442.98 1176,-424.49 1202.41,-419.2 1230.86,-408.38 1252.14,-399.18"/>
<polygon fill="#757575" stroke="#757575" points="1253.65,-402.34 1261.38,-395.1 1250.81,-395.94 1253.65,-402.34"/>
</g>
<!-- src/mongoose/schema/transaction.ts -->
<g id="node20" class="node">
<title>src/mongoose/schema/transaction.ts</title>
<path fill="none" stroke="#c6c5fe" d="M1168.33,-414.99C1168.33,-414.99 945.67,-414.99 945.67,-414.99 941.83,-414.99 938,-411.15 938,-407.32 938,-407.32 938,-399.65 938,-399.65 938,-395.82 941.83,-391.99 945.67,-391.99 945.67,-391.99 1168.33,-391.99 1168.33,-391.99 1172.17,-391.99 1176,-395.82 1176,-399.65 1176,-399.65 1176,-407.32 1176,-407.32 1176,-411.15 1172.17,-414.99 1168.33,-414.99"/>
<text text-anchor="middle" x="1057" y="-399.79" font-family="Arial" font-size="14.00" fill="#c6c5fe">src/mongoose/schema/transaction.ts</text>
</g>
<!-- src/mongoose/schema/block.ts&#45;&gt;src/mongoose/schema/transaction.ts -->
<g id="edge30" class="edge">
<title>src/mongoose/schema/block.ts&#45;&gt;src/mongoose/schema/transaction.ts</title>
<path fill="none" stroke="#757575" d="M883.51,-426.98C908.43,-423.58 935.87,-419.85 961.39,-416.37"/>
<polygon fill="#757575" stroke="#757575" points="962.01,-419.82 971.44,-415 961.06,-412.88 962.01,-419.82"/>
</g>
<!-- src/mongoose/schema/transaction.ts&#45;&gt;config/mongoose.json -->
<g id="edge31" class="edge">
<title>src/mongoose/schema/transaction.ts&#45;&gt;config/mongoose.json</title>
<path fill="none" stroke="#757575" d="M1176.08,-393.11C1184.77,-392.34 1193.43,-391.58 1201.85,-390.84"/>
<polygon fill="#757575" stroke="#757575" points="1202.34,-394.31 1211.99,-389.95 1201.72,-387.34 1202.34,-394.31"/>
</g>
<!-- src/walletPassphraseHash.ts -->
<g id="node21" class="node">
<title>src/walletPassphraseHash.ts</title>
<path fill="none" stroke="#c6c5fe" d="M283.33,-801.99C283.33,-801.99 108.67,-801.99 108.67,-801.99 104.83,-801.99 101,-798.15 101,-794.32 101,-794.32 101,-786.65 101,-786.65 101,-782.82 104.83,-778.99 108.67,-778.99 108.67,-778.99 283.33,-778.99 283.33,-778.99 287.17,-778.99 291,-782.82 291,-786.65 291,-786.65 291,-794.32 291,-794.32 291,-798.15 287.17,-801.99 283.33,-801.99"/>
<text text-anchor="middle" x="196" y="-786.79" font-family="Arial" font-size="14.00" fill="#c6c5fe">src/walletPassphraseHash.ts</text>
</g>
<!-- src/walletPassphraseHash.ts&#45;&gt;config/settings.json -->
<g id="edge33" class="edge">
<title>src/walletPassphraseHash.ts&#45;&gt;config/settings.json</title>
<path fill="none" stroke="#757575" d="M291.23,-793.4C385.18,-794.4 533.07,-790.74 658,-764.49 695.44,-756.62 736.21,-740.38 763.86,-728.13"/>
<polygon fill="#757575" stroke="#757575" points="765.38,-731.29 773.06,-723.99 762.5,-724.9 765.38,-731.29"/>
</g>
<!-- wallet.ts -->
<g id="node22" class="node">
<title>wallet.ts</title>
<path fill="none" stroke="#c6c5fe" d="M57.33,-369.99C57.33,-369.99 7.67,-369.99 7.67,-369.99 3.83,-369.99 0,-366.15 0,-362.32 0,-362.32 0,-354.65 0,-354.65 0,-350.82 3.83,-346.99 7.67,-346.99 7.67,-346.99 57.33,-346.99 57.33,-346.99 61.17,-346.99 65,-350.82 65,-354.65 65,-354.65 65,-362.32 65,-362.32 65,-366.15 61.17,-369.99 57.33,-369.99"/>
<text text-anchor="middle" x="32.5" y="-354.79" font-family="Arial" font-size="14.00" fill="#c6c5fe">wallet.ts</text>
</g>
<!-- wallet.ts&#45;&gt;config/default_env.json -->
<g id="edge34" class="edge">
<title>wallet.ts&#45;&gt;config/default_env.json</title>
<path fill="none" stroke="#757575" d="M65.28,-353.9C144.85,-342.43 354.83,-312.15 474.24,-294.93"/>
<polygon fill="#757575" stroke="#757575" points="475.05,-298.35 484.45,-293.45 474.05,-291.42 475.05,-298.35"/>
</g>
<!-- wallet.ts&#45;&gt;config/settings.json -->
<g id="edge35" class="edge">
<title>wallet.ts&#45;&gt;config/settings.json</title>
<path fill="none" stroke="#757575" d="M33.8,-370.08C35.35,-404.57 44.69,-507.49 101,-562.49 271.6,-729.11 580.34,-729.79 722.13,-720"/>
<polygon fill="#757575" stroke="#757575" points="722.74,-723.47 732.45,-719.25 722.23,-716.49 722.74,-723.47"/>
</g>
<!-- wallet.ts&#45;&gt;src/Address.ts -->
<g id="edge36" class="edge">
<title>wallet.ts&#45;&gt;src/Address.ts</title>
<path fill="none" stroke="#757575" d="M34.03,-346.91C36.19,-314.4 47.01,-221.72 101,-176.49 161.25,-126.01 255.25,-119.31 316.48,-121.25"/>
<polygon fill="#757575" stroke="#757575" points="316.63,-124.75 326.77,-121.66 316.92,-117.76 316.63,-124.75"/>
</g>
<!-- wallet.ts&#45;&gt;src/beautifyBigInt.ts -->
<g id="edge41" class="edge">
<title>wallet.ts&#45;&gt;src/beautifyBigInt.ts</title>
<path fill="none" stroke="#757575" d="M38.14,-370.07C47.15,-391.09 68.94,-435.64 101,-460.49 184.99,-525.57 222.21,-520.91 327,-538.49 371.71,-545.99 383.73,-540.85 429,-538.49 531.2,-533.15 558.54,-538.58 658,-514.49 674.68,-510.45 677.53,-505.33 694,-500.49 702.97,-497.85 712.47,-495.43 721.93,-493.24"/>
<polygon fill="#757575" stroke="#757575" points="722.76,-496.64 731.75,-491.05 721.23,-489.81 722.76,-496.64"/>
</g>
<!-- wallet.ts&#45;&gt;src/parseBigInt.ts -->
<g id="edge44" class="edge">
<title>wallet.ts&#45;&gt;src/parseBigInt.ts</title>
<path fill="none" stroke="#757575" d="M35.05,-370.14C39.5,-398.8 55.13,-473.05 101,-509.49 298.91,-666.72 638.01,-574.37 755.49,-535.31"/>
<polygon fill="#757575" stroke="#757575" points="756.83,-538.55 765.19,-532.04 754.6,-531.92 756.83,-538.55"/>
</g>
<!-- wallet.ts&#45;&gt;src/HTTPApi.ts -->
<g id="edge37" class="edge">
<title>wallet.ts&#45;&gt;src/HTTPApi.ts</title>
<path fill="none" stroke="#757575" d="M44.92,-370.02C57.58,-382.2 79.14,-401.18 101,-412.49 110.82,-417.56 121.71,-421.8 132.51,-425.3"/>
<polygon fill="#757575" stroke="#757575" points="131.78,-428.74 142.37,-428.31 133.83,-422.04 131.78,-428.74"/>
</g>
<!-- wallet.ts&#45;&gt;src/base58.ts -->
<g id="edge40" class="edge">
<title>wallet.ts&#45;&gt;src/base58.ts</title>
<path fill="none" stroke="#757575" d="M65.31,-365.81C76.54,-368.21 89.29,-370.7 101,-372.49 176.05,-383.91 263.36,-391.5 319.36,-395.65"/>
<polygon fill="#757575" stroke="#757575" points="319.21,-399.15 329.44,-396.39 319.72,-392.17 319.21,-399.15"/>
</g>
<!-- wallet.ts&#45;&gt;src/log.ts -->
<g id="edge43" class="edge">
<title>wallet.ts&#45;&gt;src/log.ts</title>
<path fill="none" stroke="#757575" d="M65.2,-358.49C126.5,-358.49 261.43,-358.49 331.99,-358.49"/>
<polygon fill="#757575" stroke="#757575" points="332.33,-361.99 342.33,-358.49 332.33,-354.99 332.33,-361.99"/>
</g>
<!-- wallet.ts&#45;&gt;src/addressFromPublicKey.ts -->
<g id="edge39" class="edge">
<title>wallet.ts&#45;&gt;src/addressFromPublicKey.ts</title>
<path fill="none" stroke="#757575" d="M48.69,-346.84C61.82,-337.39 81.67,-324.53 101,-317.49 300.56,-244.81 551.99,-236.41 691.48,-238.39"/>
<polygon fill="#757575" stroke="#757575" points="691.69,-241.9 701.74,-238.56 691.8,-234.9 691.69,-241.9"/>
</g>
<!-- wallet.ts&#45;&gt;src/publicKeyFromPrivateKey.ts -->
<g id="edge45" class="edge">
<title>wallet.ts&#45;&gt;src/publicKeyFromPrivateKey.ts</title>
<path fill="none" stroke="#757575" d="M34.36,-346.7C38.25,-296.78 56.07,-103.68 101,-67.49 308.39,99.56 667.85,-90.06 769.51,-149.71"/>
<polygon fill="#757575" stroke="#757575" points="767.88,-152.82 778.26,-154.91 771.45,-146.79 767.88,-152.82"/>
</g>
<!-- wallet.ts&#45;&gt;src/Wallet.ts -->
<g id="edge38" class="edge">
<title>wallet.ts&#45;&gt;src/Wallet.ts</title>
<path fill="none" stroke="#757575" d="M36.32,-346.9C43.05,-321.65 62.46,-261.29 101,-228.49 112.38,-218.8 126.87,-212.12 141.04,-207.52"/>
<polygon fill="#757575" stroke="#757575" points="142.16,-210.84 150.77,-204.66 140.18,-204.12 142.16,-210.84"/>
</g>
<!-- wallet.ts&#45;&gt;src/keygen.ts -->
<g id="edge42" class="edge">
<title>wallet.ts&#45;&gt;src/keygen.ts</title>
<path fill="none" stroke="#757575" d="M35.05,-346.78C41.14,-302.79 64.81,-148.38 101,-117.49 161.47,-65.87 258.49,-67.45 319.92,-75.13"/>
<polygon fill="#757575" stroke="#757575" points="319.46,-78.6 329.84,-76.46 320.39,-71.66 319.46,-78.6"/>
</g>
<!-- wallet.ts&#45;&gt;src/walletPassphraseHash.ts -->
<g id="edge46" class="edge">
<title>wallet.ts&#45;&gt;src/walletPassphraseHash.ts</title>
<path fill="none" stroke="#757575" d="M33.8,-370.22C35.59,-430.4 46.63,-704.08 101,-764.49 104.14,-767.98 107.71,-771.02 111.57,-773.67"/>
<polygon fill="#757575" stroke="#757575" points="110.04,-776.83 120.44,-778.85 113.57,-770.78 110.04,-776.83"/>
</g>
</g>
</svg>
